<svg width="16" height="22" viewBox="0 0 16 22" fill="none" xmlns="http://www.w3.org/2000/svg">
<path d="M8.13689 0.143555C12.3714 0.143555 15.8164 3.53717 15.8164 7.70847C15.8164 12.8852 8.94399 20.4849 8.65139 20.8059C8.37656 21.1074 7.89672 21.1069 7.62238 20.8059C7.32978 20.4849 0.457364 12.8852 0.457364 7.70847C0.457447 3.53717 3.90242 0.143555 8.13689 0.143555ZM8.13689 11.5146C10.2674 11.5146 12.0006 9.80718 12.0006 7.70847C12.0006 5.60977 10.2673 3.90239 8.13689 3.90239C6.00644 3.90239 4.27321 5.60981 4.27321 7.70851C4.27321 9.80722 6.00644 11.5146 8.13689 11.5146Z" fill="#0B4296"/>
</svg>
