<svg width="53" height="43" viewBox="0 0 53 43" fill="none" xmlns="http://www.w3.org/2000/svg">
<path id="Vector" d="M52.5265 19.0098L48.0721 16.7691L52.5265 14.5327C52.6687 14.4614 52.7884 14.3516 52.872 14.2156C52.9557 14.0796 53 13.9228 53 13.7629C53 13.603 52.9557 13.4462 52.872 13.3102C52.7884 13.1742 52.6687 13.0644 52.5265 12.9931L26.8821 0.0907175C26.7635 0.0310584 26.6326 0 26.5 0C26.3674 0 26.2365 0.0310584 26.1179 0.0907175L0.47351 12.9931C0.331263 13.0644 0.211598 13.1742 0.127954 13.3102C0.0443101 13.4462 0 13.603 0 13.7629C0 13.9228 0.0443101 14.0796 0.127954 14.2156C0.211598 14.3516 0.331263 14.4614 0.47351 14.5327L4.92794 16.7691L0.47351 19.0098C0.331412 19.0813 0.211911 19.1912 0.128413 19.3272C0.044915 19.4631 0.000724274 19.6198 0.000798297 19.7797V23.2203C-7.27798e-05 23.3809 0.0437424 23.5385 0.127285 23.6753C0.210827 23.8121 0.33076 23.9227 0.47351 23.9945L4.92794 26.2309L0.47351 28.4673C0.331263 28.5386 0.211598 28.6484 0.127954 28.7844C0.0443101 28.9204 0 29.0772 0 29.2371C0 29.397 0.0443101 29.5538 0.127954 29.6898C0.211598 29.8258 0.331263 29.9356 0.47351 30.0069L26.1179 42.9093C26.2365 42.9689 26.3674 43 26.5 43C26.6326 43 26.7635 42.9689 26.8821 42.9093L52.5265 30.0069C52.6687 29.9356 52.7884 29.8258 52.872 29.6898C52.9557 29.5538 53 29.397 53 29.2371C53 29.0772 52.9557 28.9204 52.872 28.7844C52.7884 28.6484 52.6687 28.5386 52.5265 28.4673L48.0721 26.2309L52.5265 23.9945C52.6692 23.9227 52.7892 23.8121 52.8727 23.6753C52.9563 23.5385 53.0001 23.3809 52.9992 23.2203V19.7797C52.9993 19.6198 52.9551 19.4631 52.8716 19.3272C52.7881 19.1912 52.6686 19.0813 52.5265 19.0098ZM26.5 1.81791L50.233 13.7586L26.5 25.6993L2.76697 13.7586L26.5 1.81791ZM26.1179 27.4351C26.2365 27.4947 26.3674 27.5258 26.5 27.5258C26.6326 27.5258 26.7635 27.4947 26.8821 27.4351L46.1607 17.7308L50.233 19.7797L26.5 31.7204L2.76697 19.7797L6.8393 17.7308L26.1179 27.4351ZM1.71042 21.1714L25.6452 33.2136V34.7309L1.71042 22.6887V21.1714ZM50.233 29.2414L26.5 41.1821L2.76697 29.2414L6.8393 27.1925L26.1179 36.8968C26.2365 36.9565 26.3674 36.9875 26.5 36.9875C26.6326 36.9875 26.7635 36.9565 26.8821 36.8968L46.1607 27.1925L50.233 29.2414ZM27.3548 34.7309V33.2136L51.2896 21.1714V22.6887L27.3548 34.7309Z" fill="#C90017"/>
</svg>
