<svg width="63" height="38" viewBox="0 0 63 38" fill="none" xmlns="http://www.w3.org/2000/svg">
<g id="Vector">
<path d="M46.0771 22.1519H46.0812L56.6095 22.0716C57.0187 22.0674 57.3494 21.7294 57.3494 21.3111C57.3494 18.5817 56.3119 16.0171 54.4228 14.0863C52.5338 12.1554 50.0247 11.095 47.3544 11.095H46.073C45.6637 11.095 45.3289 11.4372 45.3289 11.8555V21.3914C45.3289 21.5942 45.4075 21.7885 45.548 21.9322C45.6927 22.0716 45.8787 22.1519 46.0771 22.1519ZM46.8211 12.616H47.3585C49.632 12.616 51.7649 13.5201 53.3729 15.1637C54.8031 16.6255 55.6629 18.5183 55.8324 20.5548L46.8211 20.6266V12.616Z" fill="#C90017"/>
<path d="M60.7224 29.5626H60.7017V21.3111C60.7017 17.6649 59.3128 14.2426 56.7914 11.6653C54.2699 9.08806 50.9175 7.66845 47.3544 7.66845H43.4647V0.760507C43.4647 0.342228 43.1298 0 42.7206 0H9.12696C8.71773 0 8.38291 0.342228 8.38291 0.760507V5.34467H0.744046C0.334821 5.34467 0 5.6869 0 6.10518C0 6.52346 0.334821 6.86569 0.744046 6.86569H15.1248C15.534 6.86569 15.8688 6.52346 15.8688 6.10518C15.8688 5.6869 15.534 5.34467 15.1248 5.34467H9.87101V1.52101H41.9807V29.5626H25.6737C24.7767 27.3402 22.6355 25.7727 20.1388 25.7727C17.6421 25.7727 15.5009 27.3402 14.604 29.5626H9.87101V22.8025H14.6288C15.038 22.8025 15.3728 22.4603 15.3728 22.042C15.3728 21.6238 15.038 21.2815 14.6288 21.2815H3.34407C2.93485 21.2815 2.60003 21.6238 2.60003 22.042C2.60003 22.4603 2.93485 22.8025 3.34407 22.8025H8.38291V29.5626H8.36225C7.75461 29.5626 7.18417 29.8034 6.75428 30.2428C6.32439 30.6822 6.08877 31.2653 6.08877 31.8864C6.08877 33.1666 7.10977 34.2101 8.36225 34.2101H14.604C15.5009 36.4325 17.6421 38 20.1388 38C22.6355 38 24.7767 36.4325 25.6737 34.2101H45.8084C46.7054 36.4325 48.8466 38 51.3433 38C53.84 38 55.9812 36.4325 56.8782 34.2101H60.7265C61.3342 34.2101 61.9046 33.9693 62.3345 33.5299C62.7644 33.0905 63 32.5075 63 31.8864C62.9959 30.602 61.9749 29.5626 60.7224 29.5626ZM43.4647 9.18946H47.3544C53.8937 9.18946 59.2136 14.6271 59.2136 21.3111V29.5626H56.874C55.977 27.3402 53.8358 25.7727 51.3391 25.7727C48.8425 25.7727 46.7013 27.3402 45.8043 29.5626H43.4647V9.18946ZM8.36225 32.6891C7.92822 32.6891 7.57686 32.33 7.57686 31.8864C7.57686 31.6709 7.65954 31.4681 7.80835 31.316C7.95715 31.1639 8.15143 31.0794 8.36225 31.0794H14.2071C14.1741 31.3413 14.1575 31.6117 14.1575 31.8821C14.1575 32.1525 14.1741 32.423 14.2071 32.6849H8.36225V32.6891ZM20.1388 36.479C17.6587 36.479 15.6415 34.4172 15.6415 31.8821C15.6415 29.3471 17.6587 27.2853 20.1388 27.2853C22.619 27.2853 24.6362 29.3471 24.6362 31.8821C24.6362 34.4172 22.619 36.479 20.1388 36.479ZM26.0705 32.6891C26.1036 32.4272 26.1201 32.1568 26.1201 31.8864C26.1201 31.616 26.1036 31.3456 26.0705 31.0836H45.4075C45.3744 31.3456 45.3579 31.616 45.3579 31.8864C45.3579 32.1568 45.3744 32.4272 45.4075 32.6891H26.0705ZM51.3391 36.479C48.859 36.479 46.8418 34.4172 46.8418 31.8821C46.8418 29.3471 48.859 27.2853 51.3391 27.2853C53.8193 27.2853 55.8365 29.3471 55.8365 31.8821C55.8365 34.4172 53.8193 36.479 51.3391 36.479ZM61.2763 32.4525C61.1275 32.6046 60.9291 32.6891 60.7224 32.6891H57.275C57.308 32.4272 57.3246 32.1568 57.3246 31.8864C57.3246 31.616 57.308 31.3456 57.275 31.0836H60.7265C61.1605 31.0836 61.5119 31.4427 61.5119 31.8864C61.5078 32.0976 61.4251 32.3004 61.2763 32.4525Z" fill="#C90017"/>
<path d="M20.1388 29.3683C18.7789 29.3683 17.6752 30.4963 17.6752 31.8864C17.6752 33.2722 18.7789 34.4045 20.1388 34.4045C21.4988 34.4045 22.6025 33.2764 22.6025 31.8864C22.6025 30.4963 21.4947 29.3683 20.1388 29.3683ZM20.1388 32.8793C19.6015 32.8793 19.1633 32.4314 19.1633 31.8822C19.1633 31.3329 19.6015 30.885 20.1388 30.885C20.6762 30.885 21.1144 31.3329 21.1144 31.8822C21.1144 32.4356 20.6762 32.8793 20.1388 32.8793Z" fill="#C90017"/>
<path d="M51.3391 29.3683C49.9792 29.3683 48.8755 30.4963 48.8755 31.8864C48.8755 33.2722 49.9792 34.4045 51.3391 34.4045C52.6991 34.4045 53.8028 33.2764 53.8028 31.8864C53.8028 30.4963 52.6991 29.3683 51.3391 29.3683ZM51.3391 32.8793C50.8018 32.8793 50.3636 32.4314 50.3636 31.8822C50.3636 31.3329 50.8018 30.885 51.3391 30.885C51.8765 30.885 52.3147 31.3329 52.3147 31.8822C52.3147 32.4356 51.8765 32.8793 51.3391 32.8793Z" fill="#C90017"/>
<path d="M22.7099 6.86569C23.1192 6.86569 23.454 6.52346 23.454 6.10518C23.454 5.6869 23.1192 5.34467 22.7099 5.34467H18.4441C18.0348 5.34467 17.7 5.6869 17.7 6.10518C17.7 6.52346 18.0348 6.86569 18.4441 6.86569H22.7099Z" fill="#C90017"/>
<path d="M8.70533 10.6556H3.67889C3.26967 10.6556 2.93485 10.9978 2.93485 11.4161C2.93485 11.8343 3.26967 12.1766 3.67889 12.1766H8.70533C9.11456 12.1766 9.44938 11.8343 9.44938 11.4161C9.44938 10.9978 9.11456 10.6556 8.70533 10.6556Z" fill="#C90017"/>
<path d="M11.2806 11.4161C11.2806 11.8343 11.6154 12.1766 12.0246 12.1766H25.6448C26.054 12.1766 26.3888 11.8343 26.3888 11.4161C26.3888 10.9978 26.054 10.6556 25.6448 10.6556H12.0246C11.6112 10.6556 11.2806 10.9978 11.2806 11.4161Z" fill="#C90017"/>
<path d="M5.27859 16.7312C5.27859 16.3129 4.94377 15.9706 4.53454 15.9706H0.744046C0.334821 15.9706 0 16.3129 0 16.7312C0 17.1494 0.334821 17.4917 0.744046 17.4917H4.53454C4.94377 17.4917 5.27859 17.1494 5.27859 16.7312Z" fill="#C90017"/>
<path d="M7.10564 16.7312C7.10564 17.1494 7.44046 17.4917 7.84968 17.4917H22.7058C23.115 17.4917 23.4498 17.1494 23.4498 16.7312C23.4498 16.3129 23.115 15.9706 22.7058 15.9706H7.84968C7.44046 15.9706 7.10564 16.3087 7.10564 16.7312Z" fill="#C90017"/>
<path d="M17.9439 21.2815C17.5347 21.2815 17.1999 21.6238 17.1999 22.042C17.1999 22.4603 17.5347 22.8025 17.9439 22.8025H25.3058C25.715 22.8025 26.0499 22.4603 26.0499 22.042C26.0499 21.6238 25.715 21.2815 25.3058 21.2815H17.9439Z" fill="#C90017"/>
</g>
</svg>
