<svg width="20" height="23" viewBox="0 0 20 23" fill="none" xmlns="http://www.w3.org/2000/svg">
<path d="M8.36313 1.38241C8.34764 1.47652 8.3405 1.57176 8.34175 1.66706L8.34175 17.8931L8.17489 17.5393C8.00892 17.1935 7.78304 16.8788 7.50746 16.6095L2.89382 12.0593C2.31377 11.46 1.38067 11.3594 0.68294 11.8207C-0.0605712 12.3576 -0.222007 13.3873 0.322422 14.1207C0.366431 14.1799 0.414402 14.2362 0.466024 14.2892L8.80896 22.5174C9.46023 23.1604 10.5167 23.161 11.1687 22.5186C11.1691 22.5182 11.1696 22.5178 11.17 22.5174L19.5129 14.2892C20.1636 13.6456 20.1622 12.6037 19.5097 11.9619C19.4583 11.9114 19.4036 11.8642 19.3461 11.8207C18.6483 11.3594 17.7152 11.46 17.1352 12.0593L12.5132 16.6013C12.2681 16.8427 12.0626 17.1203 11.9042 17.4241L11.6789 17.9178L11.6789 1.75762C11.7106 0.916954 11.1151 0.179399 10.2773 0.0214686C9.36767 -0.124016 8.5107 0.485283 8.36313 1.38241Z" fill="#C90017"/>
</svg>
