<svg width="68" height="20" viewBox="0 0 68 20" fill="none" xmlns="http://www.w3.org/2000/svg">
<path d="M4.00112 19.7867H0V0H4.00112V10.16L8.4557 5.41333H13.4971L8.02892 11.2267L13.7105 19.7867H8.96251L5.30815 14.2933L4.00112 15.6533V19.7867Z" fill="#0B4296"/>
<path d="M23.4126 8.96C22.2212 8.96 21.332 9.38667 20.7452 10.24C20.1584 11.0756 19.8649 12.1867 19.8649 13.5733V19.7867H15.8638V5.44H19.8649V7.33333C20.3806 6.74667 21.0208 6.24889 21.7855 5.84C22.5679 5.43111 23.3593 5.21778 24.1595 5.2L24.1861 8.96H23.4126Z" fill="#0B4296"/>
<path d="M36.0864 13.1733V5.44H40.1142V19.7867H36.0864V17.8933C35.0905 19.2978 33.8013 20 32.2186 20C30.6537 20 29.3378 19.5111 28.2708 18.5333C27.2039 17.5378 26.6704 16.0711 26.6704 14.1333V5.44H30.6982V13.2533C30.6982 15.4578 31.5073 16.56 33.1255 16.56C33.9258 16.56 34.6193 16.2756 35.2061 15.7067C35.7929 15.12 36.0864 14.2756 36.0864 13.1733Z" fill="#0B4296"/>
<path d="M51.3613 19.7867H47.2268L42.3454 5.44H46.4799L49.2807 14.1067L52.0815 5.44H55.9492L58.75 14.1067L63.8388 0H68L60.8306 19.7867H56.6694L54.0287 11.9733L51.3613 19.7867Z" fill="#0B4296"/>
</svg>
