<svg width="14" height="13" viewBox="0 0 14 13" fill="none" xmlns="http://www.w3.org/2000/svg">
<path d="M8.52648 0.431187C8.24965 0.155098 7.87419 -4.3179e-06 7.48269 0C7.0912 4.31808e-06 6.71574 0.155115 6.43891 0.43121C6.16209 0.707305 6.00657 1.08177 6.00657 1.47222C6.00658 1.86267 6.1621 2.23713 6.43894 2.51322L8.96023 5.0278H1.47611C1.08462 5.0278 0.709167 5.18291 0.432343 5.45899C0.155518 5.73508 0 6.10954 0 6.49998C0 6.89043 0.155518 7.26489 0.432343 7.54097C0.709167 7.81706 1.08462 7.97217 1.47611 7.97217H8.96023L6.43894 10.4867C6.16209 10.7628 6.00655 11.1373 6.00654 11.5277C6.00653 11.9182 6.16204 12.2927 6.43887 12.5688C6.71569 12.8449 7.09116 13 7.48266 13C7.87416 13 8.24964 12.8449 8.52648 12.5688L13.5676 7.541C13.7047 7.4043 13.8134 7.242 13.8876 7.06338C13.9618 6.88476 14 6.69332 14 6.49998C14 6.30665 13.9618 6.11521 13.8876 5.93659C13.8134 5.75797 13.7047 5.59567 13.5676 5.45897L8.52648 0.431187Z" fill="white"/>
</svg>
