<svg width="8" height="6" viewBox="0 0 8 6" fill="none" xmlns="http://www.w3.org/2000/svg">
<path fill-rule="evenodd" clip-rule="evenodd" d="M4.32675 0.138738C4.5305 -0.0462459 4.8608 -0.0462459 5.06456 0.138738L7.84717 2.66508C7.94504 2.75388 8 2.87439 8 3.00001C8 3.12563 7.94504 3.24613 7.84717 3.33493L5.06456 5.86126C4.8608 6.04625 4.5305 6.04625 4.32675 5.86126C4.12299 5.67627 4.12299 5.37639 4.32675 5.1914L6.21864 3.47369H0.521739C0.233593 3.47369 0 3.26161 0 3.00001C0 2.73841 0.233593 2.52632 0.521739 2.52632H6.21864L4.32675 0.80863C4.12299 0.623646 4.12299 0.323721 4.32675 0.138738Z" fill="#C90017"/>
</svg>
