<svg width="225" height="61" viewBox="0 0 225 61" fill="none" xmlns="http://www.w3.org/2000/svg">
<path d="M60.1732 48.3056H65.9064V20.9102L44.9293 38.0428V21.8295H39.2129V49.3252L60.1732 32.2595V48.3056Z" fill="white"/>
<path d="M96.7286 48.3056L87.1177 37.324L81.6185 42.4721V48.3056H75.8687V21.8294H81.6185V35.1678L95.8428 21.7793H103.949L91.2128 33.6802L103.983 48.3056H96.7286Z" fill="white"/>
<path d="M111.203 48.3056V21.8127H129.088C131.495 21.8127 133.551 22.6485 135.272 24.3534C136.994 26.0416 137.88 28.0641 137.88 30.471C137.88 32.8779 136.994 34.9004 135.272 36.5886C133.551 38.2768 131.495 39.1292 129.088 39.1292H116.953V48.3223H111.203V48.3056ZM116.953 33.8139H128.369C130.642 33.8139 132.147 32.3263 132.147 30.4376C132.147 28.5488 130.659 27.0277 128.369 27.0277H116.953V33.8139Z" fill="white"/>
<path d="M203.435 37.7752V48.3055H197.702V21.8293H203.435V32.3262H218.679V21.8293H224.396V48.3055H218.679V37.7752H203.435Z" fill="white"/>
<path d="M186.787 20.4588C187.74 21.0104 188.492 21.7959 189.01 22.6985C189.545 23.6179 189.829 24.6876 189.829 25.7573V44.7119H189.846C189.846 45.8819 189.495 47.0018 188.91 47.9545C188.308 48.924 187.439 49.7096 186.42 50.211L170.323 59.4877C169.354 60.0393 168.284 60.3067 167.248 60.3067C166.161 60.3067 165.092 60.0059 164.156 59.4543L156.149 54.841L147.758 50.0104C146.806 49.4589 146.037 48.6733 145.535 47.7874C145 46.8513 144.716 45.7983 144.716 44.7286V25.7741C144.716 24.604 145.067 23.4841 145.652 22.5314C146.254 21.5619 147.123 20.7763 148.143 20.2749L164.239 10.9982C165.192 10.4466 166.245 10.1792 167.281 10.1792C168.351 10.1792 169.421 10.4633 170.34 10.9982C171.878 11.8841 186.754 20.4755 186.787 20.4755V20.4588ZM184.631 25.2225C184.548 25.072 184.414 24.955 184.247 24.8547C182.692 23.9521 167.85 15.3775 167.799 15.3775C167.632 15.2772 167.465 15.2271 167.281 15.2271C167.114 15.2271 166.93 15.2772 166.763 15.3775C161.314 18.5031 155.865 21.7124 150.399 24.8046C150.215 24.8882 150.065 25.0219 149.965 25.189C149.881 25.3395 149.814 25.5233 149.814 25.7406V44.6951C149.814 44.879 149.864 45.0629 149.965 45.2133C150.048 45.3637 150.182 45.4975 150.349 45.5977L158.723 50.4283L166.78 55.0583C166.947 55.1586 167.131 55.2087 167.298 55.2087C167.482 55.2087 167.666 55.1586 167.833 55.075C173.282 51.9326 178.731 48.7234 184.213 45.6312C184.397 45.5476 184.548 45.4139 184.648 45.2467C184.731 45.0963 184.798 44.9124 184.798 44.6951V25.7406C184.798 25.5568 184.731 25.3729 184.648 25.2058L184.631 25.2225Z" fill="white"/>
<path d="M0 48.4226V20.9436L14.826 36.6722L29.652 20.9436V48.4226H24.5707V33.7471L14.826 44.0768L5.098 33.7471V48.4226H0Z" fill="white"/>
<path d="M194.175 2.6075C194.409 2.74121 194.61 2.94178 194.744 3.17579C194.877 3.4098 194.944 3.67724 194.944 3.94468V8.7251C194.944 9.02596 194.861 9.2934 194.71 9.54412C194.56 9.79484 194.342 9.99541 194.075 10.1124L190.013 12.4525C189.763 12.5862 189.495 12.6531 189.244 12.6531C188.977 12.6531 188.693 12.5695 188.476 12.4358L186.453 11.2657L184.347 10.0456C184.113 9.91183 183.912 9.71126 183.779 9.47726C183.645 9.24325 183.578 8.97582 183.578 8.70838V3.92796C183.578 3.6271 183.662 3.35966 183.812 3.10894C183.963 2.85822 184.18 2.65764 184.447 2.54064L188.509 0.200569C188.743 0.0668508 189.01 0 189.278 0C189.545 0 189.813 0.0668508 190.047 0.200569C190.431 0.41786 194.175 2.59078 194.192 2.59078L194.175 2.6075Z" fill="#C90017"/>
<path d="M158.221 31.2064C157.553 31.6076 156.684 31.3736 156.299 30.705C155.898 30.0364 156.115 29.1672 156.801 28.7828L166.512 23.0496C167.181 22.6485 168.05 22.8825 168.434 23.5511C168.835 24.2197 168.601 25.0888 167.933 25.4733L158.221 31.2064Z" fill="white"/>
<path d="M156.801 41.6865C156.132 41.2854 155.898 40.4329 156.299 39.7476C156.701 39.0791 157.553 38.8618 158.222 39.2462L167.933 44.9794C168.601 45.3805 168.835 46.233 168.434 46.9016C168.033 47.5701 167.181 47.7874 166.512 47.403L156.801 41.6698V41.6865Z" fill="white"/>
<path d="M175.655 28.415C175.655 27.6294 176.29 27.011 177.076 27.011C177.862 27.011 178.48 27.6462 178.48 28.415V42.0543C178.48 42.8398 177.845 43.4583 177.076 43.4583C176.307 43.4583 175.655 42.8231 175.655 42.0543V28.415Z" fill="white"/>
</svg>
