<svg width="18" height="14" viewBox="0 0 18 14" fill="none" xmlns="http://www.w3.org/2000/svg">
<path d="M15.6661 13.6624C16.0528 13.6624 16.3878 13.5348 16.6727 13.2827L11.799 8.40886C11.6821 8.49259 11.5688 8.57401 11.4617 8.65144C11.097 8.92015 10.801 9.12984 10.5737 9.28009C10.3464 9.43069 10.044 9.58419 9.66654 9.74091C9.28883 9.89782 8.93694 9.97602 8.61051 9.97602H8.5914C8.26494 9.97602 7.91305 9.89785 7.53537 9.74091C7.15769 9.58419 6.8553 9.43069 6.62825 9.28009C6.40098 9.12984 6.10512 8.92018 5.74022 8.65144C5.63853 8.57689 5.52575 8.49509 5.40382 8.40755L0.529248 13.2827C0.814048 13.5348 1.14932 13.6624 1.53596 13.6624H15.6661Z" fill="#0B4296"/>
<path d="M0.969643 5.33982C0.604953 5.09668 0.281552 4.81822 0 4.50457V11.9197L4.29561 7.62408C3.43624 7.02413 2.32899 6.26358 0.969643 5.33982Z" fill="#0B4296"/>
<path d="M16.2422 5.33982C14.9347 6.22479 13.8234 6.98665 12.9082 7.6258L17.2021 11.9199V4.50457C16.9268 4.81192 16.6069 5.09019 16.2422 5.33982Z" fill="#0B4296"/>
<path d="M15.6661 0.146484H1.53599C1.04304 0.146484 0.664043 0.312947 0.398545 0.64553C0.132827 0.978269 0.000187389 1.3944 0.000187389 1.89344C0.000187389 2.29654 0.176208 2.73331 0.528093 3.20388C0.879977 3.67425 1.25441 4.04372 1.65121 4.31246C1.86873 4.46615 2.52472 4.92219 3.61916 5.68043C4.20997 6.08984 4.72376 6.44669 5.16528 6.75463C5.54161 7.01685 5.86617 7.24393 6.13414 7.43238C6.1649 7.45396 6.21328 7.48857 6.27749 7.53448C6.34667 7.58417 6.43421 7.64722 6.54221 7.72521C6.75018 7.87562 6.92295 7.9972 7.06056 8.09008C7.19798 8.183 7.36447 8.28678 7.55979 8.40202C7.75496 8.51711 7.93903 8.60365 8.11181 8.66121C8.28461 8.71874 8.44458 8.7476 8.59174 8.7476H8.61085C8.75799 8.7476 8.91799 8.71874 9.09082 8.66121C9.26356 8.60365 9.44748 8.5173 9.6428 8.40202C9.83794 8.28678 10.0042 8.18278 10.1421 8.09008C10.2797 7.9972 10.4524 7.87565 10.6605 7.72521C10.7682 7.64722 10.8558 7.58414 10.9249 7.53463C10.9892 7.48854 11.0375 7.45415 11.0685 7.43238C11.2772 7.28712 11.6025 7.06098 12.0399 6.75729C12.8358 6.20433 14.0078 5.39048 15.561 4.31246C16.0281 3.98619 16.4184 3.59246 16.7321 3.13183C17.0452 2.67119 17.2021 2.18801 17.2021 1.68244C17.2021 1.26004 17.0499 0.898598 16.7462 0.597559C16.4421 0.296895 16.0821 0.146484 15.6661 0.146484Z" fill="#0B4296"/>
</svg>
