<svg width="215" height="48" viewBox="0 0 215 48" fill="none" xmlns="http://www.w3.org/2000/svg">
<rect width="215" height="48" fill="#F5F5F5"/>
<g id="&#208;&#156;&#208;&#176;&#209;&#130;&#208;&#181;&#209;&#128;&#208;&#184;&#208;&#176;&#208;&#187;&#209;&#139;" clip-path="url(#clip0_0_1)">
<rect width="1502" height="3350" transform="translate(-693 -2843)" fill="white"/>
<g id="Background">
<rect id="Rectangle 1" x="-901" y="-2843" width="1920" height="4051" fill="white"/>
<g id="Ellipse 234" filter="url(#filter0_f_0_1)">
<ellipse cx="494" cy="-247.5" rx="435" ry="434.5" fill="url(#paint0_linear_0_1)"/>
</g>
</g>
<rect id="Rectangle 937" opacity="0.2" x="-693" y="-115" width="1502" height="216" fill="url(#paint1_linear_0_1)"/>
<g id="logo-full">
<g id="&#208;&#161;&#208;&#187;&#208;&#190;&#208;&#185;_1">
<g id="413602344">
<path id="Vector" d="M57.5576 0.507935H58.3895V13.9803H57.5576V0.507935Z" fill="#B1C222"/>
<path id="Vector_2" d="M57.5576 15.226H58.3895V30.6092H57.5576V15.226Z" fill="#00586F"/>
<path id="Vector_3" d="M57.5576 31.3712H58.3895V47.1051H57.5576V31.3712Z" fill="#B1C222"/>
<g id="Group">
<path id="Vector_4" d="M67.6745 8.65913C67.6882 8.78937 67.6746 8.92099 67.6346 9.04581C67.5946 9.17064 67.5291 9.28601 67.4421 9.38476C67.2258 9.54861 66.9551 9.62628 66.6836 9.60244H65.4603V10.1588H66.0597V10.8844H64.1391V10.1467H64.6652V9.60244H63.4418C63.1704 9.62628 62.8997 9.54861 62.6834 9.38476C62.5964 9.28601 62.5309 9.17064 62.4909 9.04581C62.4509 8.92099 62.4373 8.78937 62.4509 8.65913V7.44976C62.4367 7.32121 62.4525 7.19115 62.497 7.06956C62.5415 6.94797 62.6137 6.83808 62.7078 6.74832C62.9304 6.61018 63.1921 6.54658 63.4541 6.56692H64.6774V6.04689H64.1514V5.35754H66.0597V6.04689H65.5337V6.53064H66.757C67.0218 6.50403 67.288 6.56347 67.5155 6.69995C67.606 6.79183 67.6749 6.90236 67.7172 7.02361C67.7595 7.14487 67.7742 7.27387 67.7602 7.40138L67.6745 8.65913ZM64.6652 8.88891V7.25626H63.6131C63.5752 7.25248 63.5369 7.25708 63.5011 7.26973C63.4652 7.28237 63.4326 7.30274 63.4057 7.32936C63.3787 7.35599 63.3581 7.3882 63.3453 7.42366C63.3326 7.45912 63.3279 7.49695 63.3317 7.53442V8.62285C63.3279 8.66031 63.3326 8.69814 63.3453 8.73361C63.3581 8.76907 63.3787 8.80128 63.4057 8.8279C63.4326 8.85452 63.4652 8.87489 63.5011 8.88754C63.5369 8.90018 63.5752 8.90478 63.6131 8.90101L64.6652 8.88891ZM66.8427 8.61076V7.52232C66.8446 7.48583 66.8386 7.44936 66.8249 7.41539C66.8113 7.38143 66.7904 7.35077 66.7637 7.32551C66.737 7.30025 66.7051 7.28099 66.6702 7.26904C66.6352 7.25709 66.5981 7.25273 66.5613 7.25626H65.4848V8.88891H66.5613C66.5992 8.89269 66.6375 8.88809 66.6733 8.87544C66.7092 8.8628 66.7418 8.84243 66.7687 8.81581C66.7957 8.78918 66.8163 8.75698 66.8291 8.72151C66.8418 8.68605 66.8465 8.64822 66.8427 8.61076Z" fill="#5C5653"/>
<path id="Vector_5" d="M71.8094 10.8844H68.1394V10.1467H68.641V6.04689H68.1394V5.35754H71.8094V6.94182H70.9531V6.04689H69.4728V7.64326H71.161V8.39307H69.4728V10.1467H70.9531V9.31219H71.7605L71.8094 10.8844Z" fill="#5C5653"/>
<path id="Vector_6" d="M76.6783 11.8035H75.8464V10.8844H72.7881V11.7793H71.9807V10.1467C72.0821 10.1616 72.1852 10.1616 72.2865 10.1467C72.5475 10.066 72.7066 9.66291 72.7636 8.93729L72.9716 6.04689H72.3599V5.35754H76.5804V6.04689H76.0789V10.1467H76.6783V11.8035ZM75.247 10.1467V6.04689H73.779L73.5588 8.94938C73.5488 9.1524 73.5243 9.35447 73.4854 9.55407C73.4542 9.75244 73.3649 9.93742 73.2285 10.0862L75.247 10.1467Z" fill="#5C5653"/>
<path id="Vector_7" d="M80.6174 10.8844H76.9474V10.1467H77.449V6.04689H76.9474V5.35754H80.6174V6.94182H79.81V6.04689H78.293V7.64326H79.9812V8.39307H78.293V10.1467H79.8222V9.31219H80.6296L80.6174 10.8844Z" fill="#5C5653"/>
<path id="Vector_8" d="M84.6298 7.46185C84.6464 7.59337 84.632 7.72689 84.5877 7.85197C84.5434 7.97705 84.4704 8.09029 84.3744 8.18283C84.2784 8.27536 84.1621 8.34468 84.0345 8.38535C83.9069 8.42602 83.7715 8.43694 83.6389 8.41726H82.3544V10.1467H82.9049V10.8844H81.0088V10.1467H81.5103V6.04689H81.0088V5.35754H83.59C84.2832 5.35754 84.6298 5.67601 84.6298 6.31295V7.46185ZM83.8224 7.38929V6.30085C83.8224 6.17186 83.7246 6.10736 83.5288 6.10736H82.3055V7.66745H83.4432C83.7123 7.66745 83.8224 7.58279 83.8224 7.40138V7.38929Z" fill="#5C5653"/>
<path id="Vector_9" d="M89.303 10.8844H87.468V10.1467H87.9329L87.6637 9.05826H86.2814L86 10.1467H86.4771V10.8844H84.6299V10.1467H85.1559L86.4771 5.3092H87.5781L88.8014 10.1467H89.303V10.8844ZM87.468 8.32054L86.9787 6.37345L86.4893 8.32054H87.468Z" fill="#5C5653"/>
<path id="Vector_10" d="M93.7559 10.8844H91.9209V10.1467H92.4225V6.04689H91.0768L90.771 9.82013C90.7748 10.1013 90.6985 10.3779 90.5508 10.6183C90.4414 10.7041 90.3159 10.7676 90.1815 10.805C90.0471 10.8424 89.9065 10.8529 89.7679 10.836H89.2296V10.1467H89.6578C89.7344 10.1627 89.8136 10.1627 89.8902 10.1467C89.8902 10.1467 89.9514 10.062 89.9636 9.96525L90.2327 6.04689H89.6088V5.35754H93.7559V6.04689H93.2544V10.1467H93.7559V10.8844Z" fill="#5C5653"/>
<path id="Vector_11" d="M97.7072 9.95316C97.7244 10.0843 97.7102 10.2175 97.6658 10.3422C97.6215 10.4669 97.5483 10.5797 97.4519 10.6714C97.3556 10.7631 97.2389 10.8312 97.1112 10.8703C96.9834 10.9094 96.8482 10.9183 96.7163 10.8965H94.0862V10.1467H94.5877V6.04689H94.0862V5.35754H95.9701V6.04689H95.4196V7.60698H96.7163C97.3769 7.60698 97.7072 7.96576 97.7072 8.68332V9.95316ZM96.8754 9.8806V8.61076C96.8754 8.48982 96.8754 8.41726 96.8142 8.39307C96.7295 8.37545 96.642 8.37545 96.5573 8.39307H95.4196V10.1467H96.5451C96.6334 10.1687 96.7259 10.1687 96.8142 10.1467C96.8142 10.1467 96.8631 10.0136 96.8631 9.89269L96.8754 9.8806Z" fill="#5C5653"/>
<path id="Vector_12" d="M102.478 10.8844H100.643V10.1467H101.145V8.40516H99.4811V10.1467H99.9827V10.8844H98.1477V10.1467H98.6493V6.04689H98.1477V5.35754H99.9827V6.04689H99.4811V7.64326H101.133V6.04689H100.631V5.35754H102.466V6.04689H101.964V10.1467H102.466L102.478 10.8844Z" fill="#5C5653"/>
<path id="Vector_13" d="M106.332 9.95316C106.349 10.0843 106.335 10.2175 106.29 10.3422C106.246 10.4669 106.173 10.5797 106.076 10.6714C105.98 10.7631 105.863 10.8312 105.736 10.8703C105.608 10.9094 105.473 10.9183 105.341 10.8965H102.76V10.1467H103.261V6.04689H102.76V5.35754H104.644V6.04689H104.093V7.60698H105.316C105.977 7.60698 106.307 7.96576 106.307 8.68332L106.332 9.95316ZM105.5 9.8806V8.61076C105.5 8.48982 105.5 8.41726 105.439 8.39307C105.354 8.37545 105.267 8.37545 105.182 8.39307H104.154V10.1467H105.206C105.295 10.1687 105.387 10.1687 105.475 10.1467C105.475 10.1467 105.5 10.0136 105.5 9.89269V9.8806ZM108.314 10.8965H106.613V10.1467H106.98V6.04689H106.43V5.35754H108.314V6.04689H107.812V10.1467H108.314V10.8965Z" fill="#5C5653"/>
<path id="Vector_14" d="M113.036 10.8844H111.201V10.1467H111.702V7.44976L109.977 10.1467H110.479V10.8844H108.644V10.1467H109.145V6.04689H108.644V5.35755H110.479V6.04689H109.977V8.80426L111.702 6.04689H111.201V5.35755H113.036V6.04689H112.546V10.1467H113.048L113.036 10.8844ZM111.873 4.11189C111.889 4.24786 111.874 4.38554 111.83 4.51513C111.785 4.64473 111.712 4.76306 111.616 4.86171C111.385 5.0119 111.109 5.08011 110.834 5.05521C110.572 5.06223 110.314 4.98592 110.1 4.83752C110.004 4.73887 109.931 4.62054 109.887 4.49094C109.842 4.36135 109.827 4.22367 109.843 4.08771H110.626C110.626 4.31749 110.711 4.43843 110.87 4.43843C111.029 4.43843 111.115 4.31749 111.115 4.08771L111.873 4.11189Z" fill="#5C5653"/>
</g>
<g id="Group_2">
<path id="Vector_15" d="M120.938 10.8844H119.103V10.1467H119.605V7.44976L117.892 10.1467H118.394V10.8844H116.559V10.1467H117.06V6.04689H116.559V5.35754H118.394V6.04689H117.892V8.80426L119.593 6.04689H119.091V5.35754H120.926V6.04689H120.425V10.1467H120.926L120.938 10.8844Z" fill="#5C5653"/>
<path id="Vector_16" d="M124.78 10.8844H122.614C122.318 10.9103 122.022 10.8286 121.782 10.6546C121.679 10.5503 121.6 10.4246 121.551 10.2866C121.503 10.1486 121.486 10.0017 121.501 9.85641V6.37342C121.501 5.69617 121.86 5.35754 122.578 5.35754H124.78V6.94182H123.997V6.04689H122.688C122.641 6.04095 122.594 6.04563 122.55 6.06055C122.506 6.07547 122.465 6.10023 122.432 6.13294C122.399 6.16565 122.374 6.20543 122.359 6.24922C122.344 6.29301 122.339 6.33963 122.345 6.38551V9.82013C122.345 10.0378 122.455 10.1467 122.688 10.1467H123.997V9.27591H124.78V10.8844Z" fill="#5C5653"/>
<path id="Vector_17" d="M128.633 10.8844H126.468C126.172 10.9103 125.876 10.8286 125.636 10.6546C125.533 10.5498 125.455 10.4241 125.406 10.2862C125.358 10.1484 125.34 10.0017 125.355 9.85641V6.37342C125.355 5.69617 125.713 5.35754 126.431 5.35754H128.633V6.94182H127.85V6.04689H126.541C126.495 6.04095 126.448 6.04563 126.403 6.06055C126.359 6.07547 126.319 6.10023 126.286 6.13294C126.253 6.16565 126.228 6.20543 126.213 6.24922C126.197 6.29301 126.193 6.33963 126.199 6.38551V9.82013C126.199 10.0378 126.309 10.1467 126.541 10.1467H127.85V9.27591H128.633V10.8844Z" fill="#5C5653"/>
<path id="Vector_18" d="M133.343 10.8844H131.508V10.1467H132.01V6.04689H130.664L130.358 9.82013C130.361 10.1013 130.285 10.3777 130.138 10.6183C130.028 10.7041 129.903 10.7676 129.769 10.805C129.634 10.8424 129.493 10.8529 129.355 10.836H128.817V10.1467H129.257C129.334 10.163 129.413 10.163 129.489 10.1467C129.489 10.1467 129.551 10.062 129.563 9.96525L129.856 6.04689H129.233V5.35754H133.343V6.04689H132.841V10.1467H133.343V10.8844Z" fill="#5C5653"/>
<path id="Vector_19" d="M137.392 10.8844H133.722V10.1467H134.224V6.04689H133.722V5.35754H137.392V6.94182H136.585V6.04689H135.056V7.64326H136.744V8.39307H135.056V10.1467H136.585V9.31219H137.392V10.8844Z" fill="#5C5653"/>
<path id="Vector_20" d="M142.261 11.8035H141.454V10.8844H138.371V11.7793H137.563V10.1467C137.665 10.1617 137.768 10.1617 137.869 10.1467C138.138 10.062 138.297 9.65082 138.346 8.93729L138.542 6.04689H137.93V5.35754H142.163V6.04689H141.662V10.1467H142.261V11.8035ZM140.83 10.1467V6.04689H139.362L139.141 8.94938C139.131 9.1524 139.107 9.35447 139.068 9.55407C139.037 9.75244 138.948 9.93742 138.811 10.0862L140.83 10.1467Z" fill="#5C5653"/>
<path id="Vector_21" d="M146.127 9.88058C146.144 10.024 146.13 10.1694 146.085 10.3071C146.041 10.4447 145.968 10.5714 145.87 10.6788C145.627 10.8557 145.326 10.9375 145.026 10.9085H143.802C143.506 10.9345 143.21 10.8528 142.97 10.6788C142.868 10.574 142.789 10.4482 142.741 10.3104C142.692 10.1725 142.674 10.0258 142.689 9.88058V6.38549C142.67 6.24279 142.685 6.09761 142.733 5.96164C142.78 5.82567 142.86 5.70272 142.965 5.6027C143.069 5.50268 143.197 5.42838 143.336 5.3858C143.475 5.34321 143.622 5.33353 143.766 5.35753H144.989C145.283 5.33802 145.574 5.4239 145.809 5.5994C145.903 5.70613 145.975 5.83095 146.019 5.96615C146.064 6.10135 146.079 6.24407 146.065 6.38549L146.127 9.88058ZM145.283 9.88058V6.44596C145.289 6.39892 145.284 6.35104 145.268 6.30619C145.253 6.26135 145.226 6.22079 145.192 6.18782C145.157 6.15485 145.115 6.13038 145.07 6.1164C145.024 6.10242 144.975 6.09931 144.928 6.10734H143.9C143.853 6.09931 143.804 6.10242 143.758 6.1164C143.713 6.13038 143.671 6.15485 143.636 6.18782C143.602 6.22079 143.575 6.26135 143.56 6.30619C143.544 6.35104 143.539 6.39892 143.545 6.44596V9.82011C143.545 10.0378 143.656 10.1466 143.9 10.1466H144.928C145.16 10.1466 145.283 10.0378 145.283 9.82011V9.88058Z" fill="#5C5653"/>
<path id="Vector_22" d="M150.396 10.0136C150.396 10.6022 150.054 10.8965 149.369 10.8965H146.653V10.1467H147.154V6.04689H146.653V5.35754H149.332C150.001 5.35754 150.335 5.66795 150.335 6.28876V7.25626C150.346 7.42433 150.303 7.59152 150.213 7.73457C150.123 7.87762 149.991 7.98942 149.833 8.05445C149.998 8.10812 150.141 8.21193 150.242 8.35099C150.343 8.49005 150.397 8.6572 150.396 8.82844V10.0136ZM149.515 7.25626V6.36132C149.515 6.19201 149.405 6.10736 149.161 6.10736H148.023V7.64326H149.038C149.167 7.6566 149.296 7.62678 149.405 7.5586C149.443 7.51809 149.472 7.47045 149.491 7.4185C149.51 7.36656 149.518 7.31138 149.515 7.25626ZM149.601 9.80804V8.84054C149.601 8.55029 149.417 8.40516 149.05 8.40516H148.023V10.1467H149.246C149.295 10.149 149.344 10.1406 149.389 10.122C149.434 10.1035 149.474 10.0752 149.507 10.0394C149.54 10.0035 149.564 9.9609 149.578 9.91462C149.592 9.86834 149.596 9.81954 149.589 9.77175L149.601 9.80804Z" fill="#5C5653"/>
<path id="Vector_23" d="M155.363 10.8844H153.516V10.1466H153.98L153.711 9.0582H152.341L152.06 10.1466H152.537V10.8844H150.69V10.1466H151.216L152.537 5.30914H153.638L154.861 10.1466H155.363V10.8844ZM153.516 8.30839L153.026 6.3613L152.537 8.30839H153.516Z" fill="#5C5653"/>
<path id="Vector_24" d="M159.155 6.95392H158.372V6.04689H157.663V10.1467H158.287V10.8844H156.207V10.1467H156.831V6.04689H156.109V6.89345H155.363V5.35754H159.216L159.155 6.95392Z" fill="#5C5653"/>
<path id="Vector_25" d="M163.009 10.8844H159.339V10.1467H159.84V6.04689H159.339V5.35754H163.009V6.94182H162.201V6.04689H160.672V7.64326H162.36V8.39307H160.672V10.1467H162.201V9.31219H163.009V10.8844Z" fill="#5C5653"/>
<path id="Vector_26" d="M167.731 10.8844H165.896V10.1467H166.373V6.04689H165.027L164.721 9.82013C164.725 10.1013 164.649 10.3779 164.501 10.6183C164.392 10.7041 164.266 10.7676 164.132 10.805C163.997 10.8424 163.857 10.8529 163.718 10.836H163.18V10.1467H163.608C163.685 10.163 163.764 10.163 163.841 10.1467C163.841 10.1467 163.902 10.062 163.914 9.96525L164.208 6.04689H163.584V5.35754H167.731V6.04689H167.229V10.1467H167.731V10.8844Z" fill="#5C5653"/>
<path id="Vector_27" d="M171.682 9.95316C171.699 10.0843 171.685 10.2175 171.641 10.3422C171.596 10.4669 171.523 10.5797 171.427 10.6714C171.33 10.7631 171.214 10.8312 171.086 10.8703C170.958 10.9094 170.823 10.9183 170.691 10.8965H168.061V10.1467H168.563V6.04689H168.061V5.35754H169.945V6.04689H169.394V7.60698H170.691C171.352 7.60698 171.682 7.96576 171.682 8.68332V9.95316ZM170.85 9.8806V8.61076C170.85 8.48982 170.85 8.41726 170.789 8.39307C170.704 8.37545 170.617 8.37545 170.532 8.39307H169.407V10.1467H170.532C170.62 10.1687 170.713 10.1687 170.801 10.1467C170.801 10.1467 170.85 10.0136 170.85 9.89269V9.8806Z" fill="#5C5653"/>
<path id="Vector_28" d="M175.597 10.8844H173.431C173.135 10.9103 172.839 10.8286 172.6 10.6546C172.496 10.5503 172.417 10.4246 172.368 10.2866C172.32 10.1486 172.303 10.0017 172.318 9.85641V6.37342C172.318 5.69617 172.677 5.35754 173.395 5.35754H175.597V6.94182H174.814V6.04689H173.505C173.458 6.04095 173.411 6.04563 173.367 6.06055C173.323 6.07547 173.282 6.10023 173.249 6.13294C173.216 6.16565 173.191 6.20543 173.176 6.24922C173.161 6.29301 173.156 6.33963 173.162 6.38551V9.82013C173.162 10.0378 173.272 10.1467 173.505 10.1467H174.814V9.27591H175.597V10.8844Z" fill="#5C5653"/>
<path id="Vector_29" d="M180.172 10.8844H179.621C179.403 10.904 179.186 10.8437 179.01 10.7151C178.933 10.6375 178.875 10.5441 178.839 10.4417C178.803 10.3393 178.79 10.2303 178.802 10.1225V8.63495C178.808 8.59701 178.805 8.55811 178.793 8.52149C178.781 8.48487 178.761 8.45158 178.733 8.42439C178.706 8.39719 178.672 8.37687 178.635 8.36512C178.598 8.35336 178.559 8.35051 178.52 8.3568H177.382V10.1467H177.909V10.8844H176.049V10.1467H176.551V6.0469H176.049V5.35755H177.786V6.0469H177.382V7.64327H177.48L178.863 5.34546H180V6.0469H179.291L178.361 7.5828C178.7 7.55395 179.04 7.60795 179.352 7.74002C179.477 7.84861 179.572 7.98613 179.63 8.14023C179.688 8.29433 179.706 8.46017 179.682 8.62286V9.83223C179.682 9.98542 179.731 10.0781 179.829 10.1104H180.208L180.172 10.8844Z" fill="#5C5653"/>
<path id="Vector_30" d="M184.723 10.8844H182.888V10.1467H183.389V7.44976L181.677 10.1467H182.178V10.8844H180.343V10.1467H180.845V6.04689H180.343V5.35754H182.178V6.04689H181.677V8.80426L183.426 6.04689H182.924V5.35754H184.723V6.04689H184.221V10.1467H184.723V10.8844Z" fill="#5C5653"/>
<path id="Vector_31" d="M189.481 10.8844H187.646V10.1466H188.148V7.44975L186.435 10.1466H186.937V10.8844H185.102V10.1466H185.603V6.04687H185.102V5.35753H186.937V6.04687H186.435V8.80424L188.148 6.04687H187.646V5.35753H189.481V6.04687H188.98V10.1466H189.481V10.8844ZM188.319 4.11188C188.335 4.24784 188.32 4.38552 188.275 4.51511C188.231 4.64471 188.158 4.76304 188.062 4.86169C187.831 5.01188 187.555 5.0801 187.279 5.05519C187.004 5.0801 186.728 5.01188 186.497 4.86169C186.401 4.76304 186.328 4.64471 186.283 4.51511C186.239 4.38552 186.224 4.24784 186.24 4.11188H187.023C187.023 4.34166 187.108 4.4626 187.267 4.4626C187.426 4.4626 187.512 4.34166 187.512 4.11188H188.319Z" fill="#5C5653"/>
</g>
<g id="Group_3">
<path id="Vector_32" d="M197.421 11.8035H196.613V10.8844H192.943V10.1467H193.445V6.04689H192.943V5.35754H194.778V6.04689H194.277V10.1467H195.928V6.04689H195.427V5.35754H197.262V6.04689H196.76V10.1467H197.36L197.421 11.8035Z" fill="#5C5653"/>
<path id="Vector_33" d="M201.372 10.8844H197.702V10.1467H198.179V6.04689H197.678V5.35754H201.348V6.94182H200.54V6.04689H199.036V7.64326H200.724V8.39307H199.036V10.1467H200.565V9.31219H201.372V10.8844Z" fill="#5C5653"/>
<path id="Vector_34" d="M206.094 10.8844H204.296V10.1467H204.798V8.40516H203.073V10.1467H203.574V10.8844H201.739V10.1467H202.241V6.04689H201.739V5.35754H203.574V6.04689H203.073V7.64326H204.724V6.04689H204.296V5.35754H206.131V6.04689H205.629V10.1467H206.131L206.094 10.8844Z" fill="#5C5653"/>
<path id="Vector_35" d="M210.107 6.95392H209.324V6.04689H208.614V10.1467H209.189V10.8844H207.11V10.1467H207.734V6.04689H207.012V6.89345H206.229V5.35754H210.082L210.107 6.95392Z" fill="#5C5653"/>
<path id="Vector_36" d="M213.899 7.46185C213.927 7.60175 213.919 7.74628 213.876 7.88241C213.833 8.01854 213.757 8.14197 213.654 8.24157C213.55 8.34118 213.424 8.41382 213.285 8.45293C213.146 8.49205 213 8.49641 212.859 8.46563H211.636V10.1467H212.186V10.8844H210.29V10.1467H210.792V6.04689H210.29V5.35754H212.859C213.553 5.35754 213.899 5.67601 213.899 6.31295V7.46185ZM213.092 7.38929V6.30085C213.092 6.16782 212.994 6.10736 212.798 6.10736H211.575V7.66745H212.712C212.982 7.66745 213.079 7.58279 213.079 7.40138L213.092 7.38929Z" fill="#5C5653"/>
</g>
<g id="Group_4">
<path id="Vector_37" d="M65.9619 39.4497C65.9785 39.5812 65.9641 39.7147 65.9197 39.8398C65.8754 39.9649 65.8024 40.0781 65.7064 40.1707C65.6105 40.2632 65.4941 40.3325 65.3665 40.3732C65.239 40.4139 65.1036 40.4248 64.971 40.4051H63.6865V42.1224H64.237V42.8722H62.3898V42.1224H62.8913V38.0952H62.3898V37.3454H64.971C65.6642 37.3454 66.0108 37.6639 66.0108 38.3008L65.9619 39.4497ZM65.1545 39.3771V38.2887C65.1545 38.1557 65.0566 38.0952 64.8609 38.0952H63.6376V39.6553H64.8364C65.0444 39.6553 65.1545 39.5586 65.1545 39.3771Z" fill="#5C5653"/>
</g>
<g id="Group_5">
<path id="Vector_38" d="M69.8032 41.8685C69.8202 42.012 69.8061 42.1574 69.7618 42.295C69.7175 42.4326 69.644 42.5593 69.5463 42.6667C69.3032 42.8436 69.0026 42.9254 68.7022 42.8965H67.4788C67.1825 42.9224 66.8868 42.8407 66.647 42.6667C66.5442 42.5619 66.4658 42.4362 66.4172 42.2983C66.3686 42.1604 66.351 42.0138 66.3656 41.8685V38.3613C66.3463 38.2186 66.3612 38.0734 66.4091 37.9375C66.457 37.8015 66.5365 37.6785 66.6412 37.5785C66.746 37.4785 66.873 37.4042 67.0121 37.3616C67.1513 37.319 67.2985 37.3094 67.4421 37.3334H68.6655C68.9592 37.3139 69.2502 37.3997 69.4851 37.5752C69.58 37.682 69.6517 37.8068 69.6959 37.942C69.7401 38.0772 69.7558 38.2199 69.742 38.3613L69.8032 41.8685ZM68.9591 41.8685V38.4339C68.9655 38.3868 68.9607 38.339 68.9449 38.2941C68.9292 38.2493 68.903 38.2087 68.8684 38.1757C68.8339 38.1428 68.792 38.1183 68.7461 38.1043C68.7002 38.0903 68.6516 38.0872 68.6043 38.0953H67.5767C67.5294 38.0872 67.4808 38.0903 67.4349 38.1043C67.389 38.1183 67.3471 38.1428 67.3126 38.1757C67.278 38.2087 67.2518 38.2493 67.2361 38.2941C67.2203 38.339 67.2155 38.3868 67.2219 38.4339V41.808C67.2219 42.0257 67.3443 42.1346 67.5767 42.1346H68.6043C68.8367 42.1346 68.9591 42.0257 68.9591 41.808V41.8685Z" fill="#5C5653"/>
<path id="Vector_39" d="M73.7912 42.8844H71.6259C71.3296 42.9103 71.0339 42.8287 70.7941 42.6546C70.6913 42.5498 70.6128 42.4241 70.5642 42.2862C70.5156 42.1484 70.4981 42.0017 70.5127 41.8564V38.3492C70.5127 37.672 70.8715 37.3334 71.5892 37.3334H73.7912V38.9297H73.0083V38.0832H71.6993C71.6529 38.0773 71.6057 38.0819 71.5615 38.0968C71.5172 38.1118 71.4769 38.1365 71.4438 38.1692C71.4107 38.202 71.3857 38.2417 71.3706 38.2855C71.3555 38.3293 71.3508 38.3759 71.3568 38.4218V41.796C71.3568 42.0136 71.4669 42.1225 71.6993 42.1225H73.0083V41.2517H73.7912V42.8844Z" fill="#5C5653"/>
<path id="Vector_40" d="M77.6936 42.8844H75.5161C75.2197 42.9103 74.924 42.8287 74.6842 42.6546C74.5814 42.5498 74.503 42.4241 74.4544 42.2862C74.4058 42.1484 74.3882 42.0017 74.4028 41.8564V38.3492C74.4028 37.672 74.7617 37.3334 75.4794 37.3334H77.6813V38.9297H76.8984V38.0832H75.6017C75.5553 38.0773 75.5081 38.0819 75.4638 38.0968C75.4195 38.1118 75.3793 38.1365 75.3462 38.1692C75.3131 38.202 75.2881 38.2417 75.273 38.2855C75.2579 38.3293 75.2532 38.3759 75.2592 38.4218V41.796C75.2592 42.0136 75.3693 42.1225 75.6017 42.1225H76.9106V41.2517H77.6936V42.8844Z" fill="#5C5653"/>
<path id="Vector_41" d="M82.5136 42.8844H80.6786V42.1346H81.1801V39.4377L79.5164 42.1346H80.018V42.8844H78.183V42.1346H78.6845V38.0953H78.183V37.3455H80.018V38.0953H79.5164V40.7922L81.2291 38.0953H80.7275V37.3455H82.5625V38.0953H81.9631V42.1346H82.4646L82.5136 42.8844Z" fill="#5C5653"/>
<path id="Vector_42" d="M87.2356 42.8844H85.4006V42.1346H85.9022V39.4377L84.1895 42.1346H84.6911V42.8844H82.8561V42.1346H83.3576V38.0952H82.8561V37.3454H84.6911V38.0952H84.1895V40.7921L85.9022 38.0952H85.4006V37.3454H87.2356V38.0952H86.734V42.1346H87.2356V42.8844ZM86.0734 36.1119C86.089 36.2478 86.074 36.3855 86.0296 36.5151C85.9852 36.6447 85.9124 36.763 85.8165 36.8617C85.5852 37.0119 85.3092 37.0801 85.0336 37.0552C84.758 37.0801 84.482 37.0119 84.2507 36.8617C84.1548 36.763 84.082 36.6447 84.0376 36.5151C83.9932 36.3855 83.9782 36.2478 83.9938 36.1119H84.7767C84.7767 36.3417 84.8623 36.4626 85.0214 36.4626C85.1804 36.4626 85.266 36.3538 85.266 36.1119H86.0734Z" fill="#5C5653"/>
<path id="Vector_43" d="M91.0279 42.8844H88.8626C88.5663 42.9103 88.2705 42.8287 88.0307 42.6546C87.928 42.5498 87.8495 42.4241 87.8009 42.2862C87.7523 42.1484 87.7347 42.0017 87.7494 41.8564V38.3492C87.7494 37.672 88.1082 37.3334 88.8259 37.3334H91.0279V38.9297H90.245V38.0832H88.9482C88.9018 38.0773 88.8547 38.0819 88.8104 38.0968C88.7661 38.1118 88.7258 38.1365 88.6928 38.1692C88.6597 38.202 88.6346 38.2417 88.6195 38.2855C88.6044 38.3293 88.5997 38.3759 88.6057 38.4218V41.796C88.6057 42.0136 88.7158 42.1225 88.9482 42.1225H90.2572V41.2517H91.0401L91.0279 42.8844Z" fill="#5C5653"/>
<path id="Vector_44" d="M95.6154 42.8844H95.0649C94.8469 42.904 94.6292 42.8437 94.4532 42.7151C94.3766 42.6375 94.3183 42.5441 94.2823 42.4417C94.2464 42.3393 94.2337 42.2303 94.2452 42.1225V40.6229C94.2516 40.5849 94.2487 40.546 94.2368 40.5094C94.2249 40.4728 94.2044 40.4395 94.1768 40.4123C94.1493 40.3851 94.1157 40.3648 94.0786 40.353C94.0416 40.3413 94.0022 40.3384 93.9639 40.3447H92.8017V42.1346H93.3277V42.8844H91.4683V42.1346H91.9698V38.0953H91.4683V37.3455H93.2054V38.0953H92.8017V39.6312H92.8996L94.2697 37.3334H95.4196V38.0832H94.7101L93.7804 39.6191C94.1187 39.5907 94.4589 39.6447 94.7713 39.7763C94.896 39.8849 94.9915 40.0224 95.0491 40.1765C95.1068 40.3306 95.1248 40.4965 95.1015 40.6591V41.8685C95.1015 42.0257 95.1016 42.1225 95.2484 42.1467H95.6276L95.6154 42.8844Z" fill="#5C5653"/>
<path id="Vector_45" d="M99.42 41.8685C99.437 42.012 99.4229 42.1574 99.3786 42.295C99.3343 42.4326 99.2608 42.5593 99.1631 42.6667C98.92 42.8436 98.6194 42.9254 98.319 42.8965H97.0957C96.7993 42.9224 96.5036 42.8407 96.2638 42.6667C96.161 42.5619 96.0826 42.4362 96.034 42.2983C95.9854 42.1604 95.9678 42.0138 95.9824 41.8685V38.3613C95.9631 38.2186 95.978 38.0734 96.0259 37.9375C96.0738 37.8015 96.1533 37.6785 96.2581 37.5785C96.3628 37.4785 96.4898 37.4042 96.629 37.3616C96.7681 37.319 96.9154 37.3094 97.059 37.3334H98.2823C98.576 37.3139 98.8671 37.3997 99.1019 37.5752C99.1968 37.682 99.2685 37.8068 99.3127 37.942C99.3569 38.0772 99.3726 38.2199 99.3588 38.3613L99.42 41.8685ZM98.5759 41.8685V38.4339C98.5823 38.3868 98.5775 38.339 98.5618 38.2941C98.546 38.2493 98.5198 38.2087 98.4853 38.1757C98.4507 38.1428 98.4088 38.1183 98.3629 38.1043C98.317 38.0903 98.2685 38.0872 98.2211 38.0953H97.1935C97.1462 38.0872 97.0976 38.0903 97.0517 38.1043C97.0058 38.1183 96.9639 38.1428 96.9294 38.1757C96.8948 38.2087 96.8686 38.2493 96.8529 38.2941C96.8372 38.339 96.8323 38.3868 96.8388 38.4339V41.808C96.8388 42.0257 96.9611 42.1346 97.1935 42.1346H98.2211C98.4658 42.1346 98.5759 42.0257 98.5759 41.808V41.8685Z" fill="#5C5653"/>
<path id="Vector_46" d="M104.338 42.8844H102.503V42.1346H103.004V39.4377L101.292 42.1346H101.793V42.8844H99.9459V42.1346H100.447V38.0952H99.9459V37.3454H101.781V38.0952H101.279V40.7921L102.992 38.0952H102.49V37.3454H104.325V38.0952H103.824V42.1346H104.325L104.338 42.8844ZM103.176 36.1119C103.191 36.2478 103.176 36.3855 103.132 36.5151C103.087 36.6447 103.015 36.763 102.919 36.8617C102.687 37.0119 102.411 37.0801 102.136 37.0552C101.86 37.0801 101.584 37.0119 101.353 36.8617C101.257 36.763 101.184 36.6447 101.14 36.5151C101.095 36.3855 101.08 36.2478 101.096 36.1119H101.879C101.879 36.3417 101.964 36.4626 102.123 36.4626C102.282 36.4626 102.368 36.3538 102.368 36.1119H103.176Z" fill="#5C5653"/>
</g>
<g id="Group_6">
<path id="Vector_47" d="M112.302 42.8844H110.454V42.1345H110.919L110.65 41.0461H109.28L108.999 42.1345H109.476V42.8844H107.653V42.1345H108.179L109.5 37.2971H110.601L111.825 42.1345H112.351L112.302 42.8844ZM110.454 40.3084L109.965 38.3613L109.476 40.3084H110.454Z" fill="#5C5653"/>
<path id="Vector_48" d="M116.571 42.8843H116.021C115.803 42.9039 115.585 42.8437 115.409 42.715C115.332 42.6374 115.274 42.5441 115.238 42.4417C115.202 42.3392 115.189 42.2302 115.201 42.1224V40.6228C115.207 40.5849 115.204 40.546 115.192 40.5093C115.181 40.4727 115.16 40.4394 115.133 40.4122C115.105 40.385 115.071 40.3647 115.034 40.353C114.997 40.3412 114.958 40.3384 114.92 40.3447H113.77V42.1345H114.296V42.8843H112.424V42.1345H112.926V38.0952H112.424V37.3454H114.161V38.0952H113.77V39.6311H113.867L115.25 37.3333H116.388V38.0831H115.678L114.748 39.619C115.087 39.5907 115.427 39.6447 115.739 39.7762C115.864 39.8848 115.959 40.0224 116.017 40.1765C116.075 40.3306 116.093 40.4964 116.069 40.6591V41.8685C116.069 42.0257 116.069 42.1224 116.216 42.1466H116.583L116.571 42.8843Z" fill="#5C5653"/>
<path id="Vector_49" d="M121.232 42.8844H119.385V42.1345H119.886L119.617 41.0461H118.21L117.929 42.1345H118.406V42.8844H116.559V42.1345H117.085L118.406 37.2971H119.507L120.73 42.1345H121.256L121.232 42.8844ZM119.385 40.3084L118.895 38.3613L118.406 40.3084H119.385Z" fill="#5C5653"/>
<path id="Vector_50" d="M125.819 43.7793H125.012V42.8843H121.929V43.7793H121.11V42.1345C121.211 42.1492 121.314 42.1492 121.415 42.1345C121.685 42.0499 121.844 41.6387 121.893 40.9251L122.088 38.1678H121.477V37.418H125.709V38.1678H125.208V42.2071H125.807L125.819 43.7793ZM124.388 42.1224V38.0952H122.92L122.7 40.9977C122.69 41.2007 122.665 41.4028 122.627 41.6024C122.595 41.8008 122.506 41.9858 122.37 42.1345L124.388 42.1224Z" fill="#5C5653"/>
<path id="Vector_51" d="M129.758 42.8844H126.089V42.1346H126.59V38.0953H126.089V37.3455H129.758V38.9418H128.951V38.0953H127.422V39.6312H129.11V40.381H127.422V42.1225H128.951V41.288H129.758V42.8844Z" fill="#5C5653"/>
<path id="Vector_52" d="M135.667 42.8844H133.796V42.1346H134.358V38.9297L133.233 41.5178H132.584L131.459 38.9297V42.1346H132.022V42.8844H130.15V42.1346H130.652V38.0953H130.15V37.3455H131.667L132.89 40.3447L134.199 37.3455H135.643V38.0953H135.141V42.1346H135.643L135.667 42.8844Z" fill="#5C5653"/>
<path id="Vector_53" d="M140.389 42.8844H138.554V42.1346H139.056V39.4377L137.343 42.1346H137.845V42.8844H136.01V42.1346H136.511V38.0953H136.01V37.3455H137.845V38.0953H137.343V40.7922L139.056 38.0953H138.554V37.3455H140.389V38.0953H139.888V42.1346H140.389V42.8844Z" fill="#5C5653"/>
<path id="Vector_54" d="M145.124 42.8844H143.289V42.1346H143.79V39.4377L142.077 42.1346H142.579V42.8844H140.683V42.1346H141.184V38.0953H140.683V37.3455H142.518V38.0953H142.016V40.7922L143.729 38.0953H143.227V37.3455H145.062V38.0953H144.561V42.1346H145.062L145.124 42.8844Z" fill="#5C5653"/>
</g>
<g id="Group_7">
<path id="Vector_55" d="M152.916 42.8844H151.081V42.1346H151.583V40.381H149.931V42.1225H150.47V42.8723H148.635V42.1225H149.136V38.0953H148.635V37.3455H150.47V38.0953H149.968V39.6312H151.619V38.0953H151.118V37.3455H152.916V38.0953H152.415V42.1346H152.916V42.8844Z" fill="#5C5653"/>
<path id="Vector_56" d="M157.736 42.8844H155.889V42.1345H156.354L156.085 41.0461H154.714L154.433 42.1345H154.91V42.8844H153.063V42.1345H153.589L154.91 37.2971H156.011L157.235 42.1345H157.761L157.736 42.8844ZM155.889 40.3084L155.4 38.3613L154.91 40.3084H155.889Z" fill="#5C5653"/>
<path id="Vector_57" d="M161.846 38.0953H161.369V42.062C161.369 42.6103 161.059 42.8844 160.44 42.8844H159.216C158.982 42.8994 158.75 42.8259 158.568 42.6788C158.484 42.5998 158.419 42.5037 158.377 42.3971C158.334 42.2906 158.316 42.1762 158.323 42.062V41.2638H159.131V41.8564C159.127 41.8939 159.131 41.9317 159.144 41.9672C159.157 42.0026 159.178 42.0348 159.205 42.0615C159.232 42.0881 159.264 42.1085 159.3 42.1211C159.336 42.1337 159.374 42.1384 159.412 42.1346H160.256C160.294 42.1384 160.332 42.1337 160.368 42.1211C160.404 42.1085 160.437 42.0881 160.464 42.0615C160.49 42.0348 160.511 42.0026 160.524 41.9672C160.537 41.9317 160.541 41.8939 160.537 41.8564V40.4535H159.204C158.968 40.4652 158.736 40.3873 158.556 40.2359C158.472 40.1569 158.407 40.0607 158.364 39.9542C158.322 39.8477 158.304 39.7333 158.311 39.6191V38.0953H157.809V37.3455H159.596V38.0953H159.094V39.4377C159.09 39.4751 159.095 39.513 159.108 39.5484C159.12 39.5839 159.141 39.6161 159.168 39.6427C159.195 39.6693 159.227 39.6897 159.263 39.7024C159.299 39.715 159.337 39.7196 159.375 39.7158H160.501V38.0953H159.999V37.3455H161.81L161.846 38.0953Z" fill="#5C5653"/>
<path id="Vector_58" d="M166.299 42.8843H165.749C165.531 42.9039 165.313 42.8437 165.137 42.715C165.061 42.6374 165.002 42.5441 164.966 42.4417C164.93 42.3392 164.918 42.2302 164.929 42.1224V40.6228C164.936 40.5849 164.933 40.546 164.921 40.5093C164.909 40.4727 164.888 40.4394 164.861 40.4122C164.833 40.385 164.8 40.3647 164.763 40.353C164.726 40.3412 164.686 40.3384 164.648 40.3447H163.486V42.1345H164.012V42.8843H162.152V42.1345H162.703V38.0952H162.201V37.3454H163.926V38.0952H163.522V39.6311H163.62L165.003 37.3333H166.14V38.0831H165.431L164.501 39.619C164.839 39.5907 165.18 39.6447 165.492 39.7762C165.617 39.8848 165.712 40.0224 165.77 40.1765C165.828 40.3306 165.846 40.4964 165.822 40.6591V41.8685C165.822 42.0257 165.822 42.1224 165.969 42.1466H166.336L166.299 42.8843Z" fill="#5C5653"/>
</g>
<g id="Group_8">
<path id="Vector_59" d="M66.6348 26.1587H66.0598C65.8419 26.1772 65.6246 26.117 65.4481 25.9894C65.3715 25.9118 65.3132 25.8185 65.2773 25.7161C65.2413 25.6136 65.2286 25.5046 65.2402 25.3968V23.8972C65.2465 23.8593 65.2436 23.8204 65.2317 23.7837C65.2199 23.7471 65.1993 23.7138 65.1718 23.6866C65.1443 23.6594 65.1106 23.6391 65.0736 23.6274C65.0365 23.6156 64.9972 23.6128 64.9588 23.619H63.7966V25.3968H64.3227V26.1587H62.4877V25.3968H62.9892V21.3575H62.4877V20.5593H64.2248V21.3091H63.8211V22.845H63.919L65.2891 20.5593H66.4268V21.3091H65.7173L64.8365 22.9055C65.1748 22.8767 65.5151 22.9307 65.8274 23.0627C65.9521 23.1713 66.0476 23.3088 66.1052 23.4629C66.1629 23.617 66.1809 23.7829 66.1577 23.9456V25.1549C66.1577 25.3081 66.2066 25.4008 66.3045 25.4331H66.6837L66.6348 26.1587Z" fill="#00586F"/>
</g>
<g id="Group_9">
<path id="Vector_60" d="M70.4271 25.1308C70.4441 25.2742 70.43 25.4196 70.3857 25.5572C70.3414 25.6949 70.2679 25.8216 70.1702 25.9289C69.9271 26.1059 69.6265 26.1877 69.3261 26.1587H68.1027C67.8064 26.1847 67.5107 26.103 67.2709 25.9289C67.1674 25.8246 67.0885 25.699 67.0399 25.561C66.9912 25.423 66.974 25.2761 66.9895 25.1308V21.6357C66.9702 21.493 66.9851 21.3478 67.033 21.2118C67.0809 21.0759 67.1604 20.9529 67.2651 20.8529C67.3699 20.7529 67.4969 20.6786 67.636 20.636C67.7752 20.5934 67.9224 20.5837 68.066 20.6077H69.2894C69.5831 20.5882 69.8741 20.6741 70.109 20.8496C70.2039 20.9563 70.2756 21.0811 70.3198 21.2163C70.364 21.3515 70.3797 21.4942 70.3659 21.6357L70.4271 25.1308ZM69.583 25.1308V21.6961C69.5894 21.6491 69.5846 21.6012 69.5688 21.5564C69.5531 21.5115 69.5269 21.471 69.4923 21.438C69.4578 21.405 69.4159 21.3806 69.37 21.3666C69.3241 21.3526 69.2755 21.3495 69.2282 21.3575H68.2006C68.1533 21.3495 68.1047 21.3526 68.0588 21.3666C68.0129 21.3806 67.971 21.405 67.9365 21.438C67.9019 21.471 67.8757 21.5115 67.86 21.5564C67.8442 21.6012 67.8394 21.6491 67.8458 21.6961V25.0703C67.8458 25.288 67.9682 25.3968 68.2006 25.3968H69.2282C69.4729 25.3968 69.583 25.3001 69.583 25.0824V25.1308Z" fill="#00586F"/>
<path id="Vector_61" d="M75.2714 26.1587H73.3997V25.3968H73.9013V21.3575H72.5556L72.2498 25.1308C72.2535 25.412 72.1772 25.6886 72.0296 25.9289C71.9206 26.0154 71.795 26.0792 71.6605 26.1166C71.526 26.154 71.3852 26.1642 71.2466 26.1466H70.7084V25.3968H71.1365C71.2132 25.4128 71.2923 25.4128 71.369 25.3968C71.369 25.3968 71.4301 25.3122 71.4424 25.2154L71.7237 21.3817H71.0998V20.5593H75.2469V21.3091H74.7454V25.3968H75.2469L75.2714 26.1587Z" fill="#00586F"/>
<path id="Vector_62" d="M79.2351 25.2154C79.2522 25.3465 79.238 25.4798 79.1937 25.6045C79.1494 25.7292 79.0761 25.8419 78.9798 25.9336C78.8834 26.0253 78.7667 26.0934 78.639 26.1325C78.5113 26.1716 78.376 26.1806 78.2442 26.1587H75.614V25.3968H76.1156V21.3575H75.614V20.5593H77.4979V21.3091H76.9474V22.8571H78.2931C78.9537 22.8571 79.284 23.2159 79.284 23.9335L79.2351 25.2154ZM78.4032 25.1429V23.873C78.4032 23.7521 78.4032 23.6795 78.342 23.6553C78.2573 23.6377 78.1698 23.6377 78.0851 23.6553H76.9474V25.3968H78.0729C78.1456 25.4112 78.2204 25.4112 78.2931 25.3968C78.2931 25.3968 78.391 25.2638 78.391 25.1429H78.4032Z" fill="#00586F"/>
<path id="Vector_63" d="M83.1864 26.1587H80.9721C80.6758 26.1847 80.3801 26.103 80.1403 25.929C80.0368 25.8246 79.9579 25.699 79.9093 25.561C79.8606 25.423 79.8434 25.2761 79.8589 25.1308V21.6236C79.8589 20.9463 80.2178 20.6077 80.9354 20.6077H83.1864V22.2041H82.4034V21.3575H81.0455C80.9991 21.3516 80.952 21.3563 80.9077 21.3712C80.8634 21.3861 80.8232 21.4109 80.7901 21.4436C80.757 21.4763 80.7319 21.5161 80.7168 21.5599C80.7017 21.6037 80.697 21.6503 80.703 21.6962V25.0703C80.703 25.288 80.8131 25.3968 81.0455 25.3968H82.3545V24.5261H83.1864V26.1587Z" fill="#00586F"/>
<path id="Vector_64" d="M87.7249 26.1587H87.1744C86.9565 26.1772 86.7392 26.117 86.5627 25.9894C86.4861 25.9118 86.4278 25.8185 86.3918 25.7161C86.3559 25.6136 86.3432 25.5046 86.3547 25.3968V23.8972C86.3611 23.8593 86.3582 23.8204 86.3463 23.7837C86.3344 23.7471 86.3139 23.7138 86.2864 23.6866C86.2589 23.6594 86.2252 23.6391 86.1882 23.6274C86.1511 23.6156 86.1118 23.6128 86.0734 23.619H84.9112V25.3968H85.4372V26.1587H83.5656V25.3968H84.0671V21.3575H83.5656V20.5593H85.3027V21.3091H84.899V22.845H84.9969L86.3792 20.5593H87.5169V21.3091H86.8563L85.9266 22.845C86.2649 22.8162 86.6053 22.8702 86.9175 23.0023C87.0422 23.1108 87.1377 23.2484 87.1953 23.4025C87.253 23.5566 87.271 23.7224 87.2478 23.8851V25.0945C87.2478 25.2477 87.2967 25.3404 87.3946 25.3726H87.7738L87.7249 26.1587Z" fill="#00586F"/>
<path id="Vector_65" d="M92.3124 26.1587H90.5264V25.3968H91.0279V22.6999L89.303 25.3968H89.8046V26.1587H87.9696V25.3968H88.4712V21.3575H87.9696V20.5593H89.8046V21.3091H89.303V24.006L91.0157 21.3091H90.5264V20.5593H92.3613V21.3091H91.7497V25.3968H92.2513L92.3124 26.1587Z" fill="#00586F"/>
<path id="Vector_66" d="M97.0344 26.1587H95.1995V25.3968H95.701V22.6999L93.9761 25.3968H94.4777V26.1587H92.6427V25.3968H93.1443V21.3575H92.6427V20.5593H94.4777V21.3092H93.9761V24.0061L95.6888 21.3092H95.1872V20.5593H97.0222V21.3092H96.5206V25.3968H97.0222L97.0344 26.1587ZM95.8723 19.35C95.8878 19.4859 95.8729 19.6236 95.8284 19.7532C95.784 19.8828 95.7113 20.0011 95.6154 20.0998C95.3841 20.25 95.1081 20.3182 94.8325 20.2933C94.5568 20.3182 94.2808 20.25 94.0495 20.0998C93.9536 20.0011 93.8809 19.8828 93.8365 19.7532C93.7921 19.6236 93.7771 19.4859 93.7926 19.35H94.5756C94.5756 19.5838 94.6571 19.7007 94.8202 19.7007C94.9833 19.7007 95.0649 19.5838 95.0649 19.35H95.8723Z" fill="#00586F"/>
</g>
<g id="Group_10">
<path id="Vector_67" d="M104.852 26.1587H103.017V25.3968H103.518V23.6553H101.854V25.3968H102.356V26.1587H100.521V25.3968H101.023V21.3575H100.521V20.5593H102.356V21.3091H101.854V22.845H103.506V21.3575H103.004V20.5593H104.839V21.3091H104.35V25.3968H104.852V26.1587Z" fill="#00586F"/>
<path id="Vector_68" d="M109.647 26.1587H107.8V25.3968H108.265L107.996 24.3084H106.625L106.344 25.3968H106.821V26.1587H104.962V25.3968H105.488L106.809 20.5593H107.91L109.133 25.3968H109.659L109.647 26.1587ZM107.8 23.5828L107.31 21.6357L106.821 23.5828H107.8Z" fill="#00586F"/>
<path id="Vector_69" d="M113.77 21.3575H113.293V25.3243C113.293 25.8685 112.987 26.1466 112.363 26.1466H111.139C110.903 26.1583 110.671 26.0804 110.491 25.9289C110.407 25.8499 110.342 25.7538 110.3 25.6473C110.258 25.5407 110.239 25.4264 110.246 25.3122V24.514H111.054V25.1066C111.048 25.1439 111.051 25.1819 111.063 25.218C111.074 25.254 111.093 25.2871 111.119 25.3149C111.144 25.3427 111.176 25.3645 111.212 25.3786C111.247 25.3928 111.285 25.399 111.323 25.3968H112.155C112.193 25.4006 112.231 25.396 112.267 25.3833C112.303 25.3707 112.335 25.3503 112.362 25.3237C112.389 25.2971 112.41 25.2649 112.423 25.2294C112.435 25.194 112.44 25.1561 112.436 25.1187V23.7279H111.103C110.867 23.7395 110.635 23.6617 110.454 23.5102C110.371 23.4312 110.305 23.3351 110.263 23.2285C110.221 23.122 110.203 23.0076 110.21 22.8934V21.3575H109.733V20.5593H111.519V21.3091H111.017V22.6515C111.003 22.6947 111 22.7409 111.01 22.7853C111.02 22.8298 111.041 22.8708 111.072 22.9042C111.104 22.9375 111.143 22.962 111.188 22.975C111.232 22.988 111.278 22.9891 111.323 22.9781H112.448V21.3575H111.935V20.5593H113.77V21.3575Z" fill="#00586F"/>
<path id="Vector_70" d="M117.966 26.1587H116.094V25.3968H116.657V23.7037H115.238C115.127 23.7179 115.015 23.7066 114.909 23.6708C114.804 23.6349 114.709 23.5754 114.63 23.4969C114.552 23.4184 114.493 23.3231 114.459 23.2184C114.424 23.1137 114.414 23.0024 114.43 22.8934V21.3575H113.978V20.5593H115.739V21.3091H115.238V22.6394C115.234 22.678 115.238 22.7171 115.252 22.7536C115.265 22.79 115.287 22.823 115.315 22.8498C115.344 22.8767 115.378 22.8968 115.415 22.9085C115.453 22.9203 115.492 22.9234 115.531 22.9176H116.657V21.3575H116.155V20.5593H117.966V21.3091H117.44V25.3968H117.941L117.966 26.1587Z" fill="#00586F"/>
<path id="Vector_71" d="M122.627 26.1587H120.792V25.3968H121.293V23.6553H119.642V25.3968H120.143V26.1587H118.308V25.3968H118.81V21.3575H118.308V20.5593H120.143V21.3091H119.642V22.845H121.293V21.3575H120.792V20.5593H122.627V21.3091H122.125V25.3968H122.627V26.1587Z" fill="#00586F"/>
<path id="Vector_72" d="M126.48 25.2154C126.497 25.3465 126.483 25.4798 126.439 25.6045C126.394 25.7292 126.321 25.8419 126.225 25.9336C126.128 26.0253 126.012 26.0934 125.884 26.1325C125.756 26.1716 125.621 26.1806 125.489 26.1587H122.957V25.3968H123.458V21.3575H122.957V20.5593H124.841V21.3091H124.29V22.8571H125.514C126.174 22.8571 126.504 23.2159 126.504 23.9335L126.48 25.2154ZM125.648 25.1429V23.873C125.648 23.7521 125.648 23.6795 125.587 23.6553C125.502 23.6377 125.415 23.6377 125.33 23.6553H124.302V25.3968H125.33C125.418 25.4188 125.511 25.4188 125.599 25.3968C125.599 25.3968 125.648 25.2638 125.648 25.1429ZM128.462 26.1587H126.761V25.3968H127.128V21.3575H126.578V20.5593H128.45V21.3091H127.948V25.3968H128.45L128.462 26.1587Z" fill="#00586F"/>
<path id="Vector_73" d="M133.184 26.1587H131.349V25.3968H131.85V22.6999L130.138 25.3968H130.639V26.1587H128.804V25.3968H129.306V21.3575H128.804V20.5593H130.639V21.3091H130.138V24.006L131.85 21.3091H131.349V20.5593H133.184V21.3091H132.682V25.3968H133.184V26.1587ZM132.022 19.3862C132.037 19.5222 132.022 19.6599 131.978 19.7895C131.933 19.9191 131.861 20.0374 131.765 20.136C131.533 20.2862 131.257 20.3544 130.982 20.3295C130.706 20.3544 130.43 20.2862 130.199 20.136C130.103 20.0374 130.03 19.9191 129.986 19.7895C129.941 19.6599 129.926 19.5222 129.942 19.3862H130.725C130.725 19.62 130.806 19.7369 130.97 19.7369C131.129 19.7369 131.214 19.616 131.214 19.3862H132.022Z" fill="#00586F"/>
</g>
<g id="Group_11">
<path id="Vector_74" d="M141.148 27.0537H140.34V26.1587H136.67V25.3968H137.172V21.3575H136.67V20.5593H138.505V21.3091H138.004V25.3968H139.655V21.3575H139.154V20.5593H140.989V21.3091H140.487V25.3968H141.087L141.148 27.0537Z" fill="#00586F"/>
<path id="Vector_75" d="M145.087 26.1587H141.417V25.3968H141.906V21.3575H141.405V20.5593H145.075V22.1557H144.267V21.3091H142.738V22.845H144.426V23.5949H142.738V25.3968H144.267V24.5623H145.075L145.087 26.1587Z" fill="#00586F"/>
<path id="Vector_76" d="M149.809 26.1587H148.023V25.3968H148.524V23.6553H146.799V25.3968H147.301V26.1587H145.466V25.3968H145.968V21.3575H145.466V20.5593H147.301V21.3091H146.799V22.845H148.451V21.3575H148.023V20.5593H149.858V21.3091H149.356V25.3968H149.858L149.809 26.1587Z" fill="#00586F"/>
<path id="Vector_77" d="M153.834 22.2162H153.051V21.3696H152.329V25.3968H152.916V26.1587H150.836V25.3968H151.46V21.3575H150.751V22.2041H149.968V20.5593H153.821L153.834 22.2162Z" fill="#00586F"/>
<path id="Vector_78" d="M157.614 22.7241C157.63 22.8556 157.616 22.9891 157.572 23.1142C157.527 23.2393 157.454 23.3525 157.358 23.4451C157.262 23.5376 157.146 23.6069 157.018 23.6476C156.891 23.6883 156.755 23.6992 156.623 23.6795H155.363V25.3968H155.913V26.1587H154.017V25.3968H154.519V21.3575H154.017V20.5593H156.586C157.271 20.5593 157.614 20.8778 157.614 21.5147V22.7241ZM156.806 22.6515V21.5631C156.806 21.4301 156.708 21.3696 156.513 21.3696H155.289V22.9781H156.427C156.696 22.9781 156.806 22.8329 156.806 22.6515Z" fill="#00586F"/>
</g>
<path id="Vector_79" d="M42.6209 21.805L46.9147 29.4482L38.4615 28.2147L42.6209 21.805Z" fill="#ADC921" stroke="#2F5B6C" stroke-width="0.4" stroke-miterlimit="10"/>
<path id="Vector_80" d="M45.5691 23.5465L54.267 24.3447L49.8018 30.9237L45.5691 23.5465Z" fill="#6DAAC2" stroke="#2F5B6C" stroke-width="0.4" stroke-miterlimit="10"/>
<path id="Vector_81" d="M48.0646 16.4838C47.9401 16.5524 47.8027 16.5954 47.6609 16.61C47.5191 16.6246 47.3758 16.6105 47.2396 16.5687C47.1035 16.5268 46.9774 16.4581 46.8689 16.3665C46.7605 16.275 46.672 16.1627 46.6088 16.0363C46.5363 15.9159 46.4894 15.782 46.4711 15.643C46.4528 15.504 46.4635 15.3627 46.5024 15.2279C46.5414 15.0931 46.6078 14.9676 46.6976 14.8592C46.7875 14.7507 46.8988 14.6615 47.0248 14.5972C47.1498 14.5264 47.2879 14.4809 47.4309 14.4632C47.5739 14.4456 47.7191 14.4562 47.8579 14.4945C47.9967 14.5327 48.1265 14.5978 48.2397 14.686C48.3529 14.7743 48.4472 14.8838 48.5172 15.0083C48.5857 15.1345 48.6284 15.2729 48.6427 15.4154C48.657 15.5579 48.6428 15.7019 48.6007 15.8389C48.5587 15.976 48.4897 16.1035 48.3977 16.2142C48.3057 16.3248 48.1925 16.4165 48.0646 16.4838Z" fill="#2F5B6C"/>
<path id="Vector_82" d="M37.385 26.4369C37.2605 26.5055 37.1232 26.5485 36.9814 26.5631C36.8395 26.5777 36.6962 26.5636 36.5601 26.5218C36.4239 26.4799 36.2978 26.4111 36.1894 26.3196C36.0809 26.2281 35.9924 26.1158 35.9293 25.9894C35.8253 25.7474 35.8155 25.476 35.9019 25.2274C35.9883 24.9787 36.1648 24.7705 36.3972 24.6428C36.6297 24.5152 36.9017 24.4771 37.1609 24.5359C37.4201 24.5947 37.6481 24.7463 37.8009 24.9614C37.8725 25.0851 37.9186 25.2216 37.9364 25.3629C37.9542 25.5043 37.9435 25.6478 37.9048 25.7851C37.8661 25.9223 37.8003 26.0506 37.711 26.1625C37.6218 26.2744 37.511 26.3676 37.385 26.4369Z" fill="#2F5B6C"/>
<path id="Vector_83" d="M45.8382 37.8776C45.6505 37.9807 45.4361 38.0267 45.2221 38.0097C45.008 37.9927 44.8038 37.9135 44.6352 37.7821C44.4665 37.6506 44.3409 37.4728 44.2743 37.271C44.2076 37.0692 44.2028 36.8524 44.2604 36.6479C44.3181 36.4434 44.4356 36.2603 44.5983 36.1216C44.7609 35.983 44.9614 35.895 45.1745 35.8687C45.3876 35.8425 45.6038 35.8791 45.7959 35.974C45.988 36.0689 46.1475 36.2179 46.2542 36.4021C46.3891 36.6539 46.4213 36.9474 46.3439 37.2219C46.2665 37.4964 46.0855 37.7311 45.8382 37.8776Z" fill="#2F5B6C"/>
<path id="Vector_84" d="M29.6536 24.8526L37.2749 25.808L37.3116 25.4694L29.6903 24.5503L29.6536 24.8526Z" fill="#2F5B6C"/>
<path id="Vector_85" d="M41.263 24.0302L36.7611 25.5419L36.8957 25.8443L41.2018 24.3688L41.263 24.0302Z" fill="#2F5B6C"/>
<path id="Vector_86" d="M54.6828 24.1391L48.3459 15.6614L48.0646 15.867L54.3402 24.1391H54.6828Z" fill="#2F5B6C"/>
<path id="Vector_87" d="M45.4589 23.5223L47.8566 15.867L47.5386 15.7702L45.1531 23.3167L45.4589 23.5223Z" fill="#2F5B6C"/>
<path id="Vector_88" d="M47.3673 15.4316L42.5841 21.3938L42.7554 21.6961L47.4774 15.7339L47.3673 15.4316Z" fill="#2F5B6C"/>
<path id="Vector_89" d="M38.5594 28.2873L36.7611 25.2275L36.4797 25.3969L38.2169 28.2873H38.5594Z" fill="#2F5B6C"/>
<path id="Vector_90" d="M45.3243 36.644L38.5593 28.2147L38.278 28.4203L44.9818 36.644H45.3243Z" fill="#2F5B6C"/>
<path id="Vector_91" d="M45.569 37.2608L47.404 29.7627L47.0615 29.6538L45.3243 37.0189L45.569 37.2608Z" fill="#2F5B6C"/>
<path id="Vector_92" d="M45.3977 23.3167L43.2814 23.2079L43.3915 23.5223L45.3977 23.6312C45.3977 23.6312 45.3977 23.5586 45.3977 23.5223C45.3977 23.486 45.361 23.3409 45.3977 23.3167Z" fill="#2F5B6C"/>
<path id="Vector_93" d="M45.3244 37.6357L49.8262 31.3348L49.6183 30.9962L45.1898 37.3333L45.3244 37.6357Z" fill="#2F5B6C"/>
<path id="Vector_94" d="M48.9576 29.2789L47.0859 29.5208V29.8231L48.9332 29.5813L48.9576 29.2789Z" fill="#2F5B6C"/>
<path id="Vector_95" d="M32.981 10.2797L41.8256 10.5215L36.4063 17.0763L32.981 10.2797Z" fill="#ADC921" stroke="#2F5B6C" stroke-width="0.4" stroke-miterlimit="10"/>
<path id="Vector_96" d="M35.9904 8.6712L41.1283 1.68103L44.5537 8.84052L35.9904 8.6712Z" fill="#6DAAC2" stroke="#2F5B6C" stroke-width="0.4" stroke-miterlimit="10"/>
<path id="Vector_97" d="M31.146 2.91458C31.1413 3.05913 31.1078 3.20134 31.0474 3.33308C30.987 3.46481 30.901 3.58349 30.7942 3.68233C30.6874 3.78117 30.5619 3.85823 30.425 3.90911C30.288 3.95998 30.1423 3.98368 29.9961 3.97883C29.7127 3.96327 29.4463 3.8401 29.2526 3.63504C29.0588 3.42999 28.9527 3.15888 28.9563 2.8783C28.9578 2.73592 28.988 2.59526 29.045 2.46447C29.1019 2.33369 29.1846 2.21537 29.2881 2.11639C29.3916 2.0174 29.514 1.93971 29.6482 1.88781C29.7823 1.83592 29.9255 1.81085 30.0695 1.81406C30.3563 1.82926 30.6267 1.95117 30.8264 2.1553C31.0261 2.35943 31.1403 2.63068 31.146 2.91458Z" fill="#2F5B6C"/>
<path id="Vector_98" d="M34.2533 17.0763C34.2551 17.2197 34.2273 17.3619 34.1715 17.4942C34.1157 17.6265 34.0332 17.7462 33.9289 17.8459C33.8247 17.9455 33.7009 18.0231 33.5653 18.0738C33.4296 18.1244 33.2849 18.1472 33.14 18.1406C32.9253 18.1358 32.7168 18.0683 32.5407 17.9466C32.3647 17.825 32.229 17.6545 32.1507 17.4568C32.0724 17.259 32.055 17.0428 32.1008 16.8353C32.1465 16.6279 32.2533 16.4384 32.4077 16.2908C32.5621 16.1431 32.7572 16.044 32.9685 16.0057C33.1798 15.9675 33.3978 15.9919 33.5951 16.0759C33.7924 16.1599 33.9602 16.2997 34.0773 16.4777C34.1944 16.6557 34.2556 16.864 34.2533 17.0763Z" fill="#2F5B6C"/>
<path id="Vector_99" d="M29.2376 23.0023L33.7394 16.8708L33.4581 16.6652L28.9929 22.7967L29.2376 23.0023Z" fill="#2F5B6C"/>
<path id="Vector_100" d="M34.2288 12.5775L33.2257 17.1731L33.5682 17.2456L34.4735 12.8193L34.2288 12.5775Z" fill="#2F5B6C"/>
<path id="Vector_101" d="M41.165 1.23358L30.5465 2.29783L30.5832 2.63645L40.9937 1.54802L41.165 1.23358Z" fill="#2F5B6C"/>
<path id="Vector_102" d="M35.9292 8.78003L30.4854 2.80573L30.2407 3.01132L35.5377 8.91306L35.9292 8.78003Z" fill="#2F5B6C"/>
<path id="Vector_103" d="M29.8248 3.01135L32.6018 10.1104H32.981L30.1674 3.04763L29.8248 3.01135Z" fill="#2F5B6C"/>
<path id="Vector_104" d="M36.5165 17.0401L32.9443 17.0038V17.3424H36.3452L36.5165 17.0401Z" fill="#2F5B6C"/>
<path id="Vector_105" d="M47.2695 15.5646L36.4797 17.0038V17.3424L47.086 15.867L47.2695 15.5646Z" fill="#2F5B6C"/>
<path id="Vector_106" d="M47.9178 15.6976L42.3395 10.3159L42.0581 10.5215L47.5753 15.7702L47.9178 15.6976Z" fill="#2F5B6C"/>
<path id="Vector_107" d="M35.6846 8.70746L34.5347 10.461C34.644 10.4681 34.7514 10.4926 34.8527 10.5336L35.966 8.85258C35.9489 8.86109 35.93 8.86552 35.9109 8.86552C35.8918 8.86552 35.8729 8.86109 35.8559 8.85258C35.7918 8.81292 35.734 8.764 35.6846 8.70746Z" fill="#2F5B6C"/>
<path id="Vector_108" d="M48.1014 16.1088L44.9452 9.04608H44.5537L47.7466 16.0483L48.1014 16.1088Z" fill="#2F5B6C"/>
<path id="Vector_109" d="M42.682 8.70746L41.9602 10.4248L42.2416 10.5941L42.9633 8.91305L42.682 8.70746Z" fill="#2F5B6C"/>
<path id="Vector_110" d="M37.3482 35.8942L32.9075 43.4649L29.6902 35.616L37.3482 35.8942Z" fill="#ADC921" stroke="#2F5B6C" stroke-width="0.4" stroke-miterlimit="10"/>
<path id="Vector_111" d="M37.3483 39.3167L41.0917 47.1051L33.0789 46.6576L37.3483 39.3167Z" fill="#6DAAC2" stroke="#2F5B6C" stroke-width="0.4" stroke-miterlimit="10"/>
<path id="Vector_112" d="M30.6934 33.802C30.5693 33.7309 30.4608 33.636 30.3743 33.5229C30.2877 33.4097 30.225 33.2806 30.1897 33.1432C30.1543 33.0057 30.1471 32.8627 30.1685 32.7224C30.1899 32.5822 30.2394 32.4476 30.3142 32.3266C30.3822 32.1999 30.4763 32.0888 30.5903 32.0003C30.7044 31.9117 30.8359 31.8477 30.9764 31.8124C31.117 31.7771 31.2635 31.7713 31.4064 31.7952C31.5494 31.8192 31.6857 31.8725 31.8066 31.9516C31.9295 32.0215 32.0373 32.1147 32.1238 32.2257C32.2103 32.3368 32.2738 32.4636 32.3107 32.5989C32.3477 32.7342 32.3572 32.8754 32.339 33.0144C32.3207 33.1534 32.2749 33.2874 32.2042 33.4089C32.1335 33.5304 32.0393 33.637 31.927 33.7225C31.8147 33.808 31.6864 33.8708 31.5495 33.9073C31.4126 33.9438 31.2698 33.9533 31.1292 33.9352C30.9886 33.9171 30.853 33.8719 30.7301 33.802H30.6934Z" fill="#2F5B6C"/>
<path id="Vector_113" d="M25.0049 46.8269C24.8808 46.7558 24.7723 46.6609 24.6858 46.5478C24.5993 46.4346 24.5365 46.3055 24.5012 46.1681C24.4658 46.0306 24.4587 45.8876 24.48 45.7474C24.5014 45.6071 24.551 45.4725 24.6257 45.3515C24.7739 45.107 25.0113 44.9281 25.289 44.8516C25.5667 44.7751 25.8635 44.8068 26.1182 44.9403C26.2423 45.0114 26.3508 45.1063 26.4373 45.2194C26.5238 45.3325 26.5866 45.4616 26.6219 45.5991C26.6573 45.7365 26.6644 45.8796 26.6431 46.0198C26.6217 46.1601 26.5722 46.2947 26.4974 46.4157C26.3492 46.6602 26.1118 46.8391 25.8341 46.9156C25.5564 46.9921 25.2596 46.9604 25.0049 46.8269Z" fill="#2F5B6C"/>
<path id="Vector_114" d="M28.2957 25.9894L31.1705 33.3908L31.4518 33.2577L28.577 25.8806L28.2957 25.9894Z" fill="#2F5B6C"/>
<path id="Vector_115" d="M34.7181 35.8942L31.1337 32.8103L30.938 33.0764L34.4 35.991L34.7181 35.8942Z" fill="#2F5B6C"/>
<path id="Vector_116" d="M41.471 47.3469L45.6303 37.6115L45.3244 37.5026L41.2997 47.0325L41.471 47.3469Z" fill="#2F5B6C"/>
<path id="Vector_117" d="M37.3115 39.1837L45.2142 37.3334L45.1164 37.0189L37.3482 38.8088L37.3115 39.1837Z" fill="#2F5B6C"/>
<path id="Vector_118" d="M45.3244 36.6802L37.6908 35.6523L37.5195 35.9546L45.1164 36.9584L45.3244 36.6802Z" fill="#2F5B6C"/>
<path id="Vector_119" d="M29.6536 35.7249L31.4152 32.6652L31.1094 32.4958L29.4701 35.4104L29.6536 35.7249Z" fill="#2F5B6C"/>
<path id="Vector_120" d="M25.8368 45.7626L29.7147 35.7248L29.4089 35.5797L25.6288 45.4603L25.8368 45.7626Z" fill="#2F5B6C"/>
<path id="Vector_121" d="M25.3842 46.2827L32.8709 44.0212L32.8098 43.6705L25.4943 45.932L25.3842 46.2827Z" fill="#2F5B6C"/>
<path id="Vector_122" d="M37.4829 39.0143L36.4798 37.164C36.4169 37.2612 36.3334 37.3437 36.2351 37.4059L37.2015 39.1837C37.2015 39.1837 37.2015 39.1111 37.2749 39.0748C37.3388 39.0395 37.4099 39.0189 37.4829 39.0143Z" fill="#2F5B6C"/>
<path id="Vector_123" d="M24.9315 46.2464L32.7364 46.8632L32.9076 46.5488L25.1762 45.9683L24.9315 46.2464Z" fill="#2F5B6C"/>
<path id="Vector_124" d="M34.082 45.0854L32.9443 43.6462L32.6262 43.7793L33.8128 45.2184L34.082 45.0854Z" fill="#2F5B6C"/>
<path id="Vector_125" d="M22.6806 38.3976L13.7992 38.1557L19.243 31.613L22.6806 38.3976Z" fill="#ADC921" stroke="#2F5B6C" stroke-width="0.4" stroke-miterlimit="10"/>
<path id="Vector_126" d="M19.6223 40.0423L14.4965 46.9962L11.059 39.8367L19.6223 40.0423Z" fill="#6DAAC2" stroke="#2F5B6C" stroke-width="0.4" stroke-miterlimit="10"/>
<path id="Vector_127" d="M21.3226 31.613C21.3289 31.4705 21.3637 31.3307 21.4251 31.2017C21.4864 31.0726 21.5731 30.9569 21.6801 30.8613C21.7871 30.7656 21.9123 30.692 22.0483 30.6445C22.1843 30.5971 22.3286 30.5769 22.4726 30.585C22.6321 30.5528 22.7969 30.5569 22.9547 30.5967C23.1124 30.6366 23.2589 30.7114 23.3832 30.8154C23.5075 30.9193 23.6063 31.0498 23.6722 31.197C23.7381 31.3442 23.7694 31.5042 23.7637 31.6651C23.758 31.826 23.7154 31.9834 23.6393 32.1257C23.5631 32.268 23.4553 32.3913 23.3239 32.4864C23.1926 32.5815 23.0411 32.6459 22.8809 32.6748C22.7207 32.7036 22.556 32.6962 22.3992 32.6531C22.1206 32.6444 21.8555 32.5327 21.6561 32.3402C21.4568 32.1476 21.3378 31.8881 21.3226 31.613Z" fill="#2F5B6C"/>
<path id="Vector_128" d="M7.07084 32.907C7.07822 32.6967 7.14849 32.4933 7.27279 32.3224C7.39709 32.1516 7.56983 32.021 7.76917 31.9472C7.96851 31.8734 8.18552 31.8597 8.39275 31.9078C8.59998 31.9559 8.78813 32.0636 8.93344 32.2174C9.07874 32.3712 9.17466 32.5641 9.20908 32.7718C9.2435 32.9795 9.21488 33.1926 9.12682 33.3841C9.03876 33.5757 8.89523 33.7372 8.71436 33.8482C8.5335 33.9591 8.32341 34.0146 8.11067 34.0075C7.96876 34.0045 7.82891 33.9734 7.69934 33.916C7.56978 33.8587 7.45311 33.7764 7.35622 33.6738C7.25933 33.5713 7.18417 33.4506 7.13516 33.3189C7.08615 33.1872 7.06428 33.0472 7.07084 32.907Z" fill="#2F5B6C"/>
<path id="Vector_129" d="M26.424 25.7112L21.9099 31.8428L22.1913 32.0242L26.6687 25.8806L26.424 25.7112Z" fill="#2F5B6C"/>
<path id="Vector_130" d="M21.4327 36.0998L22.4359 31.5405L22.0933 31.4679L21.1514 35.8579L21.4327 36.0998Z" fill="#2F5B6C"/>
<path id="Vector_131" d="M14.4965 47.48L25.066 46.4157L25.0416 46.0771L14.631 47.1776L14.4965 47.48Z" fill="#2F5B6C"/>
<path id="Vector_132" d="M19.7323 39.9335L25.1394 45.9078L25.3841 45.7022L20.0748 39.8005L19.7323 39.9335Z" fill="#2F5B6C"/>
<path id="Vector_133" d="M25.8 45.7022L23.0598 38.6032L22.6805 38.5669L25.4575 45.6659L25.8 45.7022Z" fill="#2F5B6C"/>
<path id="Vector_134" d="M19.1451 31.6372L22.7173 31.7098L22.6806 31.3712H19.3164L19.1451 31.6372Z" fill="#2F5B6C"/>
<path id="Vector_135" d="M8.39209 33.1126L19.1818 31.6735L19.1451 31.3712L8.56336 32.8103L8.39209 33.1126Z" fill="#2F5B6C"/>
<path id="Vector_136" d="M7.73145 32.9796L13.3098 38.3976L13.5545 38.1557L8.04951 32.907L7.73145 32.9796Z" fill="#2F5B6C"/>
<path id="Vector_137" d="M19.9404 40.0061L21.1637 38.2525C21.0424 38.2434 20.9251 38.2061 20.8212 38.1436L19.7446 39.8246H19.8547C19.867 39.9093 19.9037 39.9698 19.9404 40.0061Z" fill="#2F5B6C"/>
<path id="Vector_138" d="M7.52356 32.6047L10.7164 39.6311L11.0957 39.6674L7.86609 32.641L7.52356 32.6047Z" fill="#2F5B6C"/>
<path id="Vector_139" d="M12.9307 39.9698L13.7014 38.2887L13.3833 38.0831L12.6982 39.7642L12.9307 39.9698Z" fill="#2F5B6C"/>
<path id="Vector_140" d="M13.1387 26.7392L8.88147 19.0234L17.3347 20.3658L13.1387 26.7392Z" fill="#ADC921" stroke="#2F5B6C" stroke-width="0.4" stroke-miterlimit="10"/>
<path id="Vector_141" d="M10.1903 24.9614L1.52917 24.1028L6.03102 17.548L10.1903 24.9614Z" fill="#6DAAC2" stroke="#2F5B6C" stroke-width="0.4" stroke-miterlimit="10"/>
<path id="Vector_142" d="M18.4111 22.1436C18.5356 22.075 18.673 22.032 18.8148 22.0174C18.9566 22.0028 19.0999 22.0169 19.2361 22.0587C19.3722 22.1006 19.4984 22.1694 19.6068 22.2609C19.7152 22.3524 19.8037 22.4647 19.8669 22.5911C19.9394 22.7116 19.9863 22.8454 20.0046 22.9844C20.0229 23.1234 20.0123 23.2647 19.9733 23.3995C19.9343 23.5343 19.8679 23.6598 19.7781 23.7682C19.6883 23.8767 19.5769 23.9659 19.451 24.0303C19.3251 24.1085 19.1843 24.1604 19.0374 24.1828C18.8904 24.2052 18.7404 24.1976 18.5965 24.1605C18.4526 24.1234 18.318 24.0575 18.2008 23.9669C18.0837 23.8764 17.9866 23.7631 17.9154 23.634C17.8443 23.5049 17.8006 23.3628 17.7872 23.2164C17.7737 23.07 17.7907 22.9225 17.8372 22.7828C17.8836 22.6432 17.9585 22.5144 18.0572 22.4045C18.1559 22.2946 18.2764 22.2058 18.4111 22.1436Z" fill="#2F5B6C"/>
<path id="Vector_143" d="M26.1058 23.8246L18.5212 22.7604L18.4845 23.1111L26.0814 24.1391L26.1058 23.8246Z" fill="#2F5B6C"/>
<path id="Vector_144" d="M14.5332 24.4777L19.0351 23.0386L18.9005 22.7241L14.5944 24.1633L14.5332 24.4777Z" fill="#2F5B6C"/>
<path id="Vector_145" d="M1.11328 24.3084L7.38896 32.8466L7.65809 32.641L1.45581 24.3084H1.11328Z" fill="#2F5B6C"/>
<path id="Vector_146" d="M10.3372 24.9857L7.86609 32.641L8.18415 32.7015L10.643 25.2033L10.3372 24.9857Z" fill="#2F5B6C"/>
<path id="Vector_147" d="M8.35543 33.0763L13.1753 27.1504L13.0041 26.8118L8.25757 32.7377L8.35543 33.0763Z" fill="#2F5B6C"/>
<path id="Vector_148" d="M17.2734 20.2933L19.035 23.3409L19.3164 23.1716L17.616 20.2933H17.2734Z" fill="#2F5B6C"/>
<path id="Vector_149" d="M10.5452 11.864L17.2735 20.3296L17.5426 20.1602L10.8877 11.864H10.5452Z" fill="#2F5B6C"/>
<path id="Vector_150" d="M10.3005 11.2472L8.42883 18.7211L8.77137 18.8179L10.5452 11.4891L10.3005 11.2472Z" fill="#2F5B6C"/>
<path id="Vector_151" d="M10.3739 25.1913L12.4903 25.3001C12.445 25.2011 12.4201 25.0942 12.4169 24.9857L10.3984 24.8889V24.9978C10.3984 25.0945 10.3984 25.1671 10.3739 25.1913Z" fill="#2F5B6C"/>
<path id="Vector_152" d="M10.5818 10.8723L6.03101 17.1368L6.20227 17.4875L10.7164 11.1746L10.5818 10.8723Z" fill="#2F5B6C"/>
<path id="Vector_153" d="M6.86292 19.1927L8.71014 18.9871L8.73461 18.6485L6.89961 18.8904L6.86292 19.1927Z" fill="#2F5B6C"/>
<path id="Vector_154" d="M18.3132 12.9282L22.7784 5.3454L25.9713 13.1942L18.3132 12.9282Z" fill="#ADC921" stroke="#2F5B6C" stroke-width="0.4" stroke-miterlimit="10"/>
<path id="Vector_155" d="M18.3378 9.49358L14.6311 1.51172L22.5705 2.16478L18.3378 9.49358Z" fill="#6DAAC2" stroke="#2F5B6C" stroke-width="0.4" stroke-miterlimit="10"/>
<path id="Vector_156" d="M10.8877 11.0053C11.0728 11.1142 11.221 11.2748 11.3137 11.4669C11.4065 11.6591 11.4395 11.874 11.4086 12.0847C11.3777 12.2954 11.2843 12.4923 11.1403 12.6505C10.9962 12.8087 10.8079 12.9211 10.5992 12.9735C10.3905 13.026 10.1708 13.016 9.96779 12.945C9.7648 12.874 9.58767 12.745 9.45881 12.5745C9.32994 12.404 9.25512 12.1995 9.24381 11.9869C9.2325 11.7743 9.28521 11.5632 9.39526 11.3802C9.46717 11.2575 9.56317 11.1502 9.67761 11.0647C9.79205 10.9792 9.92263 10.9171 10.0617 10.8822C10.2007 10.8473 10.3454 10.8402 10.4873 10.8613C10.6291 10.8825 10.7653 10.9314 10.8877 11.0053Z" fill="#2F5B6C"/>
<path id="Vector_157" d="M24.9682 15.0204C25.0941 15.0896 25.2049 15.1829 25.2942 15.2948C25.3834 15.4067 25.4493 15.535 25.488 15.6722C25.5266 15.8095 25.5374 15.9529 25.5196 16.0943C25.5017 16.2357 25.4557 16.3722 25.3841 16.4959C25.2365 16.7412 24.9963 16.9186 24.7164 16.9889C24.4365 17.0592 24.1398 17.0167 23.8916 16.8708C23.6434 16.7248 23.464 16.4874 23.3929 16.2107C23.3218 15.934 23.3648 15.6407 23.5124 15.3953C23.5807 15.2738 23.6733 15.1673 23.7844 15.0821C23.8956 14.997 24.0231 14.935 24.1591 14.9C24.2952 14.8649 24.4371 14.8575 24.5761 14.8782C24.7152 14.8989 24.8486 14.9473 24.9682 15.0204Z" fill="#2F5B6C"/>
<path id="Vector_158" d="M27.3904 22.4218L24.5155 15.4316L24.2097 15.5646L27.1212 22.5185L27.3904 22.4218Z" fill="#2F5B6C"/>
<path id="Vector_159" d="M20.9435 12.9282L24.5523 15.9758L24.7603 15.7339L21.2982 12.8193L20.9435 12.9282Z" fill="#2F5B6C"/>
<path id="Vector_160" d="M14.2885 1.23358L10.0558 11.2109L10.3739 11.3439L14.4965 1.57221L14.2885 1.23358Z" fill="#2F5B6C"/>
<path id="Vector_161" d="M18.3745 9.62659L10.4718 11.489L10.5452 11.7914L18.3133 10.0136L18.3745 9.62659Z" fill="#2F5B6C"/>
<path id="Vector_162" d="M10.3372 12.1421L17.9585 13.158L18.1298 12.8556L10.5451 11.864L10.3372 12.1421Z" fill="#2F5B6C"/>
<path id="Vector_163" d="M26.008 13.0975L24.2709 16.1452L24.5522 16.3145L26.1793 13.3999L26.008 13.0975Z" fill="#2F5B6C"/>
<path id="Vector_164" d="M29.8615 3.04761L25.9346 13.0975L26.2526 13.2305L30.0327 3.36204L29.8615 3.04761Z" fill="#2F5B6C"/>
<path id="Vector_165" d="M30.2775 2.53967L22.8152 4.8012L22.8886 5.13982L30.1674 2.8783L30.2775 2.53967Z" fill="#2F5B6C"/>
<path id="Vector_166" d="M18.2031 9.80802L19.1696 11.6584C19.242 11.5692 19.3241 11.4881 19.4142 11.4165L18.4478 9.67499C18.4478 9.67499 18.4478 9.74755 18.3744 9.78383C18.3188 9.80021 18.2611 9.80836 18.2031 9.80802Z" fill="#2F5B6C"/>
<path id="Vector_167" d="M30.7178 2.57595L22.9252 1.95917L22.7417 2.26151L30.5221 2.84201L30.7178 2.57595Z" fill="#2F5B6C"/>
<path id="Vector_168" d="M21.5674 3.73697L22.7173 5.17613L23.0231 5.0431L21.8854 3.60394L21.5674 3.73697Z" fill="#2F5B6C"/>
<path id="Vector_169" d="M27.9898 22.0468C27.6955 22.0339 27.4016 22.0794 27.1255 22.1807C26.8494 22.282 26.5966 22.437 26.3822 22.6366C26.1677 22.8362 25.996 23.0763 25.8771 23.3427C25.7582 23.609 25.6945 23.8963 25.6899 24.1874C25.6827 24.4733 25.7325 24.7578 25.8364 25.0246C25.9404 25.2915 26.0966 25.5355 26.2959 25.7427C26.4953 25.9498 26.734 26.1162 26.9984 26.2322C27.2628 26.3482 27.5477 26.4116 27.8368 26.4187C28.126 26.4259 28.4138 26.3766 28.6837 26.2738C28.9536 26.1711 29.2004 26.0167 29.41 25.8196C29.6196 25.6225 29.7879 25.3866 29.9052 25.1252C30.0225 24.8638 30.0867 24.5821 30.0939 24.2963C30.1138 23.7229 29.9039 23.1649 29.5099 22.7437C29.1159 22.3224 28.5696 22.072 27.9898 22.0468ZM27.8797 25.7838C27.4619 25.7653 27.0672 25.5898 26.7761 25.293C26.485 24.9963 26.3196 24.6008 26.3138 24.1874C26.3211 23.8771 26.4211 23.5759 26.6013 23.3217C26.7815 23.0674 27.0338 22.8717 27.3263 22.759C27.6189 22.6463 27.9387 22.6217 28.2453 22.6884C28.552 22.7551 28.8318 22.91 29.0496 23.1337C29.2673 23.3573 29.4132 23.6397 29.4688 23.9452C29.5245 24.2507 29.4874 24.5656 29.3623 24.8503C29.2372 25.135 29.0296 25.3768 28.7658 25.545C28.5019 25.7133 28.1936 25.8006 27.8797 25.7959V25.7838Z" fill="#ADC921"/>
<path id="Vector_170" d="M36.9324 24.8163L36.5899 17.0764L36.2351 17.1005L36.6143 24.647L36.9324 24.8163Z" fill="#2F5B6C"/>
<path id="Vector_171" d="M31.9411 32.5321L38.4859 28.2872L38.3147 28.0091L31.9044 32.1935L31.9411 32.5321Z" fill="#2F5B6C"/>
<path id="Vector_172" d="M22.6072 32.0847L29.5435 35.7249L29.6903 35.4104L22.9252 31.9153L22.6072 32.0847Z" fill="#2F5B6C"/>
<path id="Vector_173" d="M19.4142 31.613L18.9983 23.8609L18.6558 23.8972L19.1084 31.4316L19.4142 31.613Z" fill="#2F5B6C"/>
<path id="Vector_174" d="M17.3713 20.5352L24.0262 16.4233L23.855 16.1451L17.3713 20.1603V20.5352Z" fill="#2F5B6C"/>
<path id="Vector_175" d="M25.6899 13.1338L32.6017 16.8345L32.773 16.52L26.008 12.9524L25.6899 13.1338Z" fill="#2F5B6C"/>
</g>
</g>
</g>
</g>
<defs>
<filter id="filter0_f_0_1" x="-52" y="-793" width="1092" height="1091" filterUnits="userSpaceOnUse" color-interpolation-filters="sRGB">
<feFlood flood-opacity="0" result="BackgroundImageFix"/>
<feBlend mode="normal" in="SourceGraphic" in2="BackgroundImageFix" result="shape"/>
<feGaussianBlur stdDeviation="55.5" result="effect1_foregroundBlur_0_1"/>
</filter>
<linearGradient id="paint0_linear_0_1" x1="375.802" y1="-895.636" x2="493.732" y2="187.029" gradientUnits="userSpaceOnUse">
<stop stop-color="white"/>
<stop offset="1" stop-color="white" stop-opacity="0.97"/>
</linearGradient>
<linearGradient id="paint1_linear_0_1" x1="58.0001" y1="71.3871" x2="58.0001" y2="-232.145" gradientUnits="userSpaceOnUse">
<stop stop-color="#D9D9D9"/>
<stop offset="1" stop-color="#D9D9D9" stop-opacity="0"/>
</linearGradient>
<clipPath id="clip0_0_1">
<rect width="1502" height="3350" fill="white" transform="translate(-693 -2843)"/>
</clipPath>
</defs>
</svg>
