<svg width="192" height="56" viewBox="0 0 192 56" fill="none" xmlns="http://www.w3.org/2000/svg">
<path fill-rule="evenodd" clip-rule="evenodd" d="M18.8228 6.51064C18.8395 6.551 18.8562 6.59067 18.8729 6.62546C19.1736 7.2615 19.7233 7.87665 19.7233 7.87665L19.7337 7.86969L19.7351 7.87109C19.7351 7.87109 19.8138 7.81124 19.9745 7.72078C20.0288 7.69016 20.0921 7.65675 20.1652 7.61987C20.3392 7.53358 20.5646 7.43407 20.8451 7.33526C21.5075 7.10214 22.3899 7.02907 22.3899 7.02907C22.3899 7.02907 21.5681 5.89131 21.4136 4.24834C21.3259 3.31725 21.3621 2.82875 21.3718 2.80022C21.3162 2.79674 21.2612 2.79187 21.2048 2.79187C20.6061 2.7911 20.0251 2.99515 19.5584 3.37014L19.525 3.39658C19.2281 3.64121 18.989 3.94852 18.8249 4.29646C18.6608 4.64441 18.5757 5.02436 18.5758 5.40907C18.5758 5.63453 18.6078 5.85234 18.6614 6.0611C18.7045 6.19402 18.763 6.3652 18.8228 6.51064ZM23.4254 6.7368C23.5924 6.91634 23.7608 6.99637 23.9125 6.99637H23.9515C24.1032 6.99637 24.2716 6.91634 24.4386 6.7368C24.8074 6.3819 25.1957 5.78136 25.458 5.05486C25.8359 4.002 25.726 3.11197 25.2841 2.69027C25.0656 2.49403 24.797 2.3632 24.5005 2.32006C24.4034 2.30926 24.3059 2.30299 24.2082 2.30127C24.4613 2.2389 24.6863 2.09374 24.8474 1.88886C25.0086 1.68398 25.0966 1.43112 25.0976 1.17047C25.0976 0.523301 24.5715 0 23.9215 0C23.2723 0 22.7462 0.523997 22.7462 1.17047C22.7471 1.43093 22.8349 1.68365 22.9958 1.88851C23.1567 2.09336 23.3813 2.23864 23.6341 2.30127C23.5353 2.30475 23.4323 2.31032 23.3635 2.32006C23.0713 2.3635 22.7987 2.49257 22.5799 2.69096C22.1387 3.11267 22.0281 4.002 22.4059 5.05486C22.6683 5.78136 23.0566 6.3819 23.4254 6.7368ZM34.645 14.4819C34.9143 14.9064 34.9011 15.4381 34.9011 15.4381C34.9053 15.4395 35.4439 15.532 35.7111 15.7971C35.7111 15.7971 35.7529 15.7561 35.7584 15.7484C36.1231 15.3024 36.7946 14.571 36.9881 13.5091C37.1453 12.6441 37.0437 11.4326 36.86 11.0457C36.8531 11.0318 36.8475 11.0109 36.8405 10.9984C37.0145 10.7973 37.3026 10.3317 38.0987 10.3317C38.391 10.3317 38.6505 10.411 38.8621 10.5112C39.2114 10.6783 39.4257 10.8989 39.4257 10.8989C39.4257 10.8989 38.7403 12.1153 38.3805 12.6942C38.1968 12.9907 38.0632 13.221 37.6937 14.0317C37.3861 14.7074 37.3033 15.1555 37.3562 15.6392C37.4014 16.0463 37.6178 16.8229 37.7111 17.6036C37.8906 19.1005 37.5942 19.8312 37.5942 19.8312L37.6123 19.8193L37.6053 19.8367C37.6053 19.8367 39.3881 18.6656 40.5148 16.0484C40.5106 16.0484 40.5071 16.0463 40.5023 16.0456L40.5036 16.0428C40.3213 16.0119 40.1444 15.9549 39.9783 15.8737C39.8302 15.7962 39.6897 15.7052 39.5586 15.6016C38.5614 14.8431 38.7862 14.0359 39.1105 13.6552C39.203 13.5474 39.2984 13.4423 39.3979 13.3372C39.6484 13.0707 39.9198 12.8021 40.2037 12.4722C40.5642 12.0547 40.6943 11.6372 40.7402 11.2684C40.7562 11.1417 40.7736 11.0144 40.7736 10.8828C40.7736 9.78266 40.2378 9.0332 39.5545 8.65743C39.3317 8.53329 39.0896 8.44766 38.8384 8.40413C38.0743 8.27261 37.1391 8.55931 36.455 9.02276C36.1948 9.19882 35.7654 9.5913 35.645 9.88635C35.4954 10.6289 35.7181 10.8167 35.9442 11.5843C35.9484 11.5989 35.9582 11.6107 35.963 11.626C36.4314 13.3323 36.1906 14.1577 34.645 14.4819ZM26.9939 12.9587C27.1957 13.3838 27.5631 13.7958 27.5631 13.7958L27.5673 13.793L27.6208 13.848C27.6208 13.848 27.8226 13.6719 28.3529 13.4666C28.7913 13.2975 29.3515 13.2377 29.3515 13.2377C29.3515 13.2377 28.8017 12.4764 28.6974 11.3762C28.6382 10.7395 28.6647 10.409 28.6709 10.4041L28.6584 10.4034L28.6591 10.3985C28.3737 10.3566 28.0823 10.403 27.824 10.5314C27.6512 10.6252 27.4893 10.7376 27.3411 10.8668C27.1045 11.077 26.9451 11.3122 26.8839 11.5648C26.7865 11.8334 26.7517 12.1306 26.8094 12.4374C26.8143 12.4639 26.9103 12.7812 26.9939 12.9587ZM29.4343 11.8313C29.6723 12.491 30.0655 13.0442 30.3696 13.1605C30.4117 13.1794 30.457 13.1901 30.5032 13.1918C30.8177 13.1549 31.2338 12.5237 31.4356 11.7513C31.6235 11.0283 31.4962 10.4236 31.1782 10.1675C31.0276 10.0572 30.8554 9.97994 30.673 9.94063C30.6583 9.93715 30.6444 9.93158 30.6298 9.92671C30.8901 9.80006 31.0661 9.51475 31.0515 9.18838C31.0471 9.03873 30.9997 8.89351 30.9149 8.77011C30.8301 8.6467 30.7116 8.55032 30.5735 8.49251C30.4803 8.45297 30.3795 8.43467 30.2784 8.43892C29.8769 8.45702 29.5665 8.81887 29.586 9.24823C29.6013 9.5746 29.8031 9.8439 30.0745 9.94689C29.8797 9.99833 29.7 10.0957 29.5505 10.2308C29.2548 10.5133 29.181 11.1271 29.4343 11.8313ZM31.5818 13.1786C31.5818 13.1786 32.5191 13.1855 33.4551 13.5502C33.4718 13.5564 33.4829 13.5655 33.4989 13.5724C33.6242 13.4138 33.8058 13.1625 33.9276 12.9051C34.0111 12.7283 34.1071 12.411 34.112 12.3846C34.1664 12.0921 34.1407 11.7903 34.0375 11.5112C33.9763 11.2593 33.8176 11.0241 33.5803 10.8133C33.4323 10.6844 33.2706 10.5722 33.0981 10.4785L33.0911 10.4758L33.0863 10.473C32.8279 10.3447 32.5366 10.2983 32.2512 10.3401C32.2568 10.3449 32.2839 10.6748 32.2234 11.3122C32.1204 12.4117 31.5706 13.173 31.5706 13.173L31.5846 13.1744L31.5818 13.1786ZM25.4747 7.02907C25.4747 7.02907 26.3564 7.10214 27.0196 7.33526C27.2993 7.43407 27.5248 7.53358 27.6988 7.62057C27.7718 7.65675 27.8352 7.69016 27.8894 7.72078C28.0495 7.81124 28.1295 7.87109 28.1295 7.87109L28.1309 7.869L28.1407 7.87596C28.1407 7.87596 28.6904 7.2615 28.991 6.62546C29.0077 6.59067 29.0244 6.551 29.0411 6.51064C29.1005 6.36286 29.1544 6.21291 29.2026 6.0611C29.2562 5.85234 29.2882 5.63453 29.2882 5.40907C29.2882 4.59976 28.9193 3.87674 28.339 3.39658L28.3056 3.37014C27.8388 2.99515 27.2579 2.7911 26.6591 2.79187C26.6028 2.79187 26.5478 2.79674 26.4921 2.80022C26.5019 2.82805 26.5387 3.31725 26.4504 4.24764C26.2959 5.89131 25.4747 7.02907 25.4747 7.02907Z" fill="#242424"/>
<path fill-rule="evenodd" clip-rule="evenodd" d="M26.0573 9.55579C26.0573 9.55579 26.1596 10.0687 26.2215 10.2983C26.243 10.2982 26.2644 10.3001 26.2855 10.3039C26.6773 10.1473 27.4463 9.91834 27.4463 9.66226V8.84391C27.4463 8.69569 27.296 8.55651 27.0301 8.43473C26.488 8.18282 25.4714 8.00816 24.3162 7.98658L23.6447 7.9845C22.4519 7.99772 21.3817 8.17517 20.8236 8.43473C20.5578 8.55651 20.4026 8.69569 20.4026 8.84391V9.66226C20.4026 9.91834 21.1792 10.1473 21.5717 10.3039C21.5717 10.3011 21.6343 10.2976 21.6378 10.2983C21.7004 10.0687 21.8048 9.55579 21.8048 9.55579C21.8048 9.55579 21.7213 9.52239 21.7053 9.48829C21.6566 9.3853 21.7442 9.32615 21.8897 9.24473C22.0337 9.1661 22.2724 9.11948 22.4756 9.11182C22.5988 9.56066 22.6162 10.2656 22.5897 10.8703C22.5368 12.0832 22.3058 13.6065 21.5842 14.6427C21.8591 14.9078 22.1618 15.2523 22.4721 15.6934C23.2209 14.2641 23.3385 12.7005 23.4011 11.0888C23.429 10.379 23.4004 9.54883 23.4011 8.981C23.4707 8.9803 23.7031 8.95246 23.9342 8.95246C24.1638 8.95246 24.3935 8.9803 24.463 8.981C24.4637 9.54883 24.4352 10.3797 24.463 11.0895C24.5264 12.729 24.644 14.3205 25.4303 15.7714C25.7149 15.3566 25.994 15.0233 26.2528 14.7603L26.3064 14.6844C25.5618 13.6476 25.328 12.0992 25.2744 10.8703C25.248 10.2649 25.2654 9.56066 25.3886 9.11182C25.5918 9.11878 25.8297 9.1661 25.9745 9.24543C26.1192 9.32615 26.2062 9.3853 26.1582 9.48829C26.1422 9.52239 26.0573 9.55579 26.0573 9.55579ZM36.1531 21.0093C36.1489 21.0079 36.1461 21.0044 36.142 21.0037C36.1308 21.0016 36.1197 20.9988 36.1079 20.9995L36.0891 21.0009L35.9659 21.0134C35.5373 21.0399 35.1211 21.0079 34.7767 20.8743C34.5818 20.8102 34.4141 20.7003 34.2506 20.5855C34.0651 20.4248 33.8812 20.2624 33.6987 20.0984C33.3828 19.8047 32.7871 19.3732 32.1699 19.3127C31.4747 19.2438 31.0314 19.4971 30.5332 19.6927C30.5093 19.7021 30.4885 19.7181 30.4733 19.7387C30.458 19.7594 30.4489 19.784 30.4469 19.8096C30.4454 19.8371 30.4524 19.8644 30.467 19.8878C30.4815 19.9112 30.503 19.9296 30.5283 19.9404C30.5459 19.9507 30.5657 19.9569 30.5861 19.9585C31.0788 19.9933 31.5485 20.0768 31.9945 20.2076C32.3251 20.3071 32.6528 20.4129 32.9131 20.5973C33.2541 20.8381 33.5484 21.1457 33.7447 21.2688C33.9994 21.4296 34.2248 21.5848 34.5171 21.6432C34.8233 21.6947 35.1434 21.6731 35.4426 21.5959L35.4816 21.5841C35.5616 21.5646 35.6375 21.5346 35.714 21.5061C35.8184 21.4644 35.9193 21.4184 36.0132 21.3635L36.0244 21.3565C36.0856 21.321 36.1496 21.2911 36.2074 21.2486L36.213 21.2459C36.2338 21.2303 36.2496 21.2088 36.2584 21.1843C36.2671 21.1597 36.2684 21.1332 36.2621 21.1079C36.2557 21.0826 36.2421 21.0598 36.2228 21.0422C36.2036 21.0247 36.1789 21.0132 36.1531 21.0093Z" fill="#242424"/>
<path fill-rule="evenodd" clip-rule="evenodd" d="M34.2435 16.4388C34.2748 16.5369 34.3799 16.6406 34.4975 16.7088C34.8691 16.9238 35.0013 17.239 34.4453 17.3045C34.0403 17.3518 33.6172 17.0832 32.1204 17.4923C31.2422 17.7324 30.2067 18.6155 29.8476 19.0212C29.7363 19.1478 29.6215 19.2926 29.515 19.4471C29.1671 19.946 29.1713 20.6182 29.5463 21.097C29.7704 21.3823 30.0195 21.5674 30.0926 21.6161C31.4078 22.5027 32.6416 21.7685 32.7759 21.6349C32.8838 21.5277 32.89 21.4853 32.8692 21.4575C32.8671 21.454 32.8629 21.4547 32.8608 21.4519C32.8599 21.4525 32.859 21.4529 32.858 21.4533V21.4519C32.8559 21.4484 32.4405 21.6711 31.8573 21.6711C31.5268 21.6711 31.1879 21.6133 30.9075 21.4881C30.7015 21.3948 30.2255 21.1415 29.9458 20.6948C29.8591 20.5521 29.8198 20.3857 29.8334 20.2194C29.847 20.053 29.9129 19.8952 30.0216 19.7686C30.2401 19.5087 30.4881 19.2751 30.7606 19.0727C31.3243 18.6593 31.9722 18.4102 32.7237 18.3991C32.7418 18.3991 32.7599 18.3963 32.778 18.3963C33.1559 18.3963 33.5177 18.4617 33.8587 18.573C34.5447 18.7974 35.1441 19.2292 35.574 19.8089L35.5761 19.8047L35.5852 19.8145C35.7083 19.6064 35.8468 19.2947 35.9644 18.857C35.9853 18.7804 36.0055 18.7018 36.0243 18.6169C36.1913 17.8834 36.1426 16.1813 34.5163 16.1813C34.4871 16.1813 34.4565 16.1952 34.4265 16.2022C34.2533 16.2481 34.2122 16.3407 34.2435 16.4388ZM7.51759 12.4723C7.8029 12.8021 8.0736 13.0707 8.32481 13.3372C8.42363 13.4423 8.51896 13.5474 8.61151 13.6553C8.93579 14.0352 9.16126 14.8424 8.16337 15.6016C8.02419 15.7074 7.89198 15.7986 7.74375 15.873C7.5777 15.9546 7.40075 16.0118 7.21836 16.0428L7.21976 16.0456L7.20723 16.0484C8.33386 18.6649 10.116 19.8368 10.116 19.8368L10.1097 19.8194L10.1278 19.8312C10.1278 19.8312 9.83139 19.1005 10.0109 17.6037C10.1042 16.8229 10.3213 16.0463 10.3658 15.6399C10.4187 15.1556 10.3359 14.7074 10.0283 14.0324C9.65951 13.221 9.5252 12.9907 9.34149 12.6943C8.98242 12.1153 8.29628 10.8989 8.29628 10.8989C8.29628 10.8989 8.51061 10.679 8.85994 10.5113C9.09821 10.3956 9.35918 10.3343 9.62402 10.3317C10.4201 10.3317 10.7075 10.798 10.8808 10.9984C10.8738 11.0102 10.8689 11.0311 10.862 11.045C10.6783 11.4326 10.5767 12.6442 10.7346 13.5084C10.9274 14.571 11.5989 15.3024 11.9636 15.7492L12.0109 15.7979C12.2774 15.532 12.8167 15.4395 12.8209 15.4381C12.8209 15.4381 12.807 14.9071 13.077 14.482C11.5314 14.1577 11.2906 13.3324 11.7597 11.6268C11.7638 11.6108 11.7736 11.5989 11.7778 11.5836C12.0039 10.8168 12.2266 10.6289 12.077 9.88638C11.9566 9.59133 11.5272 9.19885 11.267 9.0228C10.5836 8.55934 9.64768 8.27264 8.8836 8.40416C8.63234 8.44762 8.39024 8.53326 8.16754 8.65746C7.48419 9.03324 6.94836 9.7827 6.94836 10.8829C6.94836 11.0151 6.96576 11.1417 6.98177 11.2684C7.027 11.6372 7.15782 12.0547 7.51759 12.4723ZM18.3705 13.2377C18.3705 13.2377 18.9307 13.2976 19.3691 13.4667C19.8994 13.672 20.1012 13.848 20.1012 13.848L20.1548 13.7924C20.1561 13.7935 20.1575 13.7947 20.1589 13.7958C20.1589 13.7958 20.5277 13.3839 20.7282 12.9587C20.8117 12.7812 20.9077 12.4646 20.9126 12.4375C20.9669 12.1452 20.9412 11.8437 20.8381 11.5648C20.7769 11.3129 20.6175 11.077 20.3809 10.8669C20.233 10.7377 20.0712 10.6252 19.8987 10.5315C19.6401 10.4032 19.3485 10.3571 19.0629 10.3992V10.4034L19.0511 10.4041C19.0574 10.4097 19.0838 10.7395 19.0239 11.3763C18.921 12.4757 18.3705 13.2377 18.3705 13.2377ZM17.2181 13.1918C17.2599 13.1918 17.3058 13.18 17.3524 13.1605C17.6565 13.0443 18.0497 12.4911 18.2884 11.8314C18.541 11.1271 18.4672 10.5134 18.1715 10.2308C18.022 10.0957 17.8424 9.99831 17.6475 9.94692C17.9189 9.84393 18.1207 9.57463 18.136 9.24826C18.1555 8.8189 17.8451 8.45705 17.4436 8.43895C17.3425 8.43468 17.2417 8.45298 17.1486 8.49254C17.0106 8.55046 16.8922 8.64688 16.8075 8.77028C16.7229 8.89368 16.6756 9.03884 16.6712 9.18842C16.6559 9.51478 16.8312 9.80009 17.0922 9.92744C17.0783 9.93161 17.0644 9.93718 17.049 9.94066C16.8667 9.98022 16.6946 10.0575 16.5438 10.1675C16.2258 10.4236 16.0978 11.0283 16.2864 11.7513C16.4882 12.5238 16.9036 13.1549 17.2181 13.1918ZM13.7944 12.9051C13.9162 13.1626 14.0978 13.4131 14.2231 13.5731C14.2391 13.5655 14.2509 13.5564 14.2669 13.5502C14.8672 13.3261 15.4998 13.2006 16.1402 13.1786L16.1374 13.1744L16.1514 13.173C16.1514 13.173 15.6016 12.4117 15.4986 11.3122C15.4388 10.6748 15.4652 10.345 15.4708 10.3401C15.1855 10.2982 14.8941 10.3443 14.6357 10.4723L14.6309 10.4758L14.6239 10.4786C14.4514 10.572 14.2897 10.684 14.1417 10.8126C13.9051 11.0234 13.7457 11.2594 13.6845 11.5113C13.5813 11.7903 13.5556 12.0921 13.61 12.3846C13.6149 12.411 13.7109 12.7284 13.7944 12.9051ZM17.1367 19.9585C17.1569 19.9568 17.1764 19.9507 17.1938 19.9404C17.2191 19.9296 17.2406 19.9113 17.2551 19.8879C17.2697 19.8645 17.2767 19.8371 17.2752 19.8096C17.2732 19.7841 17.2641 19.7596 17.249 19.739C17.2339 19.7184 17.2133 19.7023 17.1896 19.6927C16.6907 19.4979 16.2474 19.2439 15.5522 19.3128C14.9357 19.3733 14.3393 19.8047 14.0234 20.0991C13.841 20.2632 13.657 20.4256 13.4715 20.5862C13.308 20.701 13.1403 20.8103 12.9454 20.8743C12.601 21.0079 12.1849 21.0399 11.7562 21.0135L11.6337 21.001L11.6142 20.9996C11.6024 20.9989 11.5913 21.0017 11.5794 21.0037C11.576 21.0037 11.5732 21.0079 11.5697 21.0093H11.569C11.54 21.0137 11.5133 21.0276 11.4931 21.0489C11.4729 21.0703 11.4604 21.0977 11.4577 21.1269C11.4555 21.1494 11.4591 21.172 11.4681 21.1927C11.4771 21.2134 11.4912 21.2315 11.5092 21.2452L11.5147 21.2487C11.5718 21.2911 11.6365 21.3211 11.6977 21.3566L11.7096 21.3635C11.8035 21.4185 11.9044 21.4651 12.0088 21.5062C12.0853 21.5347 12.1605 21.5646 12.2405 21.5841L12.2802 21.5959C12.5794 21.6732 12.8988 21.6947 13.2057 21.6433C13.498 21.5848 13.7227 21.4296 13.9774 21.2689C14.1737 21.1457 14.468 20.8381 14.8097 20.5967C15.0686 20.4129 15.397 20.3072 15.7283 20.2077C16.1875 20.0745 16.6597 19.991 17.1367 19.9585Z" fill="#242424"/>
<path fill-rule="evenodd" clip-rule="evenodd" d="M11.6979 18.6169C11.7167 18.7017 11.7376 18.7797 11.7584 18.8569C11.8753 19.2946 12.0138 19.6064 12.137 19.8145L12.1453 19.8047L12.1481 19.8089C12.5782 19.229 13.1779 18.7971 13.8642 18.573C14.2051 18.4617 14.5663 18.3963 14.9442 18.3963C14.9623 18.3963 14.9803 18.3983 14.9984 18.399C15.75 18.4102 16.3972 18.6593 16.9615 19.0727C17.212 19.2564 17.4799 19.5048 17.7005 19.7685C17.9204 20.0309 17.958 20.4046 17.7771 20.694C17.4966 21.1415 17.0207 21.3948 16.8147 21.4873C16.5342 21.6133 16.1954 21.6711 15.8648 21.6711C15.2817 21.6711 14.8669 21.4484 14.8641 21.4519V21.4533L14.8621 21.4519C14.8593 21.4546 14.8551 21.4539 14.853 21.4574C14.8321 21.4853 14.8391 21.527 14.9463 21.6349C15.0806 21.7685 16.315 22.5026 17.6296 21.6161C17.8357 21.4702 18.0197 21.2954 18.1758 21.097C18.5516 20.6182 18.5551 19.946 18.2071 19.447C18.1046 19.2988 17.9935 19.1566 17.8745 19.0212C17.5154 18.6155 16.4807 17.7324 15.6018 17.4923C14.1042 17.0831 13.6825 17.3517 13.2775 17.3044C12.7208 17.239 12.853 16.9238 13.2246 16.7088C13.3429 16.6406 13.4473 16.5369 13.4786 16.4387C13.51 16.3406 13.4689 16.2481 13.2956 16.2022C13.2657 16.1952 13.2358 16.1813 13.2052 16.1813C11.5796 16.1813 11.5309 17.8834 11.6979 18.6169ZM31.481 43.5871L31.4838 43.6045H31.4936C31.4887 43.5982 31.4866 43.5926 31.481 43.5871ZM24.7846 27.0843C24.8396 27.1915 25.0518 27.3627 25.0977 27.6911C25.1033 27.7259 25.9189 26.8303 25.9189 26.8303V25.9695L25.0483 26.3348L24.7846 27.0843ZM19.4729 49.6739C19.8574 49.5707 20.2361 49.4469 20.6072 49.303C20.7951 49.2299 20.9844 49.1478 21.1723 49.0525C21.3616 48.9572 21.5487 48.8486 21.7311 48.7206C21.9106 48.5953 22.0769 48.4373 22.2182 48.2592C22.2899 48.1698 22.351 48.0724 22.4005 47.969C22.4249 47.9133 22.452 47.857 22.4701 47.8055L22.5049 47.6642L22.507 47.6587C22.5363 47.6462 22.5619 47.6265 22.5815 47.6015C22.6011 47.5764 22.614 47.5468 22.619 47.5154C22.624 47.4839 22.621 47.4518 22.6101 47.4218C22.5993 47.3919 22.5811 47.3652 22.5571 47.3443C22.5332 47.3234 22.5043 47.3088 22.4732 47.3021C22.4421 47.2954 22.4098 47.2967 22.3793 47.3058C22.3489 47.315 22.3212 47.3317 22.299 47.3545C22.2768 47.3773 22.2607 47.4053 22.2523 47.436C22.2177 47.4464 22.1868 47.4664 22.1632 47.4937C22.0558 47.62 21.9255 47.7248 21.7791 47.8027C21.639 47.8734 21.4927 47.9309 21.3421 47.9746C21.0248 48.0664 20.6747 48.1138 20.3177 48.1597C19.9649 48.2049 19.5815 48.2439 19.2315 48.278C18.8801 48.31 18.5217 48.3274 18.1591 48.3406L17.0339 48.3768C16.6435 48.3977 16.2364 48.4179 15.7695 48.525C15.5753 48.5679 15.3862 48.6308 15.2051 48.7129C15.139 48.7435 15.0729 48.7776 15.0061 48.8187C14.7507 48.9773 14.4953 49.2348 14.3701 49.5347C14.2511 49.8008 14.2178 50.0972 14.2747 50.383C14.3339 50.6363 14.4369 50.8548 14.6199 51.0448C14.6548 51.0805 14.6996 51.1048 14.7486 51.1144C14.7975 51.1241 14.8482 51.1188 14.8941 51.0991C14.9339 51.0761 14.9712 51.049 15.0054 51.0184C15.3297 50.4978 16.0235 50.2181 16.1585 50.1861C16.7187 50.056 17.5196 50.0205 18.2906 49.9077C18.6831 49.8507 19.0777 49.7776 19.4736 49.6739M15.9448 47.5181C15.9426 47.5532 15.9503 47.5883 15.967 47.6193C15.9837 47.6503 16.0088 47.676 16.0395 47.6934C16.0701 47.7108 16.105 47.7193 16.1402 47.7178C16.1754 47.7163 16.2094 47.705 16.2385 47.6851L16.2441 47.6816C16.2462 47.6802 16.2482 47.6809 16.2482 47.6809L16.3095 47.6399C16.3986 47.58 16.489 47.5299 16.5795 47.4889C16.8557 47.3636 17.1362 47.3177 17.4104 47.3121C17.7889 47.301 18.1723 47.3469 18.6142 47.4248C19.1206 47.5169 19.6367 47.5445 20.15 47.507C20.4145 47.4875 20.6817 47.4374 20.9531 47.3636C21.0888 47.3184 21.2273 47.2731 21.3664 47.2001L21.3692 47.198L21.3783 47.1945C21.507 47.1214 21.6872 47.0289 21.7777 46.8313C21.7874 46.81 21.7921 46.7869 21.7915 46.7636C21.7909 46.7402 21.785 46.7173 21.7741 46.6967C21.7633 46.676 21.7479 46.658 21.7291 46.6442C21.7103 46.6304 21.6886 46.6211 21.6657 46.6169C21.6657 46.6169 21.1361 46.5181 20.9204 46.4569L20.2475 46.2843C19.7861 46.1693 19.3207 46.0714 18.8522 45.9906C18.3275 45.9009 17.704 45.905 17.1223 46.1298C17.0492 46.1583 16.9761 46.191 16.9052 46.2286C16.4104 46.4812 15.9845 46.9384 15.9448 47.5181ZM16.7047 45.665C16.7284 45.658 17.0381 45.5481 17.1842 45.5L17.18 45.4986C17.1856 45.4966 15.361 44.841 16.3965 43.6706L16.4006 43.6253C16.3972 43.6295 16.3951 43.617 16.3923 43.6212C16.217 43.5957 16.0381 43.617 15.8737 43.683C15.7093 43.749 15.5653 43.8573 15.4563 43.9969C14.9602 44.6093 15.64 45.2732 15.6581 45.2857C15.5565 45.2788 15.313 45.2419 15.2114 45.2314C14.7702 44.9308 14.0395 44.1911 15.0882 42.6261C14.9114 42.6035 14.7319 42.63 14.5691 42.7026C14.487 42.729 14.409 42.7618 14.3339 42.7986C13.8182 43.0492 13.4661 43.5349 13.4661 44.0985C13.4661 44.3282 13.5287 44.5439 13.6331 44.7381C13.7083 44.8793 13.8099 45.006 13.9289 45.1173C13.8509 45.1103 13.5169 45.0902 13.4376 45.0665C12.9567 44.5168 12.4258 43.4876 13.4501 42.283C13.2733 42.2604 13.0937 42.2869 12.931 42.3595C12.8411 42.3922 12.7542 42.4327 12.6714 42.4806C12.105 42.8035 11.828 43.4201 11.828 43.9294C11.828 44.1591 11.9115 44.5349 11.995 44.7381C12.6679 46.3768 15.8453 45.88 16.7047 45.665ZM32.8637 48.8187C32.7994 48.7797 32.733 48.7444 32.6647 48.7129C32.4834 48.6308 32.294 48.5678 32.0997 48.525C31.6334 48.4179 31.2263 48.3977 30.8352 48.3768L29.7107 48.3406C29.353 48.3295 28.9956 48.3086 28.6391 48.278C28.2762 48.2438 27.9138 48.2043 27.5521 48.1597C27.1944 48.1145 26.8451 48.0664 26.5278 47.9746C26.3769 47.9309 26.2303 47.8734 26.0901 47.8027C25.9436 47.7249 25.8133 47.6201 25.7059 47.4937C25.6823 47.4664 25.6514 47.4464 25.6169 47.436C25.5807 47.4212 25.5408 47.418 25.5027 47.4269C25.4783 47.4329 25.4552 47.4436 25.4349 47.4585C25.4146 47.4734 25.3974 47.4921 25.3844 47.5136C25.3713 47.5351 25.3626 47.559 25.3588 47.5839C25.355 47.6088 25.3561 47.6342 25.3622 47.6587L25.3643 47.6642L25.399 47.8055C25.4171 47.857 25.4443 47.914 25.4686 47.969C25.5208 48.0734 25.5786 48.1708 25.651 48.2592C25.7929 48.4373 25.9592 48.5953 26.1381 48.7206C26.3211 48.8486 26.5083 48.9572 26.6976 49.0532C26.8854 49.1478 27.074 49.2299 27.2626 49.303C27.644 49.4491 28.0023 49.5695 28.3969 49.6739C28.7922 49.7776 29.1867 49.8507 29.5785 49.9077C30.3502 50.0205 31.1512 50.056 31.7107 50.1861C31.8464 50.2181 32.5402 50.4978 32.8637 51.0184C32.8637 51.0184 32.9438 51.0879 32.9751 51.0991C33.0669 51.138 33.1769 51.1206 33.25 51.0448C33.4323 50.8548 33.536 50.6363 33.5951 50.383C33.6459 50.1311 33.6306 49.8333 33.4998 49.534C33.3745 49.2348 33.1191 48.9773 32.8637 48.8187ZM26.4916 47.1945L26.4985 47.1973L26.502 47.1994C26.6426 47.2731 26.7804 47.3177 26.9161 47.3636C27.1875 47.4367 27.4554 47.4875 27.7198 47.507C28.2417 47.5487 28.7789 47.5104 29.2556 47.4248C29.6975 47.3462 30.0809 47.301 30.4595 47.3121C30.7343 47.3177 31.0134 47.3629 31.2904 47.4889C31.3808 47.5306 31.4713 47.5793 31.5604 47.6399L31.6202 47.6802H31.6237L31.6313 47.6858C31.6647 47.7081 31.7058 47.7206 31.7496 47.7171C31.7991 47.7137 31.8451 47.6909 31.8778 47.6536C31.9104 47.6162 31.9269 47.5675 31.9236 47.5181C31.8853 46.9377 31.4595 46.4812 30.9647 46.2286C30.8942 46.1919 30.8217 46.1592 30.7476 46.1305C30.1658 45.905 29.5423 45.9009 29.0176 45.9913C28.5235 46.0741 28.0837 46.1723 27.6224 46.2836L26.9495 46.4562C26.7337 46.5181 26.2049 46.6169 26.2049 46.6169C26.1819 46.6211 26.1602 46.6304 26.1414 46.6442C26.1226 46.658 26.1072 46.676 26.0964 46.6967C26.0856 46.7173 26.0796 46.7402 26.079 46.7636C26.0784 46.7869 26.0831 46.81 26.0928 46.8313C26.1826 47.0289 26.3628 47.1214 26.4916 47.1945ZM35.1977 42.4813C35.1152 42.4334 35.0286 42.3928 34.9388 42.3602C34.7761 42.2875 34.5965 42.2611 34.4197 42.2837C35.4441 43.4876 34.9131 44.5175 34.4322 45.0672C34.3529 45.0902 34.0189 45.111 33.941 45.1173C34.0593 45.006 34.1609 44.8793 34.2367 44.7381C34.3411 44.5432 34.4037 44.3289 34.4037 44.0985C34.4037 43.5349 34.0516 43.0492 33.5353 42.7986C33.4595 42.761 33.3811 42.7289 33.3008 42.7026C33.138 42.6301 32.9584 42.6036 32.7816 42.6261C33.8303 44.1918 33.0989 44.9308 32.6585 45.2314C32.5569 45.2419 32.3133 45.2788 32.211 45.2857C32.2298 45.2732 32.909 44.6093 32.4135 43.9976C32.3044 43.858 32.1603 43.7496 31.9958 43.6836C31.8313 43.6176 31.6522 43.5963 31.4769 43.6219C31.4748 43.617 31.472 43.6295 31.4685 43.6253L31.4734 43.6706C32.5088 44.841 30.6842 45.4966 30.6898 45.4986L30.6856 45.5C30.8318 45.5488 31.1407 45.6587 31.1658 45.665C32.0245 45.8807 35.2019 46.3768 35.8748 44.7381C35.9583 44.5342 36.0418 44.1591 36.0418 43.9294C36.0418 43.4201 35.7649 42.8042 35.1977 42.4813ZM26.8966 37.6763C26.8792 37.6526 26.8235 37.6401 26.8235 37.6401C26.7978 37.6346 26.771 37.6383 26.7477 37.6505C26.5124 37.7935 26.3302 38.0092 26.2285 38.265C26.1882 38.3735 26.1555 38.4828 26.1798 38.599C26.2063 38.7159 26.2633 38.837 26.4255 38.9706C26.4617 38.9998 26.6008 39.0513 26.6989 39.0193C26.8987 38.9546 26.9982 38.8655 27.0664 38.7667C27.1325 38.6679 27.1429 38.5545 27.1464 38.4397C27.1482 38.1647 27.0609 37.8967 26.8966 37.6763Z" fill="#242424"/>
<path fill-rule="evenodd" clip-rule="evenodd" d="M27.1622 31.2248C27.1593 31.2219 27.1565 31.2188 27.1538 31.2157L27.1023 31.2491C26.8605 31.3571 26.6356 31.4994 26.4343 31.6715C25.5505 32.4161 24.7885 33.8086 24.4552 35.4801C24.1372 37.0778 24.2861 38.5621 24.7718 39.5502C25.0947 40.2079 25.5651 40.6476 26.1518 40.7472C26.728 40.8439 27.3264 40.5969 27.8748 40.1042C28.721 39.3429 29.4447 37.9908 29.7669 36.375C30.0953 34.7243 29.9269 33.192 29.4029 32.2066C29.0828 31.6019 28.6277 31.2025 28.0703 31.1085C27.7711 31.0577 27.4649 31.103 27.1622 31.2248ZM25.2784 35.5594C25.2986 35.446 25.3717 35.1196 25.3954 35.0096C25.4002 35.0145 25.4691 35.1836 25.6403 35.3012C25.84 35.4376 25.9646 35.4439 26.0648 35.4564C26.0648 35.4564 25.9187 35.249 25.8839 34.9839C25.8386 34.6464 25.9959 34.3757 25.9959 34.3757C26.0794 34.5107 26.4886 35.4988 26.6472 35.8259C26.6176 35.9172 26.5932 36.0101 26.5742 36.1043C26.563 36.1571 26.5575 36.2093 26.5498 36.2622C26.5456 36.2921 26.5387 36.3214 26.5359 36.3513C26.5102 36.3743 25.396 37.7243 25.1302 37.9908C24.9771 37.0736 25.1595 36.2344 25.2784 35.5594ZM26.364 39.9045C25.9855 39.855 25.7767 39.6386 25.6528 39.4946C25.3063 39.0924 25.2666 38.7082 25.2659 38.7048L26.6104 37.0736C26.6827 37.2768 26.8309 37.3471 26.8706 37.3527L26.8776 37.3561C27.0021 37.3805 27.1337 37.3074 27.254 37.1717C27.2881 37.2552 28.0682 38.6888 28.0995 38.7117C27.6124 39.5071 26.8671 39.9706 26.364 39.9045ZM28.9944 36.4111C28.9381 36.7299 28.8817 36.9574 28.7898 37.2462C28.7071 37.4997 28.61 37.7483 28.499 37.9908C28.3146 37.7465 27.9618 37.1585 27.5943 36.4891C27.6108 36.4307 27.6252 36.3717 27.6375 36.3123C27.6618 36.1912 27.6737 36.0743 27.6792 35.9616C28.0564 35.5928 28.4148 35.1599 28.7926 34.7355C28.7926 34.7355 28.9666 34.9053 28.904 35.208C28.8462 35.4898 28.586 35.6672 28.586 35.6672C28.8295 35.6742 28.9297 35.6867 29.1475 35.5928C29.1211 35.8134 29.0341 36.1836 28.9944 36.4111ZM28.4941 32.3006C28.5602 32.3604 28.6207 32.4307 28.6792 32.508L28.7349 32.5984L28.8017 32.7306C28.9228 32.9832 29.0014 33.247 29.0605 33.5553C29.0072 33.5371 28.9512 33.5282 28.8949 33.5288C28.1573 33.51 27.7488 33.9289 27.6222 34.5838C27.6222 34.5838 27.8581 34.4042 28.0578 34.3541C28.2338 34.311 28.4823 34.343 28.4823 34.343C28.2025 34.6805 27.9047 35.0055 27.595 35.3235C27.5345 35.178 27.4454 35.082 27.3334 35.059C27.213 35.0361 27.0856 35.1043 26.9673 35.2323C26.8435 34.954 26.5582 34.2581 26.5004 34.0946C26.5004 34.0946 26.714 34.0744 26.8929 34.1558C27.0926 34.247 27.2881 34.4996 27.2881 34.4996C27.3195 34.3395 27.2881 34.0278 27.2318 33.8538C27.117 33.4975 26.8504 33.272 26.4162 33.2171C26.3316 33.2079 26.2462 33.2103 26.1622 33.224C26.4955 32.7098 26.8755 32.3333 27.2631 32.1475C27.1559 32.9554 28.2665 33.121 28.4941 32.3006Z" fill="#242424"/>
<path fill-rule="evenodd" clip-rule="evenodd" d="M47.7659 27.6076C47.7451 27.5376 47.7103 27.4725 47.6637 27.4163C47.617 27.3601 47.5595 27.3139 47.4945 27.2806C47.431 27.2457 47.3612 27.2239 47.2892 27.2162C47.2171 27.2086 47.1443 27.2153 47.0749 27.236L47.0512 27.243C46.4215 27.4302 45.7611 27.6257 45.1132 27.7753C44.7896 27.8554 44.466 27.9319 44.1439 28.0022C43.8224 28.0704 43.505 28.1254 43.1557 28.1713C42.4779 28.2618 41.796 28.3369 41.1168 28.3954C40.6798 28.4316 40.233 28.4615 39.7981 28.481C40.0489 28.4151 40.2983 28.3441 40.5462 28.268C40.9106 28.1538 41.2723 28.0311 41.631 27.8999C42.3391 27.6408 43.0389 27.3593 43.7291 27.0558C44.4201 26.7614 45.1445 26.4274 45.7854 26.0148C46.4305 25.591 47.0366 25.1491 47.6031 24.5987C47.666 24.5375 47.7131 24.462 47.7404 24.3786C47.7677 24.2952 47.7744 24.2064 47.7599 24.1199C47.7454 24.0333 47.7102 23.9516 47.6571 23.8817C47.6041 23.8117 47.535 23.7557 47.4555 23.7184C47.3747 23.6777 47.285 23.6578 47.1945 23.6603C47.104 23.6629 47.0156 23.6878 46.9371 23.733L46.9148 23.7462C46.3171 24.09 45.6845 24.4428 45.0534 24.7441C44.4159 25.0552 43.8098 25.3523 43.1293 25.5833C42.4536 25.8185 41.7646 26.0384 41.0792 26.2291C40.7361 26.3244 40.3924 26.4135 40.0514 26.4908L39.8231 26.5388C39.9934 26.467 40.1618 26.3911 40.3284 26.3112C40.7006 26.1303 41.0576 25.9375 41.407 25.7385C42.096 25.3405 42.7692 24.9157 43.425 24.465C44.0938 24.0162 44.7604 23.5277 45.3408 22.971C45.9204 22.4018 46.4542 21.8207 46.9225 21.1325C46.9669 21.0668 46.9963 20.9922 47.0087 20.9139C47.0212 20.8356 47.0163 20.7555 46.9945 20.6793C46.9727 20.6031 46.9344 20.5326 46.8824 20.4728C46.8304 20.4129 46.766 20.3652 46.6936 20.3329C46.5959 20.2861 46.4864 20.2695 46.3792 20.2851C46.272 20.3007 46.1719 20.3479 46.0916 20.4206L46.0707 20.4387C45.5261 20.9393 44.9596 21.4155 44.3728 21.8659C43.7834 22.3183 43.2086 22.7574 42.5635 23.1255C42.4431 23.1951 42.32 23.2605 42.1989 23.3287C41.6672 23.6324 41.1255 23.9181 40.5747 24.1853C40.4689 24.2361 40.3631 24.2827 40.2574 24.3314C40.0577 24.4219 39.8586 24.5082 39.6596 24.5889L39.7682 24.5158C40.0027 24.3509 40.2233 24.1797 40.439 24.0065C40.558 23.9104 40.6777 23.8151 40.7939 23.717C41.4341 23.1742 42.0312 22.6015 42.6032 22.0204L42.6254 21.9995C43.2323 21.3844 43.8001 20.7504 44.2816 20.0511C44.7569 19.3441 45.1821 18.6329 45.5147 17.8229C45.5614 17.7092 45.568 17.583 45.5334 17.465C45.4989 17.347 45.4253 17.2443 45.3248 17.1736L45.3143 17.1695L45.3136 17.1688C45.1953 17.0856 45.0489 17.0526 44.9063 17.0772C44.7638 17.1017 44.6368 17.1816 44.553 17.2996L44.537 17.3219C44.0986 17.9412 43.6157 18.5814 43.1084 19.1652C42.9574 19.342 42.805 19.5173 42.6512 19.692C42.2921 20.0991 41.9226 20.4944 41.5225 20.8472C41.3214 21.0246 41.1182 21.1944 40.915 21.3649C40.5469 21.6739 40.176 21.9752 39.7967 22.257C39.8559 22.1812 39.915 22.106 39.9714 22.0295C40.2845 21.6015 40.574 21.1666 40.8503 20.7268C41.0416 20.4227 41.2281 20.1158 41.4091 19.8075C41.7292 19.2745 42.0207 18.7289 42.2726 18.1673C42.3861 17.9154 42.4939 17.6614 42.5886 17.4033C42.8913 16.5613 43.1362 15.7262 43.265 14.816C43.2823 14.6918 43.2562 14.5655 43.191 14.4585C43.1258 14.3514 43.0255 14.2702 42.9073 14.2287H42.9052C42.9017 14.2273 42.8996 14.2245 42.8961 14.2238C42.7601 14.1755 42.6105 14.1832 42.4801 14.245C42.3496 14.3068 42.249 14.4178 42.2003 14.5536L42.1912 14.5801C41.9616 15.2259 41.6839 15.8897 41.384 16.5299C41.3367 16.6322 41.2935 16.738 41.2448 16.8382C40.9059 17.532 40.5524 18.2147 40.1398 18.8563C40.1154 18.8938 40.0931 18.9335 40.0681 18.9711C39.7584 19.4234 39.4348 19.8632 39.105 20.2912C38.0855 21.422 36.3674 22.5535 35.4377 23.0037C34.9854 23.2222 34.5233 23.5221 34.0599 23.7483L34.039 23.7587C33.7259 23.9097 33.4572 24.1512 33.2993 24.4588C33.2589 24.5367 33.2269 24.6188 33.1991 24.7037C33.1504 24.8533 33.1197 25.0099 33.1197 25.1769C33.1197 25.7684 33.4433 26.3363 33.9297 26.5903C34.0919 26.6765 34.2721 26.7287 34.4649 26.7343C34.4969 26.735 34.5219 26.7301 34.5498 26.7273C34.7161 26.7093 34.8086 26.6383 34.8086 26.6383C34.8086 26.6383 34.6785 26.2903 34.8782 26.1345C34.9787 26.0675 35.0943 26.0265 35.2145 26.0151C35.3347 26.0037 35.4558 26.0222 35.5672 26.069C35.8246 26.1818 36.0062 26.4379 36.0062 26.7371C36.0062 27.108 35.7279 27.4107 35.3688 27.458C35.2067 27.522 34.8935 27.5318 34.6952 27.5318C34.2908 27.5304 33.8874 27.4922 33.49 27.4177C32.963 27.3195 32.4502 27.1566 31.9632 26.9326C31.3821 26.6661 30.316 25.8881 30.3321 25.8436C29.234 24.829 28.5402 23.4358 28.481 21.8938C28.4782 21.8228 28.4692 21.7532 28.4692 21.6815C28.4702 21.0719 28.5691 20.4665 28.7622 19.8883C28.9735 19.2467 29.2968 18.6476 29.7169 18.1186C29.758 18.0685 29.9451 17.8625 30.188 17.6232L30.2312 17.5807L30.2388 17.5731C30.5067 17.3107 30.8303 17.0178 31.1087 16.8375H31.1073L31.11 16.8354C31.0815 16.8148 31.0547 16.7917 31.03 16.7665C30.9987 16.7364 30.9683 16.7053 30.9389 16.6733C30.4337 16.6246 30.2541 16.3845 30.1692 16.182L30.1616 16.1632L30.1421 16.1159C30.1163 16.0393 30.117 15.8111 30.1261 15.7784C30.1643 15.5926 30.2764 15.4089 30.3724 15.3191C30.417 15.2676 30.4643 15.2231 30.5144 15.1848C30.6668 15.0679 30.8393 15.0039 31.0224 14.9691C31.069 14.9586 31.1149 14.9503 31.1615 14.9454L31.1796 14.9426C31.6487 14.8939 32.1121 15.0957 32.2979 15.5738L32.3 15.5773C32.2743 15.5954 32.0029 15.6455 32.0029 15.6455H32.0015C31.9054 15.4402 31.7454 15.3539 31.5575 15.3678C31.4906 15.3739 31.4249 15.3899 31.3627 15.4151C31.3213 15.4307 31.2829 15.4533 31.2492 15.4819C30.9479 15.7366 31.213 16.3824 31.6306 16.4276C31.7002 16.4348 31.7705 16.4255 31.8358 16.4005L31.8435 16.3977C32.0265 16.3254 33.1907 16.047 33.8915 15.9377C34.0258 15.9169 34.1448 15.9009 34.2345 15.8946C34.2376 15.8928 34.2406 15.891 34.2436 15.889L34.245 15.8883C34.3661 15.6921 34.3709 14.4047 33.3529 13.9858C32.5477 13.6539 31.8484 13.601 31.2165 13.5996C30.6689 13.5976 30.1228 13.6565 29.5882 13.775C27.5151 14.228 26.2535 15.4235 25.0983 18.0094C24.3155 19.5382 24.035 21.0044 23.9223 21.4081L23.8068 21.4094C23.6906 20.9766 23.4101 19.518 22.6384 18.0115C21.4833 15.4249 20.2154 14.2294 18.143 13.7763C17.606 13.658 17.0576 13.5995 16.5077 13.6017C15.8759 13.6017 15.1765 13.656 14.3714 13.9872C13.3526 14.4068 13.3582 15.6942 13.4793 15.8897C13.482 15.8914 13.4848 15.8931 13.4876 15.8946C13.5774 15.9009 13.6964 15.9162 13.8307 15.9377C14.5314 16.047 15.6956 16.3254 15.8787 16.3977L15.8856 16.4005C15.9573 16.427 16.0269 16.4353 16.0916 16.4276C16.5523 16.3775 16.8264 15.5996 16.363 15.4172C16.3003 15.3918 16.2341 15.3758 16.1667 15.3699C15.9789 15.356 15.8188 15.4423 15.7228 15.6476H15.7214C15.7214 15.6476 15.4354 15.594 15.4222 15.578L15.4242 15.5738C15.61 15.0957 16.0735 14.8932 16.5425 14.9426C16.5495 14.9426 16.5544 14.9447 16.5606 14.9454C16.6072 14.9503 16.6532 14.9593 16.6998 14.9684C16.9433 15.0157 17.1702 15.1145 17.3525 15.3205C17.4479 15.411 17.5599 15.5947 17.5982 15.7805C17.6072 15.8125 17.6086 16.0414 17.5822 16.1173C17.5773 16.1312 17.5689 16.1493 17.5627 16.1653L17.5557 16.1841C17.4708 16.3866 17.2913 16.626 16.7854 16.6747C16.756 16.7069 16.7256 16.7383 16.6942 16.7686C16.6695 16.7938 16.6427 16.8168 16.6142 16.8375C16.9099 17.0303 17.2593 17.3504 17.5362 17.6246C17.7791 17.8646 17.967 18.0706 18.0073 18.1214C18.4276 18.6503 18.7509 19.2494 18.9621 19.891C19.1558 20.4703 19.2549 21.077 19.2558 21.6878C19.2558 21.7595 19.2467 21.8332 19.2439 21.9035C19.2387 22.0314 19.2292 22.159 19.2154 22.2863C19.0776 22.9334 18.7881 23.9821 18.2516 24.8694C18.2238 24.9097 18.1966 24.9501 18.1681 24.9897H18.1771C17.9787 25.307 17.7362 25.5945 17.4569 25.8436C17.4729 25.8881 16.4068 26.6661 15.8265 26.9326C15.3393 27.1567 14.8262 27.3196 14.299 27.4177C13.9093 27.4893 13.5064 27.5318 13.0937 27.5318C12.8954 27.5318 12.583 27.522 12.4201 27.458C12.2447 27.4356 12.0834 27.3502 11.9663 27.2177C11.8492 27.0852 11.7842 26.9146 11.7834 26.7378C11.7834 26.4386 11.9643 26.1811 12.2232 26.0684C12.3346 26.0219 12.4558 26.0037 12.5759 26.0152C12.6961 26.0268 12.8116 26.0677 12.9121 26.1345C13.1104 26.2903 12.9803 26.6383 12.9803 26.6383C12.9803 26.6383 13.0729 26.7093 13.2399 26.7273C13.2677 26.7301 13.2921 26.735 13.3248 26.7343C13.5168 26.7287 13.6971 26.6765 13.8592 26.5903C14.3463 26.3363 14.6692 25.7691 14.6692 25.1762C14.6692 25.0106 14.6393 24.8533 14.5899 24.7037C14.5629 24.6196 14.5294 24.5377 14.4897 24.4588C14.3255 24.1517 14.0662 23.9061 13.7507 23.7587L13.7298 23.7483C13.2663 23.5221 12.8043 23.2222 12.3519 23.0037C11.4222 22.5535 9.70412 21.422 8.68466 20.2912C8.35081 19.8605 8.02942 19.4203 7.72087 18.9711C7.69651 18.9335 7.67355 18.8945 7.64919 18.8563C7.23653 18.2147 6.88303 17.532 6.54413 16.8382C6.49542 16.738 6.45367 16.6322 6.40496 16.5299C6.10504 15.8897 5.82738 15.2259 5.59774 14.5801L5.58869 14.5536C5.53993 14.4178 5.43931 14.3068 5.30889 14.245C5.17846 14.1832 5.02885 14.1755 4.89281 14.2238C4.89003 14.2245 4.88794 14.2273 4.88446 14.2287H4.88168C4.76341 14.2702 4.66317 14.3514 4.59797 14.4585C4.53277 14.5655 4.50663 14.6918 4.524 14.816C4.65343 15.7262 4.89769 16.562 5.20039 17.4033C5.29503 17.6614 5.40289 17.9154 5.51632 18.1673C5.76893 18.7282 6.0605 19.2745 6.37991 19.8075C6.56084 20.1158 6.74733 20.4227 6.93939 20.7268C7.21566 21.1659 7.50445 21.6015 7.81759 22.0295C7.87326 22.106 7.9338 22.1812 7.99226 22.257C7.611 21.9708 7.23831 21.6733 6.87468 21.3649C6.67148 21.1944 6.46828 21.0246 6.26718 20.8472C5.86635 20.4944 5.49753 20.0991 5.13776 19.692C4.98467 19.518 4.83158 19.342 4.68057 19.1652C4.17471 18.5745 3.69815 17.9593 3.25263 17.3219L3.23593 17.2996C3.15232 17.1817 3.02548 17.1018 2.8831 17.0771C2.74072 17.0525 2.59438 17.0852 2.47603 17.1681L2.47533 17.1695L2.46489 17.1736C2.36419 17.2442 2.29046 17.3469 2.25582 17.4649C2.22117 17.5828 2.22766 17.7091 2.27422 17.8229C2.60685 18.6329 3.03273 19.3441 3.50732 20.0518C3.98956 20.7504 4.5574 21.3844 5.16351 21.9989L5.18578 22.0204C5.75779 22.6015 6.35486 23.1742 6.99576 23.717C7.11128 23.8144 7.23097 23.9104 7.35066 24.0065C7.56638 24.1804 7.78697 24.3509 8.02079 24.5158L8.12935 24.5889C7.92851 24.5074 7.72945 24.4215 7.53228 24.3314C7.42651 24.2827 7.32004 24.2361 7.21427 24.1853C6.66369 23.9182 6.12222 23.6328 5.59078 23.3294C5.469 23.2605 5.34722 23.1951 5.22544 23.1255C4.58106 22.7574 4.00627 22.3183 3.41616 21.8659C2.82933 21.4158 2.26279 20.9398 1.71822 20.4394L1.69734 20.4206C1.61705 20.3479 1.51693 20.3007 1.40973 20.2851C1.30253 20.2695 1.19311 20.2861 1.0954 20.3329C1.02299 20.3652 0.958526 20.4129 0.906537 20.4728C0.854547 20.5326 0.816297 20.6031 0.794476 20.6793C0.772654 20.7555 0.76779 20.8356 0.780227 20.9139C0.792663 20.9922 0.822097 21.0668 0.86646 21.1325C1.33548 21.8214 1.86853 22.4018 2.44889 22.971C3.02925 23.5277 3.69521 24.0162 4.36395 24.4644C5.01668 24.9097 5.68403 25.3384 6.382 25.7378C6.73133 25.9375 7.08831 26.1303 7.46061 26.3112C7.62483 26.3898 7.79393 26.4657 7.96651 26.5388L7.73826 26.4901C7.39728 26.4135 7.05282 26.3244 6.71045 26.2291C6.02045 26.0355 5.33675 25.8202 4.66039 25.5833C3.97913 25.3523 3.37302 25.0552 2.73559 24.7441C2.10443 24.4428 1.47187 24.09 0.874115 23.7462L0.851847 23.733C0.773417 23.6881 0.685079 23.6633 0.594732 23.6609C0.504384 23.6584 0.414843 23.6784 0.334113 23.7191C0.254537 23.7561 0.185164 23.812 0.131973 23.8818C0.0787811 23.9516 0.0433662 24.0333 0.0287798 24.1199C0.0141934 24.2065 0.0208731 24.2953 0.0482431 24.3787C0.0756132 24.4621 0.122853 24.5376 0.185891 24.5987C0.753032 25.1491 1.35845 25.591 2.00422 26.0148C2.64443 26.4274 3.36954 26.7614 4.06054 27.0558C4.75225 27.3585 5.44465 27.6403 6.15862 27.8999C6.51491 28.03 6.87537 28.1532 7.2428 28.268C7.4272 28.3244 7.613 28.3794 7.80228 28.4309L7.99087 28.481C7.55103 28.4608 7.11162 28.4322 6.67287 28.3954C5.99136 28.3364 5.3113 28.2617 4.63325 28.1713C4.30178 28.1279 3.97215 28.0715 3.6451 28.0022C3.32099 27.9309 2.99784 27.8553 2.67574 27.7753C2.02858 27.6264 1.36819 27.4302 0.737723 27.243L0.714759 27.236C0.645351 27.2153 0.572517 27.2086 0.500484 27.2162C0.42845 27.2239 0.358653 27.2457 0.295144 27.2806C0.209301 27.3245 0.13673 27.3905 0.084914 27.4719C0.0330977 27.5532 0.00391199 27.6469 0.000366596 27.7432C-0.0031788 27.8396 0.0190445 27.9351 0.0647446 28.0201C0.110445 28.105 0.177968 28.1762 0.26035 28.2263C0.897775 28.6174 1.54842 28.9054 2.23177 29.1699C2.90539 29.4253 3.65485 29.5902 4.34377 29.7322C5.03965 29.8825 5.73552 30.0189 6.43906 30.1365C7.07231 30.2408 7.68746 30.332 8.34994 30.4002C7.94678 30.4485 7.54315 30.4928 7.13911 30.5331C6.49055 30.5964 5.83991 30.65 5.18856 30.6918C5.02712 30.7036 4.86637 30.7092 4.69936 30.7154L4.23312 30.7231L3.28881 30.7057C2.65556 30.6987 2.00422 30.6542 1.37654 30.6201L1.35566 30.6194C1.24644 30.6133 1.13788 30.6399 1.04391 30.6959C0.95222 30.7473 0.87741 30.8242 0.828562 30.9172C0.779714 31.0103 0.758928 31.1155 0.768728 31.2201C0.778529 31.3248 0.818493 31.4243 0.88377 31.5067C0.949048 31.589 1.03683 31.6507 1.13646 31.6841C1.8045 31.9123 2.4642 32.048 3.14825 32.1594C3.48992 32.2088 3.83508 32.2408 4.18371 32.2554C4.35768 32.2638 4.53305 32.2679 4.70841 32.2693L5.21014 32.2763C5.88166 32.2909 6.55318 32.2944 7.22331 32.286C7.68816 32.2805 7.78976 32.2798 8.256 32.2638L8.31723 32.4656C7.54968 32.7056 7.02568 32.8622 6.25187 33.0779C5.64923 33.2463 5.07861 33.3584 4.48433 33.4802C3.89632 33.6124 3.28533 33.7168 2.69453 33.8385L2.67783 33.8427C2.63852 33.851 2.60025 33.8636 2.56371 33.8803C2.45043 33.9269 2.35618 34.0103 2.2962 34.1171C2.23621 34.2238 2.214 34.3477 2.23316 34.4687C2.25231 34.5897 2.31171 34.7006 2.40175 34.7837C2.49179 34.8667 2.60721 34.9169 2.72933 34.9262C3.38902 34.9839 4.02505 34.9666 4.6764 34.9262C5.32356 34.8824 5.97908 34.7376 6.59633 34.6228C7.21844 34.508 8.13283 34.2922 8.74937 34.1635L8.79809 34.3187C8.5427 34.4648 7.98739 34.7585 7.7313 34.8997C7.47452 35.0417 7.21844 35.1698 6.96097 35.2943C6.70697 35.4182 6.45297 35.5379 6.19759 35.6659H6.1955L6.18576 35.6715C5.67289 35.9359 5.14194 36.1878 4.62977 36.4634L4.62073 36.4683C4.55734 36.5022 4.5013 36.5483 4.45582 36.604C4.41035 36.6597 4.37635 36.7239 4.35578 36.7927C4.33521 36.8616 4.32848 36.9339 4.33597 37.0054C4.34346 37.0769 4.36503 37.1462 4.39944 37.2094C4.45527 37.3115 4.54209 37.3933 4.64739 37.443C4.75269 37.4926 4.87103 37.5076 4.98537 37.4856C5.59078 37.3708 6.16558 37.2003 6.74594 37.0145C7.32282 36.8232 7.88301 36.5552 8.43136 36.3173C8.57749 36.2539 9.15159 36.0076 9.29634 35.9436L9.39654 36.3987L8.98389 36.6861L8.35064 37.2323C7.93311 37.6025 7.54272 38.0075 7.17321 38.4397C7.12603 38.4945 7.09018 38.5582 7.06771 38.627C7.04525 38.6957 7.03661 38.7683 7.0423 38.8404C7.04799 38.9125 7.0679 38.9828 7.10088 39.0472C7.13386 39.1116 7.17925 39.1688 7.23445 39.2156C7.31854 39.2864 7.42179 39.3306 7.53107 39.3427C7.64035 39.3547 7.75074 39.3339 7.84821 39.2831L7.85587 39.2789L7.86004 39.2775C8.36217 39.0188 8.84498 38.7241 9.30469 38.3958L9.78623 38.1147C9.78832 38.1258 10.0521 39.7027 10.121 40.3568C10.3367 42.3951 10.2754 44.7395 10.4967 45.0137C10.6811 45.2433 11.0486 45.1911 11.3784 45.2008C11.3561 45.1229 11.345 45.0498 11.3283 44.9747C11.3283 44.967 11.3304 44.9594 11.3283 44.9517C11.0917 43.8592 11.4188 43.0534 11.6206 42.7242C11.6241 42.7186 11.622 42.7124 11.6247 42.7068C11.6357 42.6788 11.6434 42.6496 11.6477 42.6198C11.576 41.3241 11.4014 39.233 11.107 37.6095C10.638 35.0215 9.85095 30.8762 9.62757 29.7022C9.62145 29.6705 9.62333 29.6377 9.63305 29.6068C9.64277 29.576 9.66002 29.548 9.68324 29.5255C9.70877 29.5027 9.73951 29.4865 9.77276 29.4784C9.80601 29.4702 9.84075 29.4704 9.87391 29.4789C10.6714 29.68 11.9824 29.7969 12.8279 29.8525C13.4598 29.8943 14.9677 29.8894 16.5216 29.4141C15.8626 30.9618 15.4876 32.7363 15.4876 34.6214C15.4876 38.3186 16.9294 41.5871 19.1242 43.5488C18.8647 43.5899 18.6719 43.6261 18.6176 43.6456C18.0526 43.8425 17.6086 44.1264 17.3602 44.2705C17.3539 44.2739 17.3497 44.2795 17.3442 44.2837C17.3275 44.2906 17.3094 44.299 17.2955 44.3066C17.2092 44.354 17.2036 44.4507 17.2245 44.546C17.2822 44.8139 17.4319 45.1473 17.5773 45.3442C17.61 45.388 17.642 45.4305 17.6963 45.4333C19.7491 45.5349 21.2592 45.6907 22.4686 46.4541L22.4846 46.4646C22.518 46.4854 22.5487 46.5105 22.5821 46.5328C23.1527 46.9802 23.383 47.9085 22.9168 48.5682C22.7567 48.7324 22.5897 48.8911 22.4241 49.0428C21.8742 49.5207 21.2643 49.925 20.6099 50.2453C19.9814 50.5477 19.3098 50.751 18.619 50.8479C17.935 50.9718 17.2523 51.0622 16.3602 51.2724L16.3546 51.2745C16.3265 51.281 16.3 51.293 16.2767 51.31C16.2503 51.3267 16.2279 51.3491 16.2111 51.3755C16.1943 51.4019 16.1835 51.4316 16.1795 51.4627C16.1756 51.4937 16.1785 51.5252 16.188 51.555C16.1976 51.5848 16.2136 51.6121 16.2349 51.6349C16.8898 52.3392 17.8577 52.6182 18.7916 52.566C19.4979 52.5117 20.1834 52.3099 20.8097 52.0114C21.8364 51.5248 22.7186 50.7788 23.3691 49.8472C23.3795 49.8319 23.3894 49.8164 23.399 49.8006C23.3976 49.809 23.3948 49.8166 23.3928 49.825C23.2786 50.2216 22.8987 51.2633 22.5946 51.6113C22.2863 51.9634 22.0052 52.3009 21.6802 52.566C21.3574 52.8309 20.9966 53.0458 20.6099 53.2035C20.2001 53.3726 19.7296 53.4818 19.1764 53.6001L19.1709 53.6015C19.1438 53.6074 19.1182 53.6188 19.0957 53.6349C19.0672 53.6522 19.0435 53.6763 19.0266 53.705C19.0097 53.7337 19.0002 53.7661 18.9989 53.7994C18.9976 53.8327 19.0045 53.8658 19.0191 53.8957C19.0337 53.9257 19.0555 53.9515 19.0825 53.971C19.5752 54.3189 20.1959 54.4818 20.8396 54.4442C21.4996 54.3937 22.1279 54.141 22.6391 53.7205C22.7233 53.6509 22.7908 53.5744 22.866 53.4978C23.0079 53.7789 23.1582 54.0601 23.2668 54.3398C23.4101 54.6752 23.5243 55.01 23.7087 55.344C23.7504 55.4191 23.8423 55.4539 23.8785 55.4477C23.8785 55.4539 24.0225 55.4191 24.0643 55.344C24.2487 55.01 24.3795 54.6752 24.5229 54.3405C24.6314 54.0601 24.7817 53.7789 24.923 53.4971C24.9988 53.5737 25.0656 53.6509 25.1498 53.7198C25.6612 54.1404 26.2899 54.3932 26.9501 54.4435C27.5938 54.4818 28.2145 54.3189 28.7065 53.971C28.7336 53.9515 28.7555 53.9256 28.7702 53.8956C28.7849 53.8656 28.7919 53.8324 28.7906 53.799C28.7893 53.7657 28.7797 53.7331 28.7627 53.7043C28.7457 53.6756 28.7219 53.6515 28.6933 53.6342C28.6707 53.6183 28.6451 53.6072 28.6181 53.6015L28.6132 53.6001C28.0593 53.4818 27.5889 53.3726 27.1797 53.2035C26.7931 53.0457 26.4323 52.8308 26.1095 52.566C25.7845 52.3016 25.5027 51.9634 25.1951 51.6113C24.891 51.2633 24.5103 50.2216 24.3962 49.825L24.3899 49.8006L24.4206 49.8472C25.069 50.7805 25.9514 51.5269 26.9793 52.0114C27.6063 52.3099 28.291 52.5117 28.9974 52.566C29.9312 52.6182 30.8992 52.3392 31.5547 51.6349C31.576 51.6121 31.5921 51.5848 31.6016 51.555C31.6112 51.5252 31.6141 51.4937 31.6101 51.4627C31.6061 51.4316 31.5954 51.4019 31.5786 51.3755C31.5618 51.3491 31.5394 51.3267 31.513 51.31C31.4894 51.293 31.4626 51.2809 31.4343 51.2745L31.4288 51.2724C30.5366 51.0622 29.854 50.9718 29.1706 50.8479C28.4796 50.751 27.8078 50.5478 27.179 50.2453C26.5246 49.925 25.9148 49.5207 25.3649 49.0428C25.1963 48.8891 25.032 48.7309 24.8722 48.5682C24.4059 47.9085 24.6363 46.9802 25.2083 46.5328C25.241 46.5105 25.2709 46.4854 25.3043 46.4646L25.3203 46.4541C26.5298 45.69 28.0398 45.5356 30.0927 45.4333C30.1476 45.4305 30.179 45.388 30.211 45.3442C30.3571 45.1473 30.506 44.8139 30.5645 44.546C30.5847 44.4507 30.5791 44.354 30.4935 44.3066C30.4796 44.299 30.4594 44.2913 30.4427 44.2837L30.4253 44.2705C30.1762 44.1264 29.7287 43.8425 29.1637 43.6456C29.0044 43.6069 28.8432 43.5764 28.6807 43.5544C30.8797 41.5934 32.3257 38.3221 32.3257 34.6214C32.3257 32.7363 31.9458 30.9659 31.2875 29.4197C32.8344 29.8887 34.332 29.8936 34.9617 29.8525C35.8072 29.7969 37.1176 29.68 37.9157 29.4789C37.9489 29.4703 37.9837 29.4701 38.0169 29.4783C38.0502 29.4864 38.0809 29.5026 38.1064 29.5255C38.1296 29.548 38.1469 29.576 38.1566 29.6068C38.1663 29.6377 38.1682 29.6705 38.1621 29.7022C37.9387 30.8762 37.151 35.0215 36.6819 37.6102C36.3876 39.233 36.2129 41.3241 36.1419 42.6205C36.1461 42.65 36.1535 42.679 36.1642 42.7068C36.167 42.7124 36.1656 42.7186 36.1691 42.7242C36.3709 43.0534 36.6973 43.8592 36.4607 44.9517C36.4586 44.9594 36.4614 44.967 36.4607 44.9747C36.444 45.0498 36.4328 45.1229 36.4113 45.2008C36.7404 45.1911 37.1078 45.2426 37.2922 45.0137C37.5135 44.7395 37.4523 42.3951 37.668 40.3568C37.7376 39.7027 38.0006 38.1258 38.002 38.1147L38.485 38.3958C38.9458 38.7247 39.4298 39.0198 39.9331 39.2789L39.9407 39.2831C40.1349 39.384 40.3792 39.3659 40.5552 39.2156C40.6104 39.1688 40.6557 39.1115 40.6886 39.0471C40.7215 38.9827 40.7414 38.9124 40.747 38.8402C40.7526 38.7681 40.7439 38.6956 40.7214 38.6269C40.6989 38.5581 40.663 38.4945 40.6157 38.4397C40.2518 38.0108 39.8588 37.6074 39.4397 37.2323L38.8051 36.6861L38.3931 36.3987L38.4926 35.9436C38.6374 36.0076 39.2115 36.2539 39.3576 36.3173C39.906 36.5559 40.4661 36.8232 41.0437 37.0145C41.6241 37.2003 42.1989 37.3708 42.8043 37.4856C42.9186 37.5076 43.037 37.4926 43.1423 37.443C43.2476 37.3933 43.3344 37.3115 43.3902 37.2094C43.4246 37.1462 43.4461 37.0768 43.4536 37.0053C43.461 36.9338 43.4542 36.8615 43.4336 36.7926C43.4129 36.7237 43.3789 36.6596 43.3333 36.6039C43.2878 36.5482 43.2317 36.5021 43.1682 36.4683L43.1592 36.4634C42.6477 36.1878 42.1168 35.9352 41.6032 35.6715L41.5935 35.6666L41.5921 35.6659C41.3367 35.5386 41.082 35.4182 40.828 35.2943C40.568 35.1696 40.3114 35.0381 40.0584 34.8997C39.8023 34.7585 39.2463 34.4641 38.9902 34.3187L39.0389 34.1635C39.6561 34.2922 40.5698 34.508 41.1933 34.6228C41.8099 34.7376 42.4654 34.8824 43.1126 34.9262C43.7646 34.9666 44.3999 34.9839 45.0596 34.9262C45.1818 34.9169 45.2972 34.8667 45.3872 34.7837C45.4772 34.7006 45.5367 34.5897 45.5558 34.4687C45.575 34.3477 45.5527 34.2238 45.4928 34.1171C45.4328 34.0103 45.3385 33.9269 45.2253 33.8803C45.1887 33.8636 45.1504 33.851 45.1111 33.8427L45.0944 33.8385C44.5036 33.7175 43.8933 33.6117 43.3046 33.4802C42.711 33.3584 42.1397 33.2463 41.5371 33.0772C40.8451 32.8854 40.1566 32.6815 39.4717 32.4656L39.5344 32.2638C39.9999 32.2798 40.1008 32.2805 40.5656 32.286C41.2365 32.2944 41.9073 32.2909 42.5788 32.277L43.0813 32.27C43.2559 32.2679 43.4313 32.2631 43.6059 32.2554C43.9539 32.2408 44.2997 32.2088 44.6407 32.1594C45.3248 32.048 45.9845 31.9123 46.6518 31.6841C46.7306 31.7283 46.8192 31.7521 46.9096 31.7534C47 31.7547 47.0893 31.7334 47.1693 31.6914C47.2493 31.6495 47.3176 31.5882 47.368 31.5131C47.4184 31.4381 47.4492 31.3516 47.4577 31.2617C47.4662 31.1717 47.4521 31.081 47.4166 30.9979C47.3812 30.9147 47.3256 30.8417 47.2548 30.7856C47.184 30.7294 47.1003 30.6917 47.0113 30.6761C46.9223 30.6604 46.8308 30.6673 46.7451 30.6959C46.6513 30.6401 46.543 30.6134 46.434 30.6194L46.4131 30.6201C45.7847 30.6549 45.1334 30.6987 44.5008 30.7057L43.5558 30.7231L43.0896 30.7154C42.9226 30.7092 42.7625 30.7036 42.6004 30.6918C41.9498 30.65 41.2991 30.5964 40.6498 30.5331C40.2458 30.4928 39.8422 30.4485 39.439 30.4002C40.1015 30.332 40.7173 30.2401 41.3499 30.1365C42.0516 30.0183 42.7505 29.8838 43.4459 29.7329C44.1348 29.5902 44.8843 29.4253 45.5572 29.1692C46.2405 28.9048 46.8912 28.6174 47.5293 28.2263C47.6313 28.1636 47.7098 28.0689 47.7526 27.9571C47.7953 27.8452 47.8 27.7224 47.7659 27.6076ZM23.9063 44.2718L23.8785 44.2712C21.4359 44.2586 19.2773 42.6254 17.9719 40.1404C18.5801 39.1189 19.8375 36.8893 19.8375 36.8893C19.9558 37.3465 20.6573 40.3687 20.6573 40.3687C20.6573 40.3687 19.7707 40.75 20.2188 41.0228C20.667 41.2956 21.6197 41.0938 21.6197 41.0938C21.6197 41.0938 21.8618 41.3109 22.1235 41.4939C22.4338 41.7263 22.7859 41.8989 23.1645 41.9998C23.3079 42.0555 23.4074 42.0903 23.4074 42.0903C23.4074 42.0903 23.3183 42.5078 23.4526 42.7249C23.5055 42.8098 23.5556 42.8836 23.7261 42.8836C23.7748 42.8836 23.8256 42.8724 23.875 42.8536C24.0225 42.7994 24.1645 42.6818 24.2445 42.599C24.4498 42.3895 24.5229 42.2392 24.676 42.0367C24.6704 42.0276 24.678 42.013 24.692 41.9977C25.0552 41.8996 25.4386 41.7681 25.8026 41.3144C24.9167 40.9692 24.1645 40.1641 23.875 38.8315C23.7648 38.3139 23.7075 37.7865 23.7038 37.2574C23.6975 36.6729 23.7456 36.0598 23.8618 35.4307L23.875 35.3667C24.2918 33.183 25.6544 31.5185 26.0482 31.3751C25.9264 31.0954 25.9779 30.3842 25.0232 29.9917C24.8172 29.9075 24.1784 29.8692 24.1186 29.577C24.4192 29.3738 24.6481 28.9917 24.7045 28.5318C24.7803 27.9152 24.5201 27.3627 24.1025 27.1644C24.2021 26.9375 24.447 26.6264 24.447 26.6264L23.971 26.1185L23.875 26.1693L23.3552 26.4462C23.3552 26.4462 23.5117 26.8909 23.5104 27.1303C23.0998 27.2667 22.7943 27.5888 22.724 28.1602C22.6899 28.4406 22.8444 28.8755 23.1652 29.1949C23.3378 29.3668 23.3726 29.513 23.2654 29.6194C23.0302 29.8539 22.5445 29.7962 22.294 30.1587C22.1367 30.3877 21.9467 30.9151 21.9467 30.9151C21.8291 31.1524 21.1381 32.8024 20.7985 33.3841C20.7136 33.5303 20.3692 34.071 20.3692 34.071C20.3692 34.071 20.2188 34.1739 20.0504 34.3083C19.9132 34.4131 19.7872 34.5321 19.6747 34.6632C19.413 34.9972 19.5181 35.5942 19.6782 35.8468L17.6671 39.5058C17.6262 39.4204 17.5875 39.3341 17.5508 39.2469C16.9851 37.8725 16.6629 36.2964 16.6629 34.6214C16.6629 29.4949 19.6795 25.2897 23.4714 24.9904H24.3503C24.7678 25.0245 25.1763 25.1073 25.5729 25.2319C25.7803 25.2973 25.9842 25.3746 26.1846 25.4629C29.0656 26.7385 31.1497 30.3605 31.1497 34.6214C31.1497 39.9435 27.9 44.2718 23.9056 44.2718H23.9063ZM23.1617 33.8197C23.1617 33.8197 21.7512 34.3507 21.0797 34.6214L22.4533 32.2505C22.4568 32.2624 22.518 32.5832 23.0768 32.817C23.0594 32.9012 23.1617 33.8197 23.1617 33.8197Z" fill="#242424"/>
<path fill-rule="evenodd" clip-rule="evenodd" d="M12.2955 35.7689H11.8279V35.3952H12.743V37.1982H12.2955V35.7689ZM13.3762 37.6784L14.3546 35.7926H13.2802V35.3959H14.8021V35.7063L13.7645 37.8071L13.3762 37.6784ZM32.904 36.876C33.1336 36.7014 33.8197 36.2901 33.8197 36.0452C33.8197 35.851 33.682 35.7939 33.485 35.7939C33.318 35.7939 33.1399 35.8538 33.0571 35.8893L32.9485 35.581C33.0376 35.5253 33.277 35.4432 33.5038 35.4432C34.0911 35.4432 34.2373 35.7424 34.2373 36.0319C34.2373 36.4174 33.714 36.7327 33.4433 36.883H34.327V37.2268H32.9033V36.876M35.5114 37.2254L34.5323 37.2268V36.8788L35.3187 35.4912H35.9359V36.8788H36.2706V37.2254H35.9366V37.8336H35.5114V37.2254ZM35.5114 36.8788V35.9373L34.9777 36.8788H35.5114Z" fill="#242424"/>
<path fill-rule="evenodd" clip-rule="evenodd" d="M68.1823 10.1564C68.1823 9.11885 67.7432 8.13905 66.5574 8.13905C64.6987 8.13905 64.4203 10.6233 64.4203 12.0123C64.4203 13.8828 64.7864 16.6162 67.2164 16.6162C68.1976 16.6162 68.8997 16.2363 69.6464 15.6518V17.0254C68.8412 17.5077 67.8747 17.6684 66.9526 17.6684C63.7906 17.6684 62.7078 15.038 62.7078 12.2754C62.7078 9.67416 63.7029 7.26294 66.6889 7.26294C68.533 7.26294 70.0563 8.16828 70.0563 10.1564H68.1823ZM74.6971 17.5077V16.5432H74.6678C74.4692 16.8873 74.183 17.1726 73.8383 17.3703C73.4936 17.5679 73.1028 17.6708 72.7055 17.6684C71.7104 17.6684 70.8029 16.9816 70.8029 15.9287C70.8029 13.9712 73.2176 13.7082 74.6971 13.6351V13.0206C74.6971 12.3192 74.711 11.004 73.7159 11.004C72.7792 11.004 72.6331 11.7646 72.5886 12.5238H71.0367C71.1543 10.9017 72.1641 10.3902 73.7159 10.3902C75.6483 10.3902 76.1751 11.2378 76.1751 13.0206V17.5077H74.6971ZM74.6971 14.2489C73.7896 14.3073 72.4132 14.5411 72.4132 15.7102C72.4132 16.2217 72.6915 16.7478 73.2622 16.7478C73.4521 16.7478 73.6574 16.6893 73.8189 16.6016C74.4041 16.2947 74.6971 15.7102 74.6971 15.0672V14.2489ZM82.4116 17.5077V14.3066H79.7909V17.5077H78.3129V10.551H79.7909V13.4737H82.4116V10.551H83.8896V17.5077H82.4116ZM86.0566 10.551H87.5353V13.5175C88.3843 12.5384 89.1894 11.5447 90.0092 10.551H91.4587L88.7503 13.6782C89.6724 13.7958 90.3307 14.0582 90.8143 15.4472L91.5172 17.4931H89.8916L89.3655 15.9294C88.9695 14.7743 88.6181 14.4388 87.7107 14.4388H87.5353V17.5077H86.0566V10.551ZM95.3521 11.3686V17.5077H93.888V11.3693H92.0147V10.551H97.2846V11.3693L95.3521 11.3686ZM98.1489 13.1382H101.708V14.1765H98.1489V13.1382ZM108.792 17.5077V8.43202H105.235V17.5084H103.625V7.42299H110.403V17.5077H108.792ZM113.624 13.2405C113.624 14.8912 114.399 16.8939 116.331 16.8939C116.785 16.8939 117.239 16.7916 117.663 16.6016V17.2739C116.961 17.5661 116.39 17.6684 115.629 17.6684C113.213 17.6684 112.145 15.9879 112.145 13.7228C112.145 11.7347 112.979 10.3902 115.116 10.3902C117.005 10.3902 117.796 11.457 117.796 13.2398L113.624 13.2405ZM115.057 11.004C114.165 11.004 113.726 11.7646 113.668 12.5676H116.347C116.347 11.7493 115.979 11.004 115.057 11.004ZM121.807 11.3686V17.5077H120.343V11.3693H118.469V10.551H123.738V11.3693L121.807 11.3686ZM125.685 13.2405C125.685 14.8912 126.461 16.8939 128.394 16.8939C128.848 16.8939 129.302 16.7916 129.726 16.6016V17.2739C129.023 17.5661 128.452 17.6684 127.692 17.6684C125.276 17.6684 124.207 15.9879 124.207 13.7228C124.207 11.7347 125.043 10.3902 127.179 10.3902C129.067 10.3902 129.858 11.457 129.858 13.2398L125.685 13.2405ZM127.12 11.004C126.228 11.004 125.788 11.7646 125.73 12.5676H128.409C128.409 11.7493 128.042 11.004 127.12 11.004ZM134.806 17.6684C133.943 17.6684 133.386 17.2885 133.005 16.5432H132.976V20.6349H131.497V10.5517H132.976V11.6915H133.005C133.342 10.917 133.927 10.3909 134.806 10.3909C136.957 10.3909 137.441 12.2468 137.441 14.0304C137.441 15.7694 136.884 17.6698 134.806 17.6698V17.6684ZM134.425 11.3255C133.137 11.3255 133.035 13.0937 133.035 14.0297C133.035 14.9942 133.064 16.8208 134.425 16.8208C135.685 16.8208 135.831 14.935 135.831 14.0297C135.831 13.1083 135.698 11.3255 134.425 11.3255ZM144.277 8.40279L141.935 9.30882C140.603 9.82029 140.047 10.5071 139.798 11.6616H139.842C140.237 10.8432 140.998 10.4048 142.023 10.4048C144.087 10.4048 144.804 11.9246 144.804 13.9413C144.804 16.1632 143.867 17.6684 141.744 17.6684C139.461 17.6684 138.656 16.1632 138.656 13.7228C138.656 11.0332 139.256 9.04578 141.584 8.05137C142.301 7.7591 143.003 7.45291 143.706 7.16064L144.277 8.40279H144.277ZM141.744 17.0108C143.092 17.0108 143.194 15.3156 143.194 14.2781V13.7367C143.194 12.7138 143.121 11.0917 141.759 11.0917C140.5 11.0917 140.252 12.7583 140.252 13.7666V14.3359C140.252 15.3588 140.398 17.0108 141.744 17.0108ZM148.259 20.6356H147.073L148.098 17.5807L145.419 10.551H146.956L148.787 15.5202H148.815L150.455 10.551H151.845L148.259 20.6356ZM156.281 17.6684C155.418 17.6684 154.862 17.2885 154.48 16.5432H154.451V20.6349H152.973V10.5517H154.451V11.6915H154.48C154.817 10.917 155.403 10.3909 156.281 10.3909C158.433 10.3909 158.916 12.2468 158.916 14.0304C158.916 15.7694 158.359 17.6698 156.281 17.6698V17.6684ZM155.901 11.3255C154.612 11.3255 154.509 13.0937 154.509 14.0297C154.509 14.9942 154.539 16.8208 155.901 16.8208C157.159 16.8208 157.306 14.935 157.306 14.0297C157.306 13.1083 157.174 11.3255 155.901 11.3255ZM164.508 10.551V11.3547H162.034V17.5077H160.571V10.551H164.508ZM168.826 12.8161C168.826 12.1 168.783 11.004 167.816 11.004C166.748 11.004 166.529 12.4653 166.529 13.2552C166.529 14.7896 167.158 16.8946 169.031 16.8946C169.456 16.8946 169.88 16.7916 170.275 16.6302V17.3177C169.675 17.5369 169.046 17.6684 168.417 17.6684C165.957 17.6684 164.918 16.0609 164.918 13.752C164.918 11.7931 165.767 10.3909 167.875 10.3909C169.515 10.3909 170.378 11.1647 170.378 12.8161H168.826ZM171.666 10.551H173.145V13.5175C173.994 12.5384 174.799 11.5447 175.619 10.551H177.068L174.36 13.6782C175.282 13.7958 175.94 14.0582 176.424 15.4472L177.127 17.4931H175.501L174.975 15.9294C174.579 14.7743 174.228 14.4388 173.32 14.4388H173.145V17.5077H171.666V10.551ZM178.474 17.5077V10.551H179.865V15.7979L182.777 10.551H184.153V17.5077H182.777V12.393L179.879 17.5077H178.473M186.32 17.5077V10.551H187.711V15.7979L190.624 10.551H192V17.5077H190.624V12.393L187.725 17.5077H186.32ZM191.341 7.26294C191.253 8.46124 190.595 9.33805 189.306 9.33805C188.077 9.33805 187.242 8.47516 187.242 7.26294H188.077C188.209 7.87601 188.619 8.27127 189.277 8.27127C189.951 8.27127 190.346 7.89062 190.507 7.26224H191.342L191.341 7.26294ZM67.0549 26.0266V26.8304H64.5811V32.984H63.1176V26.0266H67.0549ZM70.5538 33.1448C68.2852 33.1448 67.4801 31.5658 67.4801 29.5053C67.4801 27.4441 68.2845 25.8659 70.5538 25.8659C72.8224 25.8659 73.6428 27.4302 73.6428 29.5053C73.6428 31.5804 72.8231 33.1448 70.5538 33.1448ZM70.5538 26.4803C69.1634 26.4803 69.0904 28.5116 69.0904 29.5053C69.0904 30.499 69.1634 32.5303 70.5538 32.5303C71.9595 32.5303 72.0325 30.499 72.0325 29.5053C72.0325 28.5116 71.9595 26.4803 70.5538 26.4803ZM78.7081 28.2924C78.7081 27.5756 78.6643 26.4803 77.6977 26.4803C76.6295 26.4803 76.4103 27.9417 76.4103 28.7308C76.4103 30.2652 77.0387 32.3702 78.9127 32.3702C79.3372 32.3702 79.7617 32.2673 80.1569 32.1065V32.794C79.5564 33.0132 78.9273 33.1448 78.2982 33.1448C75.839 33.1448 74.7994 31.5373 74.7994 29.2277C74.7994 27.2688 75.6483 25.8666 77.7569 25.8666C79.3956 25.8666 80.2599 26.6404 80.2599 28.2924H78.7081ZM83.3482 36.1113H82.1625L83.1875 33.0564L80.5084 26.0266H82.0455L83.8757 30.9959H83.9042L85.5437 26.0273H86.9348L83.3482 36.1113ZM88.472 32.984C88.4281 33.5247 88.369 34.0654 88.3398 34.6207H87.1693V32.1364H87.8429C88.4135 31.1712 88.6327 29.5199 88.6327 27.6341V26.0266H93.4635V32.1364H94.4148L94.2102 34.6207H93.0244V32.984H88.472ZM90.0969 26.845V27.6202C90.0969 29.2423 89.8916 30.9674 89.2771 32.1364H91.9855V26.845H90.0969ZM99.2017 32.984V32.0188H99.1732C98.9746 32.363 98.6884 32.6485 98.3437 32.8462C97.9991 33.044 97.6082 33.147 97.2108 33.1448C96.2157 33.1448 95.3083 32.4572 95.3083 31.4051C95.3083 29.4469 97.7237 29.1838 99.2017 29.1107V28.497C99.2017 27.7955 99.2164 26.4803 98.2213 26.4803C97.2846 26.4803 97.1385 27.2402 97.0939 28.0001H95.5421C95.6597 26.3773 96.6694 25.8659 98.2213 25.8659C100.154 25.8659 100.68 26.7141 100.68 28.4963V32.984H99.2017ZM99.2017 29.7245C98.295 29.783 96.9193 30.0168 96.9193 31.1859C96.9193 31.698 97.1969 32.2234 97.7675 32.2234C97.9575 32.2234 98.1628 32.165 98.3242 32.0773C98.9088 31.7711 99.2017 31.1866 99.2017 30.5429V29.7245ZM106.126 33.1448C105.263 33.1448 104.707 32.7641 104.326 32.0188H104.296V36.1113H102.818V26.0266H104.296V27.1665H104.326C104.662 26.392 105.248 25.8659 106.126 25.8659C108.278 25.8659 108.762 27.7225 108.762 29.5053C108.762 31.2443 108.205 33.1448 106.126 33.1448ZM105.746 26.8011C104.458 26.8011 104.355 28.5701 104.355 29.5053C104.355 30.4698 104.385 32.2965 105.746 32.2965C107.005 32.2965 107.151 30.4113 107.151 29.5053C107.151 28.5847 107.019 26.8011 105.746 26.8011ZM113.812 28.2924C113.812 27.5756 113.768 26.4803 112.801 26.4803C111.733 26.4803 111.514 27.9417 111.514 28.7308C111.514 30.2652 112.143 32.3702 114.016 32.3702C114.441 32.3702 114.865 32.2673 115.261 32.1065V32.794C114.661 33.0132 114.031 33.1448 113.402 33.1448C110.943 33.1448 109.903 31.5373 109.903 29.2277C109.903 27.2688 110.752 25.8666 112.86 25.8666C114.5 25.8666 115.364 26.6404 115.364 28.2924H113.812ZM119.169 26.845V32.984H117.706V26.845H115.832V26.0266H121.102V26.845H119.169ZM124.82 32.984H122.302V26.0266H124.761C126.108 26.0266 127.396 26.275 127.396 27.6633C127.396 28.4239 126.913 29.0815 125.933 29.3007V29.3146C127.133 29.4615 127.718 30.0022 127.718 31.0404C127.718 32.6479 126.372 32.984 124.82 32.984ZM124.381 26.7865H123.766V28.9785H124.352C125.2 28.9785 125.845 28.76 125.845 27.8686C125.845 27.0057 125.317 26.7865 124.381 26.7865H124.381ZM124.41 29.7537H123.766V32.2241H124.381C125.45 32.2241 126.167 31.9896 126.167 30.9667C126.167 29.9583 125.45 29.7537 124.41 29.7537ZM130.266 28.7162C130.266 30.3675 131.042 32.3695 132.974 32.3695C133.428 32.3695 133.882 32.2673 134.306 32.0773V32.7495C133.603 33.0418 133.033 33.1448 132.271 33.1448C129.857 33.1448 128.788 31.4635 128.788 29.1984C128.788 27.211 129.622 25.8659 131.759 25.8659C133.648 25.8659 134.438 26.9333 134.438 28.7162H130.266ZM131.701 26.4803C130.808 26.4803 130.368 27.2402 130.31 28.0433H132.989C132.989 27.2249 132.623 26.4803 131.701 26.4803ZM140.176 32.984V29.783H137.556V32.984H136.078V26.0266H137.556V28.95H140.176V26.0273H141.655V32.984H140.176ZM147.92 32.984V29.783H145.3V32.984H143.821V26.0266H145.3V28.95H147.92V26.0273H149.399V32.984H147.92ZM153.044 26.0266V28.95H154.141C155.635 28.9792 156.791 29.3592 156.791 30.9082C156.791 32.5888 155.4 32.984 153.922 32.984H151.565V26.0266H153.044ZM153.352 29.7391H153.044V32.2234H153.805C154.654 32.165 155.239 31.8873 155.239 30.9813C155.239 29.8999 154.464 29.7391 153.352 29.7391ZM157.61 26.0266H159.09V32.984H157.611V26.0266H157.61ZM161.256 32.984V26.0266H162.647V31.2735L165.56 26.0266H166.936V32.984H165.56V27.8679L162.661 32.9826H161.256V32.984ZM166.277 22.7386C166.189 23.9369 165.531 24.8137 164.243 24.8137C163.012 24.8137 162.178 23.9515 162.178 22.7386H163.013C163.145 23.3524 163.555 23.7469 164.213 23.7469C164.886 23.7469 165.282 23.367 165.442 22.7379L166.277 22.7386ZM64.9179 51.5876H63.7321L64.7571 48.5327L62.078 41.503H63.6152L65.4454 46.4715H65.4746L67.1141 41.503H68.5044L64.9179 51.5876ZM73.7305 48.4597V45.2586H71.1098V48.4597H69.6318V41.503H71.1098V44.4256H73.7305V41.503H75.2085V48.4597H73.7305ZM77.3755 48.4597V41.503H78.7666V46.7499L81.6795 41.503H83.0553V48.4597H81.6795V43.345L78.7812 48.4597H77.3755ZM87.7399 48.4597H85.2222V41.503H87.6815C89.028 41.503 90.3161 41.7514 90.3161 43.1397C90.3161 43.8996 89.8331 44.5572 88.8526 44.7771V44.791C90.0523 44.9371 90.6383 45.4785 90.6383 46.5168C90.6383 48.1242 89.2917 48.4597 87.7399 48.4597ZM87.3008 42.2629H86.6857V44.4549H87.2716C88.1206 44.4549 88.7643 44.2357 88.7643 43.3443C88.7643 42.4814 88.2375 42.2629 87.3008 42.2629ZM87.3301 45.2294H86.6857V47.6998H87.3008C88.369 47.6998 89.0871 47.4659 89.0871 46.443C89.0871 45.434 88.369 45.2294 87.3301 45.2294ZM93.1852 44.1918C93.1852 45.8439 93.9611 47.8459 95.8935 47.8459C96.3531 47.8433 96.807 47.7437 97.2254 47.5536V48.2258C96.5226 48.5181 95.952 48.6204 95.1907 48.6204C92.776 48.6204 91.7071 46.9399 91.7071 44.6748C91.7071 42.6866 92.5422 41.3422 94.6785 41.3422C96.5671 41.3422 97.3577 42.409 97.3577 44.1918H93.1852ZM94.6201 41.956C93.7273 41.956 93.2882 42.7159 93.2297 43.5196H95.9088C95.9088 42.7013 95.5428 41.956 94.6201 41.956ZM102.306 48.6204C101.442 48.6204 100.886 48.2405 100.505 47.4952H100.476V51.5876H98.9978V41.503H100.476V42.6428H100.505C100.842 41.8683 101.428 41.3422 102.306 41.3422C104.458 41.3422 104.941 43.1981 104.941 44.9817C104.941 46.7207 104.384 48.6204 102.306 48.6204ZM101.925 42.2775C100.637 42.2775 100.535 44.0464 100.535 44.9817C100.535 45.9454 100.564 47.7728 101.925 47.7728C103.184 47.7728 103.33 45.887 103.33 44.9817C103.33 44.0603 103.199 42.2775 101.925 42.2775ZM109.991 43.7687C109.991 43.052 109.947 41.956 108.981 41.956C107.913 41.956 107.694 43.4173 107.694 44.2064C107.694 45.7416 108.323 47.8459 110.196 47.8459C110.62 47.8459 111.045 47.7436 111.441 47.5829V48.2697C110.84 48.4889 110.211 48.6204 109.581 48.6204C107.122 48.6204 106.083 47.0129 106.083 44.704C106.083 42.7451 106.932 41.3429 109.04 41.3429C110.679 41.3429 111.542 42.1167 111.542 43.768H109.991M112.832 48.4597V41.503H114.222V46.7499L117.135 41.503H118.511V48.4597H117.135V43.345L114.236 48.4597H112.832ZM123.05 42.3213V48.4597H121.585V42.3213H119.711V41.503H124.981V42.3213H123.05ZM126.928 44.1918C126.928 45.8439 127.704 47.8459 129.636 47.8459C130.09 47.8459 130.544 47.7436 130.969 47.5536V48.2258C130.266 48.5181 129.695 48.6204 128.934 48.6204C126.518 48.6204 125.45 46.9399 125.45 44.6748C125.45 42.6866 126.284 41.3422 128.421 41.3422C130.31 41.3422 131.1 42.409 131.1 44.1918H126.928ZM128.363 41.956C127.47 41.956 127.031 42.7159 126.972 43.5196H129.651C129.651 42.7013 129.285 41.956 128.363 41.956ZM135.112 42.3213V48.4597H133.648V42.3213H131.774V41.503H137.044V42.3213H135.112Z" fill="#242424"/>
</svg>
