<svg width="134" height="72" viewBox="0 0 134 72" fill="none" xmlns="http://www.w3.org/2000/svg">
<g id="rusal-logo">
<g id="Group">
<path id="Vector" fill-rule="evenodd" clip-rule="evenodd" d="M52.4045 6.58179H0V39.2674H13.1011C10.9698 36.4418 9.81965 32.9997 9.82494 29.463C9.82494 20.4367 17.157 13.1188 26.2022 13.1188C35.2468 13.1188 42.5788 20.4367 42.5788 29.463C42.5788 33.1423 41.3599 36.5368 39.3041 39.2674H52.4037L52.4045 6.58179Z" fill="black"/>
<path id="Vector_2" fill-rule="evenodd" clip-rule="evenodd" d="M19.8516 26.1927H19.652V65.4182H58.9554V65.2176C40.1832 59.6979 25.3846 44.9292 19.8516 26.1927Z" fill="#FE000C"/>
<path id="Vector_3" fill-rule="evenodd" clip-rule="evenodd" d="M102.98 36.8081C102.913 36.9716 102.83 37.2086 102.737 37.5206C102.641 37.8332 102.594 38.0909 102.594 38.2944C102.594 38.4843 102.639 38.6313 102.726 38.732C102.815 38.8355 102.955 38.919 103.145 38.9876C103.254 39.0133 103.378 39.0368 103.522 39.0575C103.666 39.0789 103.79 39.0968 103.899 39.1082V39.5066H100.469V39.1082C100.686 39.0818 100.9 39.0133 101.11 38.9048C101.321 38.797 101.501 38.6678 101.651 38.5193C101.772 38.3829 101.875 38.2366 101.957 38.0802C102.038 37.926 102.092 37.8061 102.121 37.7247L106.566 26.1813H106.933L111.524 39.1082H112.888V39.5066H107.336V39.1082H109.132L107.648 34.9949H103.711L102.98 36.8081ZM105.771 29.5373L103.814 34.5944H107.505L105.771 29.5373ZM125.716 26.5818H124.167V39.1046H125.716V39.5066H120.369V39.1046H121.919V26.5818H119.65C119.472 26.5818 119.228 26.6025 118.915 26.6439C118.602 26.6832 118.328 26.8124 118.097 27.0301C117.915 27.1932 117.783 27.405 117.718 27.6405C117.661 27.8546 117.617 28.0721 117.586 28.2915C117.56 28.5086 117.537 28.7484 117.523 29.0118C117.51 29.2781 117.501 29.5894 117.494 29.9485C117.487 30.3075 117.479 30.7323 117.474 31.2199C117.466 31.7082 117.457 32.2778 117.442 32.9289L117.363 36.0435C117.348 36.5461 117.332 36.9951 117.311 37.3963C117.298 37.7632 117.218 38.1247 117.077 38.4636C116.969 38.7206 116.845 38.9183 116.71 39.054C116.576 39.1882 116.42 39.2774 116.224 39.3795C116.027 39.4809 115.728 39.508 115.349 39.508C114.684 39.508 114.141 39.3588 113.722 39.0597C113.515 38.9059 113.339 38.7155 113.202 38.4979C113.047 38.2601 112.967 37.9503 112.967 37.5691C112.967 37.1336 113.09 36.7724 113.336 36.4861C113.581 36.2013 113.927 36.0585 114.376 36.0585C114.757 36.0585 115.059 36.1663 115.284 36.3841C115.508 36.6018 115.621 36.8602 115.621 37.1586C115.621 37.512 115.534 37.8247 115.361 38.0959C115.294 38.1916 115.233 38.2787 115.18 38.3608C115.132 38.4262 115.105 38.5037 115.1 38.5842C115.1 38.6528 115.134 38.7413 115.203 38.8498C115.268 38.9576 115.418 39.0118 115.645 39.0118C115.836 39.0118 116.022 38.9547 116.211 38.8405C116.399 38.7249 116.602 38.4979 116.695 38.2323C116.787 37.9689 116.866 37.6762 116.886 37.3371C116.907 36.998 116.924 36.5654 116.938 36.0371L117.019 32.9239C117.032 32.2464 117.045 31.6982 117.059 31.2777C117.072 30.8579 117.08 30.526 117.08 30.2811V28.6342C117.08 28.4322 117.069 28.1945 117.048 27.9232C117.026 27.6493 116.924 27.3878 116.755 27.1715C116.653 27.0419 116.528 26.9319 116.387 26.8467C116.258 26.7689 116.122 26.7041 115.981 26.6532C115.846 26.6061 115.627 26.5811 115.328 26.5811H114.839V26.1806H125.717V26.5818H125.716ZM81.4393 26.5947H79.7211L83.7477 35.0612L86.2642 28.6556C86.3314 28.5057 86.3987 28.298 86.458 28.0331C86.5181 27.7683 86.5503 27.5534 86.5503 27.3906C86.5503 27.1186 86.458 26.9173 86.2735 26.7881C86.0848 26.6574 85.8594 26.5896 85.6297 26.5947H85.3436V26.187H88.8179V26.5947C88.506 26.5947 88.2435 26.6489 88.0325 26.7581C87.8372 26.8555 87.6582 26.9824 87.5017 27.1343C87.3684 27.2637 87.2544 27.4116 87.1634 27.5734C87.0825 27.7219 87.0267 27.8375 86.9995 27.9196L84.1161 35.3668C83.9523 35.7744 83.7734 36.1385 83.6175 36.4583C83.4623 36.7788 83.3171 37.0465 83.1204 37.3656C82.9093 37.7076 82.7963 37.8953 82.581 38.1752C82.3349 38.4964 82.204 38.6349 81.9129 38.8926C81.6611 39.1168 81.4208 39.2724 81.1825 39.3688C80.9178 39.4675 80.6367 39.5152 80.3542 39.5094C79.9336 39.5094 79.5645 39.4452 79.2505 39.316C78.956 39.1974 78.6809 39.0358 78.4343 38.8362C78.0795 38.5378 77.852 38.228 77.7497 37.9082C77.6536 37.629 77.6017 37.3366 77.5959 37.0415C77.5959 36.8638 77.6224 36.6875 77.6768 36.5104C77.7311 36.3327 77.812 36.1742 77.9228 36.0307C78.0316 35.8893 78.1746 35.7694 78.352 35.6745C78.5294 35.5795 78.7404 35.531 78.9865 35.531C79.4221 35.531 79.749 35.6538 79.9672 35.8986C80.1854 36.1435 80.2941 36.3898 80.2941 36.6318C80.2941 36.7824 80.2662 36.9323 80.2133 37.0822C80.1641 37.2204 80.0954 37.3509 80.0094 37.4699C79.8449 37.6883 79.6603 37.8546 79.4565 37.9696C79.2512 38.0852 79.1489 38.2309 79.1489 38.4079C79.1489 38.5435 79.2354 38.6927 79.4043 38.8576C79.5745 39.0197 79.8499 39.1011 80.2326 39.1011C80.533 39.1011 80.8235 39.0268 81.1017 38.8776C81.3814 38.7277 81.6175 38.5514 81.807 38.3472C81.9565 38.1837 82.0932 38.001 82.2162 37.7968C82.3378 37.5919 82.4201 37.4563 82.4608 37.3892L77.2275 26.5939H75.8162V26.1863H81.4393V26.5947ZM75.3841 29.6993C75.3583 29.4579 75.3072 29.2198 75.2318 28.989C75.1495 28.7306 75.0279 28.4664 74.8641 28.1945C74.7003 27.9225 74.4828 27.659 74.2117 27.3999C73.6954 26.9073 73.0528 26.5666 72.3548 26.4155C71.6649 26.2611 70.9602 26.1826 70.2532 26.1813H64.4412V26.5825H65.9905V39.1054H64.4412V39.5066H69.7896V39.1054H68.2402V34.2132H70.2238C71.0257 34.2132 71.7968 34.1232 72.5322 33.9397C73.2682 33.7563 73.8677 33.4343 74.3319 32.9732C74.427 32.8775 74.5358 32.7526 74.6588 32.5984C74.7804 32.4406 74.8992 32.2514 75.0165 32.0273C75.1309 31.8031 75.2275 31.5425 75.3026 31.2434C75.377 30.9457 75.4142 30.6066 75.4142 30.2276C75.4127 30.0511 75.4026 29.8748 75.3841 29.6993ZM72.1802 32.941C72.0515 33.0924 71.9077 33.2194 71.7138 33.3444C71.5399 33.4439 71.3548 33.5225 71.1623 33.5785C70.9642 33.6381 70.7626 33.6853 70.5586 33.7199C70.3763 33.7529 70.1925 33.7767 70.0078 33.7913C69.8375 33.8055 69.7117 33.812 69.6294 33.812H68.2409V26.5825H69.6294C70.0107 26.5825 70.4091 26.6175 70.8254 26.6846C71.1888 26.7439 71.5264 26.8916 71.8426 27.1165C71.8662 27.1343 71.8912 27.1493 71.9141 27.1672C71.9349 27.1836 71.9592 27.1965 71.9799 27.2136C72.0872 27.3078 72.1852 27.4063 72.2689 27.5091C72.8126 28.1381 73.1602 29.1004 73.1602 30.1776C73.1595 31.3134 72.7725 32.3164 72.1802 32.941ZM98.773 26.1813H98.2773C98.1686 26.6018 97.9311 26.8124 97.5634 26.8124C97.4139 26.8124 97.2587 26.7824 97.0956 26.7203C96.865 26.6346 96.6339 26.5501 96.4024 26.4669C96.1537 26.3776 95.8989 26.3063 95.6399 26.2534C95.3682 26.203 95.0922 26.1791 94.8159 26.182C94.4904 26.182 94.0712 26.1849 93.6563 26.2598C93.2429 26.3348 92.7901 26.409 92.3022 26.6368C91.8716 26.8374 91.5955 26.9873 91.182 27.3521C90.7686 27.7176 90.3787 28.1845 90.011 28.7527C89.6047 29.4173 89.315 30.0976 89.1462 30.7944C88.9774 31.4911 88.8923 32.2271 88.8923 32.9981C88.8923 33.9062 88.9931 34.705 89.1984 35.3946C89.4023 36.0857 89.6605 36.6889 89.9739 37.2029C90.2385 37.6245 90.5568 38.0102 90.9209 38.3501C91.2489 38.6495 91.6218 38.8959 92.0261 39.0804C92.4324 39.2731 92.7944 39.3973 93.1842 39.4466C93.5872 39.4917 93.9926 39.513 94.3981 39.5101C94.8481 39.5101 95.2658 39.4616 95.6528 39.3631C96.034 39.268 96.4008 39.1227 96.7436 38.9312C96.9475 38.8234 97.1349 38.7213 97.3037 38.6264C97.474 38.5314 97.4897 38.4843 97.6657 38.4843C97.8023 38.4843 97.9075 38.5178 97.9812 38.5871C98.0563 38.6542 98.1178 38.732 98.1657 38.8198C98.2129 38.9098 98.2465 38.9997 98.268 39.0954C98.2873 39.1896 98.2959 39.4673 98.2959 39.5073H98.7558L98.7573 35.0748H98.3853C98.3925 35.1733 98.3968 35.2718 98.3968 35.3739C98.3968 36.0807 98.2029 36.7253 97.8853 37.22C97.8689 37.2486 97.8517 37.2771 97.8324 37.3057C97.4721 37.8409 96.9918 38.2851 96.4296 38.6028C95.8474 38.9397 95.2701 39.1082 94.7 39.1082C94.3352 39.1082 93.9696 39.0268 93.602 38.8655C93.2587 38.717 92.942 38.5138 92.6642 38.2637C92.4779 38.097 92.3081 37.913 92.157 37.714C91.9911 37.4849 91.8551 37.2457 91.657 36.6689C91.619 36.5624 91.5877 36.4537 91.5633 36.3434C91.3437 35.4189 91.2128 34.2182 91.2128 32.9046C91.2128 30.3496 91.7185 28.6785 92.2944 27.956C92.3251 27.9153 92.4102 27.8154 92.4424 27.7754C92.5631 27.6323 92.6928 27.4971 92.8308 27.3706C92.9847 27.2218 93.1594 27.0961 93.3494 26.9973C93.5836 26.867 93.8321 26.764 94.0898 26.6903C94.3745 26.6096 94.7114 26.5818 95.0526 26.5818C95.5963 26.5818 96.0834 26.696 96.5183 26.9266C96.9525 27.155 97.2995 27.4449 97.5577 27.7947C97.6793 27.9703 97.788 28.1795 97.8832 28.4222C97.9783 28.6642 98.0591 28.9162 98.1278 29.1796C98.1965 29.443 98.2508 29.6915 98.2916 29.927C98.3309 30.164 98.3589 30.3554 98.371 30.5031H98.7744V26.1813H98.773Z" fill="black"/>
</g>
</g>
</svg>
