<svg width="125" height="52" viewBox="0 0 125 52" fill="none" xmlns="http://www.w3.org/2000/svg">
<g clip-path="url(#clip0_1_1840)">
<path fill-rule="evenodd" clip-rule="evenodd" d="M124.72 39.69H119.62V16.37C119.619 16.3396 119.612 16.3097 119.598 16.2824C119.584 16.2552 119.565 16.2312 119.541 16.2122C119.518 16.1931 119.49 16.1795 119.46 16.1722C119.431 16.1649 119.4 16.1642 119.37 16.17C119.319 16.1628 119.267 16.1738 119.223 16.2013C119.179 16.2287 119.146 16.2707 119.13 16.32L114.43 38.42C114.22 39.42 113.32 39.97 111.97 39.97C110.62 39.97 109.71 39.4 109.51 38.42L104.81 16.32C104.794 16.2707 104.761 16.2287 104.717 16.2013C104.673 16.1738 104.621 16.1628 104.57 16.17C104.54 16.1642 104.509 16.1649 104.48 16.1722C104.45 16.1795 104.423 16.1931 104.399 16.2122C104.375 16.2312 104.356 16.2552 104.342 16.2824C104.328 16.3097 104.321 16.3396 104.32 16.37V39.69H99.22V14.75C99.22 12.44 100.97 11.06 103.83 11.06C106.32 11.06 107.97 12.11 108.36 13.91L111.98 30.91L115.6 13.91C115.98 12.11 117.6 11.06 120.13 11.06C122.99 11.06 124.74 12.44 124.74 14.75V39.69H124.72ZM89 11.34H94.1V39.69H89V29.54L83.73 38.67C83.4111 39.126 82.9756 39.4882 82.469 39.7186C81.9625 39.949 81.4034 40.0393 80.85 39.98C78.85 39.98 77.66 38.98 77.66 37.43V11.34H82.76V31.05C82.7611 31.0755 82.7676 31.1005 82.779 31.1234C82.7905 31.1462 82.8067 31.1664 82.8266 31.1824C82.8465 31.1985 82.8695 31.2102 82.8943 31.2167C82.919 31.2231 82.9448 31.2243 82.97 31.22C83.0068 31.223 83.0437 31.2163 83.0771 31.2005C83.1105 31.1847 83.1391 31.1604 83.16 31.13L88.99 21.03V11.34H89ZM56.69 39.69L69.3 11.34H74.3L68.43 24.53L76.99 44.69C77.2274 45.2601 77.3464 45.8725 77.34 46.49C77.34 49.32 75.19 51.03 71.67 51.03H59.79C56.28 51.03 54.12 49.33 54.12 46.49C54.111 45.8509 54.2371 45.217 54.49 44.63L55.17 43.09H63.54V44.22H59.63L59.45 44.63C59.3127 44.9456 59.2413 45.2859 59.24 45.63C59.24 47.21 60.44 48.16 62.4 48.16H68.46C70.4 48.16 71.59 47.22 71.59 45.65C71.5954 45.3072 71.5307 44.9669 71.4 44.65L65.55 30.87L61.64 39.65H56.64L56.69 39.69ZM49.89 32.69V18.29C49.89 16.59 48.6 15.57 46.49 15.57C44.38 15.57 43.09 16.57 43.09 18.29V32.69C43.09 34.39 44.38 35.41 46.49 35.41C48.6 35.41 49.89 34.41 49.89 32.69ZM54.99 17.55C54.99 13.3 51.76 10.75 46.49 10.75C41.22 10.75 37.99 13.3 37.99 17.55V33.42C37.99 37.67 41.22 40.22 46.49 40.22C51.76 40.22 54.99 37.67 54.99 33.42V17.58V17.55ZM26.36 17.83V22.65H33.73V27.19H26.36V33.19C26.36 34.61 27.44 35.46 29.19 35.46C31.0959 35.4607 32.9965 35.2595 34.86 34.86V39.25C32.5299 39.7499 30.1532 40.0013 27.77 40C23.77 40 21.25 38 21.25 34.78V16.27C21.25 13.01 23.73 11.05 27.77 11.05C30.1532 11.0487 32.5299 11.3001 34.86 11.8V16.19C32.9965 15.7904 31.0959 15.5893 29.19 15.59C27.43 15.59 26.36 16.44 26.36 17.86V17.83ZM11.36 11.31H16.46V39.66H11.36V27.22H5.12001V39.69H0.0200195V11.34H5.12001V22.68H11.36V11.34V11.31Z" fill="#242424"/>
<path fill-rule="evenodd" clip-rule="evenodd" d="M62.8 11.34L64.77 15.96L61.93 22.34L57.26 11.34H62.8Z" fill="#E75F34"/>
<path fill-rule="evenodd" clip-rule="evenodd" d="M70.5601 8.5L74.3501 0L78.4901 1.84L75.5301 8.5H70.5601Z" fill="#B2B3B6"/>
</g>
<defs>
<clipPath id="clip0_1_1840">
<rect width="124.72" height="51.02" fill="white"/>
</clipPath>
</defs>
</svg>
