<svg width="44" height="47" viewBox="0 0 44 47" fill="none" xmlns="http://www.w3.org/2000/svg">
<g id="Vector">
<path d="M43.749 12.7191L31.8531 0.277043C31.6838 0.100059 31.4501 0 31.2061 0H13.4761C11.4919 0 9.87757 1.62425 9.87757 3.62065V16.2693H2.69228C1.20775 16.2693 0 17.4846 0 18.9785V32.5409C0 34.0347 1.20775 35.25 2.69228 35.25H9.87757V43.3857C9.87757 45.3786 11.4919 47 13.4761 47H40.4015C42.3857 47 44 45.3795 44 43.3877V13.3459C44 13.1122 43.91 12.8875 43.749 12.7191ZM31.4286 2.44005L41.1941 12.6538H31.4286V2.44005ZM2.69228 33.4423C2.19798 33.4423 1.79598 33.038 1.79598 32.5409V18.9785C1.79598 18.4814 2.19808 18.0769 2.69228 18.0769H26.9404C27.4347 18.0769 27.8367 18.4814 27.8367 18.9785V32.5409C27.8367 33.038 27.4346 33.4423 26.9404 33.4423H2.69228ZM42.204 43.3877C42.204 44.3828 41.3954 45.1923 40.4014 45.1923H13.4761C12.4821 45.1923 11.6735 44.382 11.6735 43.3858V35.25H26.9404C28.425 35.25 29.6327 34.0347 29.6327 32.5409V18.9785C29.6327 17.4846 28.425 16.2693 26.9404 16.2693H11.6735V3.62065C11.6735 2.62089 12.4821 1.80766 13.4761 1.80766H29.6326V13.5577C29.6326 14.0569 30.0347 14.4615 30.5306 14.4615H42.204V43.3877Z" fill="#C90017"/>
<path d="M10.7352 22.9395C10.4371 22.5494 10.067 22.296 9.62504 22.1795C9.3374 22.1018 8.72007 22.063 7.77297 22.063H5.27376V29.8269H6.83116V26.8982H7.84666C8.55172 26.8982 9.09016 26.8611 9.46198 26.787C9.73557 26.7269 10.0048 26.6043 10.2696 26.4189C10.5345 26.2335 10.7528 25.9784 10.9247 25.6536C11.0966 25.3289 11.1825 24.9281 11.1825 24.4515C11.1824 23.8336 11.0333 23.3296 10.7352 22.9395ZM9.40142 25.0764C9.28396 25.2495 9.12171 25.3765 8.91469 25.4578C8.70767 25.539 8.29737 25.5796 7.68351 25.5796H6.83116V23.3764H7.58355C8.14479 23.3764 8.51834 23.3941 8.70421 23.4294C8.95674 23.4753 9.16549 23.5901 9.33029 23.7736C9.49517 23.9572 9.57762 24.1903 9.57762 24.4727C9.57771 24.7022 9.51889 24.9034 9.40142 25.0764Z" fill="#C90017"/>
<path d="M18.6695 24.1841C18.5012 23.688 18.2556 23.2688 17.9329 22.9263C17.6102 22.5838 17.2225 22.3455 16.7701 22.2113C16.4334 22.1124 15.944 22.063 15.3022 22.063H12.4557V29.8269H15.3863C15.9616 29.8269 16.4211 29.7722 16.7648 29.6627C17.2244 29.5144 17.5892 29.3079 17.8592 29.0431C18.217 28.6935 18.4923 28.2364 18.6853 27.6714C18.8432 27.2089 18.922 26.6581 18.922 26.0191C18.922 25.2918 18.8379 24.6801 18.6695 24.1841ZM17.1541 27.3723C17.0489 27.7201 16.913 27.9699 16.7464 28.1216C16.5798 28.2734 16.3702 28.3811 16.1177 28.4446C15.9248 28.4941 15.6108 28.5188 15.1759 28.5188H14.0131V23.3764H14.7128C15.3477 23.3764 15.7739 23.4011 15.9914 23.4506C16.2825 23.5141 16.5228 23.636 16.7122 23.8161C16.9016 23.9962 17.0489 24.2468 17.1541 24.5681C17.2594 24.8893 17.312 25.3501 17.312 25.9503C17.312 26.5505 17.2594 27.0245 17.1541 27.3723Z" fill="#C90017"/>
<path d="M25.541 23.3764V22.063H20.2532V29.8269H21.8106V26.5276H25.0306V25.2141H21.8106V23.3764H25.541Z" fill="#C90017"/>
</g>
</svg>
