<svg width="17" height="26" viewBox="0 0 17 26" fill="none" xmlns="http://www.w3.org/2000/svg">
<path d="M15.9193 22.2856C15.8845 22.2172 13.2324 17.5347 12.0493 17.2394C11.4874 17.0924 11.0272 17.3103 10.1047 17.7458C9.95605 17.8163 9.59931 17.9848 9.33033 18.0976C9.00997 17.8015 8.71114 17.4828 8.4361 17.1442C7.01155 15.4069 6.21037 13.2424 6.16058 10.9963C6.14869 10.5602 6.16806 10.1238 6.21854 9.69043C6.49713 9.60058 6.87763 9.49624 7.04023 9.45153C8.01912 9.18321 8.51087 9.0493 8.84235 8.57053C9.52713 7.5778 8.50603 2.27057 8.49258 2.22081C8.44808 1.97603 8.34973 1.7442 8.20464 1.5421C8.05955 1.34 7.87135 1.17268 7.65366 1.05224C6.49563 0.519886 1.21777 3.28897 0.885732 4.01124C0.866435 4.05321 -1.03451 8.34807 1.76671 16.1193C4.69762 23.8332 8.93606 25.8551 8.97804 25.8744C9.70098 26.2068 15.5092 24.872 16.0415 23.7139C16.1282 23.4817 16.1621 23.233 16.141 22.986C16.1199 22.739 16.0441 22.4998 15.9193 22.2856Z" fill="#0B4296"/>
</svg>
