<svg width="18" height="19" viewBox="0 0 18 19" fill="none" xmlns="http://www.w3.org/2000/svg">
<path d="M17.2434 13.1658C17.2125 13.139 13.6557 10.5859 12.6889 10.7611C12.2251 10.8437 11.9602 11.1596 11.4293 11.7915C11.3438 11.8937 11.1383 12.1383 10.9785 12.3124C10.6426 12.2028 10.315 12.0694 9.99802 11.9133C8.36218 11.1169 7.04048 9.79517 6.24409 8.15933C6.08781 7.84244 5.95444 7.51477 5.845 7.17883C6.0196 7.01848 6.26428 6.813 6.3688 6.7251C6.99832 6.19655 7.31486 5.93167 7.39681 5.46726C7.56488 4.50517 5.01831 0.945433 4.99159 0.913363C4.87598 0.748416 4.72517 0.611219 4.55005 0.511694C4.37493 0.41217 4.17989 0.352804 3.97902 0.337891C2.94685 0.337891 0 4.16072 0 4.80448C0 4.8419 0.0540434 8.64513 4.74394 13.4158C9.50985 18.1003 13.3125 18.1544 13.3499 18.1544C13.9937 18.1544 17.8165 15.2075 17.8165 14.1754C17.8017 13.9751 17.7426 13.7807 17.6435 13.6061C17.5444 13.4315 17.4077 13.2811 17.2434 13.1658Z" fill="#0B4296"/>
<path d="M9.50213 5.08895C10.4469 5.0899 11.3527 5.46562 12.0207 6.13366C12.6888 6.80171 13.0645 7.7075 13.0654 8.65225C13.0654 8.80976 13.128 8.96082 13.2394 9.07219C13.3507 9.18357 13.5018 9.24614 13.6593 9.24614C13.8168 9.24614 13.9679 9.18357 14.0792 9.07219C14.1906 8.96082 14.2532 8.80976 14.2532 8.65225C14.2518 7.39263 13.7508 6.185 12.8601 5.29431C11.9694 4.40361 10.7618 3.9026 9.50213 3.90119C9.34462 3.90119 9.19356 3.96376 9.08219 4.07513C8.97081 4.18651 8.90824 4.33756 8.90824 4.49507C8.90824 4.65258 8.97081 4.80364 9.08219 4.91501C9.19356 5.02638 9.34462 5.08895 9.50213 5.08895Z" fill="#0B4296"/>
<path d="M9.50213 2.11954C11.2341 2.12158 12.8945 2.81051 14.1192 4.03518C15.3439 5.25986 16.0328 6.9203 16.0348 8.65225C16.0348 8.80976 16.0974 8.96082 16.2088 9.07219C16.3202 9.18357 16.4712 9.24614 16.6287 9.24614C16.7862 9.24614 16.9373 9.18357 17.0487 9.07219C17.16 8.96082 17.2226 8.80976 17.2226 8.65225C17.2202 6.60538 16.4061 4.64301 14.9587 3.19565C13.5114 1.74829 11.549 0.934131 9.50213 0.931774C9.34462 0.931774 9.19356 0.994343 9.08219 1.10572C8.97081 1.21709 8.90824 1.36815 8.90824 1.52566C8.90824 1.68316 8.97081 1.83422 9.08219 1.9456C9.19356 2.05697 9.34462 2.11954 9.50213 2.11954Z" fill="#0B4296"/>
</svg>
