<svg width="52" height="52" viewBox="0 0 52 52" fill="none" xmlns="http://www.w3.org/2000/svg">
<g id="Vector">
<path d="M10.3586 5.1793H15.5379V6.90574H10.3586V5.1793Z" fill="#C90017"/>
<path d="M17.2643 5.1793H24.1701V6.90574H17.2643V5.1793Z" fill="#C90017"/>
<path d="M10.3586 8.63217H24.1701V10.3586H10.3586V8.63217Z" fill="#C90017"/>
<path d="M17.2643 13.8115H32.8023V15.5379H17.2643V13.8115Z" fill="#C90017"/>
<path d="M20.7172 17.2643H37.9816V18.9908H20.7172V17.2643Z" fill="#C90017"/>
<path d="M34.5287 13.8115H37.9816V15.5379H34.5287V13.8115Z" fill="#C90017"/>
<path d="M24.1701 20.7172H36.2551V22.4436H24.1701V20.7172Z" fill="#C90017"/>
<path d="M51.9588 10.7358C51.8699 10.2314 51.6334 9.76464 51.2792 9.39461C50.925 9.02457 50.4691 8.76789 49.969 8.65701C49.4689 8.54613 48.9472 8.58603 48.4698 8.77168C47.9924 8.95733 47.5808 9.28038 47.287 9.69997L43.8031 14.6747H43.1609V2.58965C43.1609 1.90283 42.888 1.24415 42.4024 0.758492C41.9167 0.272838 41.258 0 40.5712 0H7.76896C7.08214 0 6.42345 0.272838 5.93779 0.758492C5.45214 1.24415 5.1793 1.90283 5.1793 2.58965V3.45287H2.58965C1.90283 3.45287 1.24415 3.72571 0.758492 4.21136C0.272838 4.69701 0 5.3557 0 6.04252V49.2034C0 49.8902 0.272838 50.5489 0.758492 51.0345C1.24415 51.5202 1.90283 51.793 2.58965 51.793H45.7505C46.4373 51.793 47.096 51.5202 47.5817 51.0345C48.0673 50.5489 48.3402 49.8902 48.3402 49.2034V17.2643C48.3402 17.2523 48.3402 17.2419 48.3402 17.2298L51.5341 12.6703C51.7293 12.392 51.8673 12.0777 51.9402 11.7456C52.0131 11.4136 52.0194 11.0703 51.9588 10.7358ZM32.2912 37.1356L30.8773 36.1455L44.2451 17.0537L45.659 18.0412L32.2912 37.1356ZM29.9252 37.5871L31.2623 38.5237L29.1906 40.0619L29.9252 37.5871ZM45.2326 15.6398L46.2253 14.2258L47.6392 15.2151L46.6491 16.6299L45.2326 15.6398ZM32.8023 1.72643H36.2551V6.90574L35.2193 5.52459C35.1354 5.42263 35.0299 5.34051 34.9105 5.28413C34.7911 5.22775 34.6607 5.19851 34.5287 5.19851C34.3967 5.19851 34.2663 5.22775 34.1469 5.28413C34.0275 5.34051 33.922 5.42263 33.8381 5.52459L32.8023 6.90574V1.72643ZM7.76896 1.72643H31.0758V9.49539C31.0758 9.67656 31.1328 9.85315 31.2388 10.0001C31.3447 10.1471 31.4942 10.257 31.6661 10.3143C31.8379 10.3716 32.0235 10.3734 32.1964 10.3193C32.3694 10.2653 32.5209 10.1583 32.6296 10.0133L34.5287 7.4815L36.4278 10.0133C36.5082 10.1205 36.6124 10.2075 36.7323 10.2675C36.8522 10.3274 36.9843 10.3586 37.1183 10.3586C37.211 10.3584 37.3031 10.3435 37.3911 10.3146C37.5631 10.2573 37.7126 10.1474 37.8186 10.0003C37.9246 9.8533 37.9816 9.67664 37.9816 9.49539V1.72643H40.5712C40.8002 1.72643 41.0197 1.81738 41.1816 1.97927C41.3435 2.14115 41.4344 2.36071 41.4344 2.58965V18.0576L36.5503 25.0333H24.5275L13.5586 14.0644C13.3967 13.9025 13.1772 13.8115 12.9483 13.8115H6.90574V2.58965C6.90574 2.36071 6.99668 2.14115 7.15857 1.97927C7.32045 1.81738 7.54002 1.72643 7.76896 1.72643ZM2.58965 5.1793H5.1793V13.8115H1.72643V6.04252C1.72643 5.81358 1.81738 5.59402 1.97927 5.43213C2.14115 5.27025 2.36071 5.1793 2.58965 5.1793ZM46.6137 49.2034C46.6137 49.4323 46.5228 49.6519 46.3609 49.8138C46.199 49.9757 45.9795 50.0666 45.7505 50.0666H2.58965C2.36071 50.0666 2.14115 49.9757 1.97927 49.8138C1.81738 49.6519 1.72643 49.4323 1.72643 49.2034V15.5379H12.5909L23.5598 26.5068C23.7216 26.6687 23.9412 26.7597 24.1701 26.7597H35.341L28.4724 36.5693C28.4191 36.6454 28.3785 36.7297 28.3524 36.8188L26.7986 42.0516C26.7476 42.2252 26.7525 42.4104 26.8125 42.581C26.8725 42.7517 26.9846 42.8992 27.1329 43.0027C27.2812 43.1062 27.4584 43.1605 27.6392 43.1579C27.8201 43.1553 27.9956 43.0959 28.1409 42.9882L32.5252 39.7365C32.5999 39.6811 32.6652 39.6141 32.7185 39.5379L41.664 26.7597H46.6137V49.2034ZM46.6137 25.0333H43.1609V24.6224L46.6137 19.6909V25.0333ZM50.1149 11.6802L48.6302 13.8011L47.218 12.811L48.7027 10.6892C48.801 10.5505 48.938 10.4439 49.0966 10.3828C49.2553 10.3216 49.4284 10.3087 49.5943 10.3456C49.7603 10.3824 49.9117 10.4675 50.0295 10.5901C50.1473 10.7126 50.2262 10.8672 50.2565 11.0345C50.2769 11.1461 50.2748 11.2607 50.2505 11.3716C50.2262 11.4824 50.1801 11.5873 50.1149 11.6802Z" fill="#C90017"/>
<path d="M14.6747 34.5287C15.0421 34.529 15.4052 34.6073 15.74 34.7585C16.0749 34.9097 16.3738 35.1303 16.6169 35.4057L17.9118 34.2637C17.3319 33.6061 16.5655 33.1407 15.7147 32.9295C14.8638 32.7182 13.9688 32.771 13.1487 33.081C12.3286 33.3909 11.6223 33.9433 11.1239 34.6645C10.6254 35.3857 10.3585 36.2416 10.3585 37.1183C10.3585 37.9951 10.6254 38.851 11.1239 39.5722C11.6223 40.2934 12.3286 40.8458 13.1487 41.1557C13.9688 41.4657 14.8638 41.5185 15.7147 41.3072C16.5655 41.0959 17.3319 40.6306 17.9118 39.973L16.6169 38.831C16.3307 39.1556 15.9677 39.4033 15.5611 39.5515C15.1545 39.6996 14.7173 39.7436 14.2893 39.6792C13.8614 39.6148 13.4564 39.4443 13.1113 39.183C12.7663 38.9218 12.4922 38.5783 12.3142 38.1839C12.1361 37.7894 12.0597 37.3567 12.092 36.9251C12.1243 36.4936 12.2642 36.077 12.499 35.7134C12.7338 35.3499 13.0559 35.051 13.436 34.844C13.8161 34.6371 14.2419 34.5287 14.6747 34.5287Z" fill="#C90017"/>
<path d="M14.6747 29.3494C13.1381 29.3494 11.6361 29.805 10.3585 30.6587C9.0809 31.5124 8.08513 32.7257 7.49712 34.1453C6.9091 35.5649 6.75525 37.127 7.05502 38.634C7.35478 40.141 8.0947 41.5253 9.18121 42.6118C10.2677 43.6983 11.652 44.4383 13.159 44.738C14.6661 45.0378 16.2282 44.8839 17.6477 44.2959C19.0673 43.7079 20.2807 42.7121 21.1343 41.4345C21.988 40.1569 22.4436 38.6549 22.4436 37.1183C22.4411 35.0587 21.6218 33.0841 20.1654 31.6276C18.709 30.1712 16.7344 29.3519 14.6747 29.3494ZM14.6747 43.1609C13.4796 43.1609 12.3113 42.8065 11.3176 42.1425C10.324 41.4786 9.54948 40.5348 9.09213 39.4307C8.63479 38.3266 8.51513 37.1116 8.74828 35.9395C8.98143 34.7674 9.55692 33.6907 10.402 32.8456C11.247 32.0006 12.3237 31.4251 13.4959 31.1919C14.668 30.9588 15.8829 31.0784 16.9871 31.5358C18.0912 31.9931 19.0349 32.7676 19.6989 33.7613C20.3628 34.755 20.7172 35.9232 20.7172 37.1183C20.7154 38.7204 20.0782 40.2562 18.9454 41.389C17.8126 42.5218 16.2767 43.159 14.6747 43.1609Z" fill="#C90017"/>
</g>
</svg>
