<svg width="45" height="52" viewBox="0 0 45 52" fill="none" xmlns="http://www.w3.org/2000/svg">
<g id="Vector">
<path d="M22.1406 52C22.0764 52 22.0121 51.9941 21.9486 51.9818C15.787 50.7967 10.1927 47.4801 6.1965 42.6424C2.20065 37.8047 0 31.6847 0 25.4101V7.63464C0 7.1907 0.288422 6.79794 0.712128 6.66544L21.805 0.0571289C21.9117 0.0198364 22.0287 0.00238037 22.1406 0H22.1418C22.2569 0 22.3699 0.0198364 22.4767 0.0571289L43.5691 6.66544C43.9928 6.79834 44.2812 7.1907 44.2812 7.63464V25.4101C44.2812 31.6847 42.0806 37.8047 38.0843 42.6424C34.0885 47.4801 28.4942 50.7967 22.3326 51.9818C22.2692 51.9941 22.2049 52 22.1406 52ZM2.03125 8.38049V25.4101C2.03125 37.3238 10.4764 47.6126 22.1406 49.9493C33.8048 47.6126 42.2496 37.3238 42.2496 25.4101V8.38049L22.1406 2.08044L2.03125 8.38049Z" fill="#C90017"/>
<path d="M22.1406 46.178C22.0581 46.178 21.9756 46.1681 21.8954 46.1483C17.3101 45.0073 13.1726 42.3222 10.2443 38.5878C7.30576 34.8395 5.6875 30.1597 5.6875 25.4101V11.8126C5.6875 11.3687 5.97592 10.9763 6.39923 10.8438L21.8367 6.00726C22.0343 5.94537 22.2466 5.94537 22.4441 6.00726L37.8816 10.8438C38.3049 10.9763 38.5933 11.3687 38.5933 11.8126V25.4101C38.5933 28.8818 37.7332 32.3377 36.1063 35.4041C35.8432 35.8996 35.2287 36.0876 34.7332 35.825C34.2377 35.562 34.0492 34.9474 34.3119 34.4519C35.7841 31.678 36.5621 28.5514 36.5621 25.4101V12.5588L22.1402 8.0405L7.71875 12.5588V25.4101C7.71875 34.2266 13.6364 41.8818 22.1402 44.1142C24.5027 43.4941 26.6978 42.4448 28.6688 40.9932C29.1203 40.6607 29.7562 40.7571 30.0887 41.2086C30.4215 41.6601 30.3251 42.296 29.8733 42.6285C27.6194 44.2888 25.1002 45.4726 22.3854 46.1483C22.3053 46.1681 22.2227 46.178 22.1406 46.178Z" fill="#C90017"/>
<path d="M20.2958 33.6434C20.0356 33.6434 19.7761 33.5442 19.5778 33.3458L12.7766 26.5447C12.3799 26.1484 12.3799 25.5053 12.7766 25.1086L16.2238 21.6614C16.4142 21.4709 16.6725 21.3638 16.9419 21.3638C17.2113 21.3638 17.4695 21.4709 17.66 21.6614L20.2958 24.2972L26.6209 17.9718C27.0176 17.5755 27.6607 17.5751 28.0574 17.9718L31.5046 21.419C31.695 21.6094 31.8022 21.8677 31.8022 22.1371C31.8022 22.4064 31.695 22.6647 31.5046 22.8551L21.0139 33.3458C20.8155 33.5442 20.5557 33.6434 20.2958 33.6434ZM14.9309 25.8266L20.2958 31.1912L29.35 22.1371L27.339 20.1264L21.0139 26.4519C20.8235 26.6423 20.5652 26.749 20.2958 26.749C20.0265 26.749 19.7682 26.6423 19.5778 26.4519L16.9419 23.816L14.9309 25.8266Z" fill="#C90017"/>
<path d="M32.6238 39.7213C32.3568 39.7213 32.0945 39.6133 31.9057 39.4237C31.7169 39.2349 31.6082 38.9726 31.6082 38.7056C31.6082 38.4386 31.7169 38.1764 31.9057 37.9875C32.0945 37.7987 32.3568 37.69 32.6238 37.69C32.8908 37.69 33.153 37.7987 33.3419 37.9875C33.5307 38.1764 33.6394 38.4386 33.6394 38.7056C33.6394 38.9726 33.5307 39.2349 33.3419 39.4237C33.153 39.6133 32.8908 39.7213 32.6238 39.7213Z" fill="#C90017"/>
</g>
</svg>
