<svg width="50" height="50" viewBox="0 0 50 50" fill="none" xmlns="http://www.w3.org/2000/svg">
<path d="M2.50002 13.3334H30.8334C32.2141 13.3334 33.3334 12.2141 33.3334 10.8334V4.16671C33.3334 2.78601 32.2141 1.66668 30.8334 1.66668H2.50002C1.11932 1.66668 0 2.78592 0 4.16671V10.8334C0 12.2141 1.11932 13.3334 2.50002 13.3334ZM1.66668 4.16671C1.66668 3.70645 2.03976 3.33337 2.50002 3.33337H30.8334C31.2937 3.33337 31.6667 3.70645 31.6667 4.16671V10.8334C31.6667 11.2936 31.2937 11.6667 30.8334 11.6667H2.50002C2.03976 11.6667 1.66668 11.2936 1.66668 10.8334V4.16671Z" fill="#C90017"/>
<path d="M42.5 0C38.3579 0 35 3.35789 35 7.49999C35 11.6421 38.3579 15 42.5 15C46.6421 15 50 11.6421 50 7.49999C49.9955 3.35977 46.6403 0.00459277 42.5 0ZM42.5 13.3334C40.1406 13.3334 38.0136 11.9122 37.1107 9.73241C36.2078 7.55264 36.7069 5.0436 38.3752 3.37528C40.0435 1.70695 42.5526 1.2079 44.7323 2.11079C46.9121 3.01368 48.3333 5.1407 48.3333 7.50007C48.3297 10.7202 45.7202 13.3297 42.5 13.3334Z" fill="#C90017"/>
<path fill-rule="evenodd" clip-rule="evenodd" d="M45.23 4.42587L41.0717 8.79171L39.77 7.42503C39.5664 7.20228 39.2583 7.10706 38.9645 7.17604C38.6707 7.24501 38.4371 7.46743 38.354 7.75751C38.2707 8.0476 38.3509 8.35999 38.5634 8.57421L40.4684 10.5742C40.6257 10.7393 40.8437 10.8327 41.0717 10.8327C41.2997 10.8327 41.5177 10.7393 41.675 10.5742L46.4367 5.57423C46.6537 5.36083 46.7371 5.04614 46.6543 4.75335C46.5716 4.46048 46.3357 4.23609 46.0392 4.16786C45.7426 4.09962 45.4324 4.19853 45.23 4.42587Z" fill="#C90017"/>
<path fill-rule="evenodd" clip-rule="evenodd" d="M4.16671 6.66665H8.33342C8.79368 6.66665 9.16676 6.29357 9.16676 5.83331C9.16676 5.37305 8.79368 4.99997 8.33342 4.99997H4.16671C3.70645 4.99997 3.33337 5.37305 3.33337 5.83331C3.33337 6.29357 3.70645 6.66665 4.16671 6.66665Z" fill="#C90017"/>
<path fill-rule="evenodd" clip-rule="evenodd" d="M11.6667 6.66665H29.1667C29.627 6.66665 30.0001 6.29357 30.0001 5.83331C30.0001 5.37305 29.627 4.99997 29.1667 4.99997H11.6667C11.2064 4.99997 10.8334 5.37305 10.8334 5.83331C10.8334 6.29357 11.2064 6.66665 11.6667 6.66665Z" fill="#C90017"/>
<path fill-rule="evenodd" clip-rule="evenodd" d="M4.16671 10H29.1667C29.627 10 30 9.62694 30 9.16667C30 8.70641 29.627 8.33333 29.1667 8.33333H4.16671C3.70645 8.33333 3.33337 8.70641 3.33337 9.16667C3.33337 9.62694 3.70645 10 4.16671 10Z" fill="#C90017"/>
<path d="M2.50002 30.8334H30.8334C32.2141 30.8334 33.3334 29.7141 33.3334 28.3334V21.6667C33.3334 20.286 32.2141 19.1667 30.8334 19.1667H2.50002C1.11932 19.1667 0 20.2859 0 21.6667V28.3334C0 29.7141 1.11932 30.8334 2.50002 30.8334ZM1.66668 21.6667C1.66668 21.2065 2.03976 20.8334 2.50002 20.8334H30.8334C31.2937 20.8334 31.6667 21.2065 31.6667 21.6667V28.3334C31.6667 28.7936 31.2937 29.1667 30.8334 29.1667H2.50002C2.03976 29.1667 1.66668 28.7936 1.66668 28.3334V21.6667Z" fill="#C90017"/>
<path d="M42.5 17.5C38.3579 17.5 35 20.8579 35 25C35 29.1421 38.3579 32.5 42.5 32.5C46.6421 32.5 50 29.1421 50 25C49.9955 20.8598 46.6403 17.5046 42.5 17.5ZM42.5 30.8334C40.1406 30.8334 38.0136 29.4122 37.1107 27.2324C36.2078 25.0527 36.7069 22.5436 38.3752 20.8753C40.0435 19.207 42.5526 18.7079 44.7323 19.6108C46.9121 20.5137 48.3333 22.6407 48.3333 25.0001C48.3297 28.2202 45.7202 30.8297 42.5 30.8334Z" fill="#C90017"/>
<path fill-rule="evenodd" clip-rule="evenodd" d="M45.23 21.9259L41.0717 26.2917L39.77 24.925C39.5664 24.7023 39.2583 24.6071 38.9645 24.676C38.6707 24.745 38.4371 24.9674 38.354 25.2575C38.2707 25.5476 38.3509 25.86 38.5634 26.0742L40.4684 28.0742C40.6257 28.2393 40.8437 28.3327 41.0717 28.3327C41.2997 28.3327 41.5177 28.2393 41.675 28.0742L46.4367 23.0742C46.6537 22.8608 46.7371 22.5462 46.6543 22.2534C46.5716 21.9605 46.3357 21.7361 46.0392 21.6679C45.7426 21.5996 45.4324 21.6985 45.23 21.9259Z" fill="#C90017"/>
<path fill-rule="evenodd" clip-rule="evenodd" d="M4.16671 24.1667H8.33342C8.79368 24.1667 9.16676 23.7936 9.16676 23.3333C9.16676 22.8731 8.79368 22.5 8.33342 22.5H4.16671C3.70645 22.5 3.33337 22.8731 3.33337 23.3333C3.33337 23.7936 3.70645 24.1667 4.16671 24.1667Z" fill="#C90017"/>
<path fill-rule="evenodd" clip-rule="evenodd" d="M11.6667 24.1667H29.1667C29.627 24.1667 30.0001 23.7936 30.0001 23.3333C30.0001 22.8731 29.627 22.5 29.1667 22.5H11.6667C11.2064 22.5 10.8334 22.8731 10.8334 23.3333C10.8334 23.7936 11.2064 24.1667 11.6667 24.1667Z" fill="#C90017"/>
<path fill-rule="evenodd" clip-rule="evenodd" d="M4.16671 27.5H29.1667C29.627 27.5 30 27.1269 30 26.6667C30 26.2064 29.627 25.8333 29.1667 25.8333H4.16671C3.70645 25.8333 3.33337 26.2064 3.33337 26.6667C3.33337 27.1269 3.70645 27.5 4.16671 27.5Z" fill="#C90017"/>
<path d="M2.50002 48.3334H30.8334C32.2141 48.3334 33.3334 47.2141 33.3334 45.8334V39.1667C33.3334 37.786 32.2141 36.6667 30.8334 36.6667H2.50002C1.11932 36.6667 0 37.786 0 39.1667V45.8334C0 47.2141 1.11932 48.3334 2.50002 48.3334ZM1.66668 39.1667C1.66668 38.7065 2.03976 38.3334 2.50002 38.3334H30.8334C31.2937 38.3334 31.6667 38.7065 31.6667 39.1667V45.8334C31.6667 46.2936 31.2937 46.6667 30.8334 46.6667H2.50002C2.03976 46.6667 1.66668 46.2936 1.66668 45.8334V39.1667Z" fill="#C90017"/>
<path d="M42.5 35C38.3579 35 35 38.3579 35 42.5C35 46.6421 38.3579 50 42.5 50C46.6421 50 50 46.6421 50 42.5C49.9955 38.3598 46.6403 35.0046 42.5 35ZM42.5 48.3334C40.1406 48.3334 38.0136 46.9122 37.1107 44.7324C36.2078 42.5527 36.7069 40.0436 38.3752 38.3753C40.0435 36.707 42.5526 36.2079 44.7323 37.1108C46.9121 38.0137 48.3333 40.1407 48.3333 42.5001C48.3297 45.7202 45.7202 48.3297 42.5 48.3334Z" fill="#C90017"/>
<path fill-rule="evenodd" clip-rule="evenodd" d="M45.23 39.4259L41.0717 43.7917L39.77 42.425C39.5664 42.2023 39.2583 42.1071 38.9645 42.1761C38.6707 42.245 38.4371 42.4674 38.354 42.7575C38.2707 43.0476 38.3509 43.36 38.5634 43.5742L40.4684 45.5742C40.6257 45.7393 40.8437 45.8327 41.0717 45.8327C41.2997 45.8327 41.5177 45.7393 41.675 45.5742L46.4367 40.5742C46.6537 40.3608 46.7371 40.0462 46.6543 39.7534C46.5716 39.4605 46.3357 39.2361 46.0392 39.1679C45.7426 39.0996 45.4324 39.1985 45.23 39.4259Z" fill="#C90017"/>
<path fill-rule="evenodd" clip-rule="evenodd" d="M4.16671 41.6667H8.33342C8.79368 41.6667 9.16676 41.2936 9.16676 40.8333C9.16676 40.3731 8.79368 40 8.33342 40H4.16671C3.70645 40 3.33337 40.3731 3.33337 40.8333C3.33337 41.2936 3.70645 41.6667 4.16671 41.6667Z" fill="#C90017"/>
<path fill-rule="evenodd" clip-rule="evenodd" d="M11.6667 41.6667H29.1667C29.627 41.6667 30.0001 41.2936 30.0001 40.8333C30.0001 40.3731 29.627 40 29.1667 40H11.6667C11.2064 40 10.8334 40.3731 10.8334 40.8333C10.8334 41.2936 11.2064 41.6667 11.6667 41.6667Z" fill="#C90017"/>
<path fill-rule="evenodd" clip-rule="evenodd" d="M4.16671 45H29.1667C29.627 45 30 44.627 30 44.1667C30 43.7064 29.627 43.3334 29.1667 43.3334H4.16671C3.70645 43.3334 3.33337 43.7064 3.33337 44.1667C3.33337 44.627 3.70645 45 4.16671 45Z" fill="#C90017"/>
</svg>
