<svg width="18" height="21" viewBox="0 0 18 21" fill="none" xmlns="http://www.w3.org/2000/svg">
<path d="M8.9215 2.44852C4.58112 2.44852 1.04994 6.1548 1.04994 10.7104C1.04994 15.266 4.58112 18.9723 8.9215 18.9723C13.2619 18.9723 16.7931 15.266 16.7931 10.7104C16.7931 6.15484 13.2619 2.44852 8.9215 2.44852ZM14.193 13.9048C14.116 14.0453 13.9718 14.1327 13.8165 14.1327C13.7402 14.1327 13.6652 14.1115 13.5996 14.0715L8.71303 11.1102L8.70544 11.1058C8.57034 11.0238 8.48716 10.8726 8.48716 10.7104V4.77716C8.48716 4.5258 8.68202 4.32128 8.9215 4.32128C9.16099 4.32128 9.35585 4.5258 9.35585 4.77716V10.4471L14.0342 13.2821C14.1348 13.343 14.2067 13.4414 14.2366 13.5592C14.2666 13.6767 14.2511 13.7995 14.193 13.9048ZM6.88256 1.29972C7.06803 1.2482 7.17834 1.04851 7.12884 0.853851C7.07976 0.65919 6.88951 0.542931 6.70404 0.594923C5.30068 0.985631 4.0033 1.65804 2.84841 2.59257C2.57217 2.81642 2.30767 3.0521 2.05532 3.29963L1.14535 2.50732C1.05024 2.42436 0.920344 2.40112 0.804372 2.44531C0.6884 2.48998 0.603289 2.59574 0.581558 2.7234L0.00516904 6.07046H0.0056218C-0.0199946 6.21772 0.0429713 6.37179 0.173279 6.45111C0.228021 6.48437 0.287969 6.50033 0.347011 6.50033C0.466907 6.50033 0.583746 6.43467 0.647995 6.3175C2.00272 3.85538 4.27519 2.02637 6.88256 1.29972ZM17.6433 14.9998C17.477 14.8985 17.2646 14.9578 17.1686 15.132C15.8095 17.5924 13.5345 19.4172 10.9258 20.1389C10.7403 20.1904 10.6296 20.3896 10.6787 20.5847C10.7195 20.748 10.8602 20.8565 11.0144 20.8565C11.0435 20.8565 11.0735 20.8523 11.103 20.8441C12.5072 20.4557 13.8055 19.7861 14.9622 18.8533C15.2388 18.63 15.5038 18.3947 15.7566 18.1481L16.6652 18.9418C16.7286 18.997 16.8073 19.0261 16.8876 19.0261C16.9272 19.0261 16.9675 19.0189 17.0057 19.0042C17.1221 18.96 17.2069 18.8543 17.2294 18.7271L17.811 15.3805C17.8362 15.2336 17.7736 15.0786 17.6433 14.9998Z" fill="#0B4296"/>
</svg>
