<svg width="55" height="43" viewBox="0 0 55 43" fill="none" xmlns="http://www.w3.org/2000/svg">
<g id="Vector">
<path d="M53.6572 15.9349H51.7479V6.57277C51.7479 5.85313 51.1456 5.26776 50.4051 5.26776H33.5903V1.30501C33.5903 0.585376 32.988 0 32.2475 0H11.0645C10.6195 0 10.2588 0.350578 10.2588 0.783007C10.2588 1.21544 10.6195 1.56601 11.0645 1.56601H31.979V7.11743C30.8646 6.7181 29.6608 6.49979 28.4056 6.49979C25.5635 6.49979 22.9855 7.61814 21.1119 9.42553H6.67627C6.23133 9.42553 5.87061 9.7761 5.87061 10.2085C5.87061 10.641 6.23133 10.9915 6.67627 10.9915H19.7851C19.3412 11.6376 18.9721 12.3359 18.6899 13.0751H13.4277C12.9828 13.0751 12.6221 13.4256 12.6221 13.8581C12.6221 14.2905 12.9828 14.6411 13.4277 14.6411H18.2379C18.113 15.2648 18.0469 15.9086 18.0469 16.5672C18.0469 16.6198 18.0481 16.6722 18.0489 16.7246H6.67627C6.23133 16.7246 5.87061 17.0752 5.87061 17.5076C5.87061 17.94 6.23133 18.2906 6.67627 18.2906H18.1993C18.3283 19.0143 18.5373 19.7117 18.8167 20.3742H6.67627C6.23133 20.3742 5.87061 20.7247 5.87061 21.1572C5.87061 21.5896 6.23133 21.9402 6.67627 21.9402H19.6493C20.1522 22.7117 20.7598 23.4126 21.4529 24.0237H16.1133C15.6683 24.0237 15.3076 24.3743 15.3076 24.8067C15.3076 25.2391 15.6683 25.5897 16.1133 25.5897H23.8139C25.1986 26.258 26.7576 26.6347 28.4056 26.6347C29.6208 26.6347 30.7872 26.4287 31.8715 26.0533V40.5615H1.61133V1.56601H7.30469C7.74963 1.56601 8.11035 1.21544 8.11035 0.783007C8.11035 0.350578 7.74963 0 7.30469 0H1.34277C0.602314 0 0 0.585376 0 1.30501V40.8226C0 41.5423 0.602314 42.1277 1.34277 42.1277H46.084C46.5289 42.1277 46.8896 41.7771 46.8896 41.3447C46.8896 40.9122 46.5289 40.5616 46.084 40.5616H33.5903V25.2787C33.7308 25.1995 33.8699 25.1182 34.0061 25.0327L35.6849 26.6642C35.5348 27.1158 35.6429 27.6316 36.0112 27.9896L42.1304 33.9367C42.7021 34.4923 43.4531 34.7701 44.204 34.7701C44.9549 34.7701 45.7059 34.4923 46.2776 33.9367C46.9701 33.2636 47.2424 32.335 47.096 31.4603H53.3887V33.3183H49.7363C49.2914 33.3183 48.9307 33.6689 48.9307 34.1013C48.9307 34.5337 49.2914 34.8843 49.7363 34.8843H53.3887V36.7423H42.8613C42.4164 36.7423 42.0557 37.0929 42.0557 37.5254C42.0557 37.9578 42.4164 38.3084 42.8613 38.3084H53.3887V40.5614H49.8438C49.3988 40.5614 49.0381 40.912 49.0381 41.3444C49.0381 41.7769 49.3988 42.1274 49.8438 42.1274H53.6572C54.3977 42.1274 55 41.5421 55 40.8224V17.2399C55 16.5203 54.3977 15.9349 53.6572 15.9349ZM50.1366 8.6918H41.1426C40.6976 8.6918 40.3369 9.04237 40.3369 9.4748C40.3369 9.90723 40.6976 10.2578 41.1426 10.2578H50.1366V12.1158H41.1426C40.6976 12.1158 40.3369 12.4664 40.3369 12.8988C40.3369 13.3313 40.6976 13.6818 41.1426 13.6818H50.1366V15.9349H38.7433C38.5221 12.4841 36.5045 9.49871 33.5904 7.8544V6.83367H50.1366V8.6918ZM28.4056 25.0686C23.5822 25.0686 19.6582 21.255 19.6582 16.5673C19.6582 11.8796 23.5822 8.06591 28.4056 8.06591C33.2289 8.06591 37.1529 11.8796 37.1529 16.5673C37.1529 21.255 33.2289 25.0686 28.4056 25.0686ZM35.2991 24.0748C35.5916 23.8208 35.869 23.5512 36.1303 23.267L37.5509 24.6477L36.7198 25.4555L35.2991 24.0748ZM45.1383 32.8295C44.6232 33.3301 43.785 33.3301 43.2699 32.8295L37.3405 27.0669L39.209 25.2509L45.1383 31.0136C45.6534 31.5143 45.6534 32.3288 45.1383 32.8295ZM46.2655 29.8944L40.1585 23.9591C39.79 23.6011 39.2595 23.4961 38.7948 23.6419L37.116 22.0104C37.9947 20.6868 38.5614 19.1508 38.7184 17.5009H53.3887V19.6224H45.4395C44.9945 19.6224 44.6338 19.9729 44.6338 20.4054C44.6338 20.8378 44.9945 21.1884 45.4395 21.1884H53.3887V23.0464H43.7207C43.2758 23.0464 42.915 23.397 42.915 23.8294C42.915 24.2618 43.2758 24.6124 43.7207 24.6124H53.3887V26.4704H48.0176C47.5726 26.4704 47.2119 26.821 47.2119 27.2534C47.2119 27.6859 47.5726 28.0365 48.0176 28.0365H53.3887V29.8945H46.2655V29.8944Z" fill="#C90017"/>
<path d="M21.8844 6.4999C22.3294 6.4999 22.6901 6.14932 22.6901 5.71689C22.6901 5.28446 22.3294 4.93388 21.8844 4.93388H11.1639C10.719 4.93388 10.3583 5.28446 10.3583 5.71689C10.3583 6.14932 10.719 6.4999 11.1639 6.4999H21.8844Z" fill="#C90017"/>
<path d="M6.67627 14.6412H10.8496C11.2946 14.6412 11.6553 14.2906 11.6553 13.8582C11.6553 13.4258 11.2946 13.0752 10.8496 13.0752H6.67627C6.23133 13.0752 5.87061 13.4258 5.87061 13.8582C5.87061 14.2906 6.23133 14.6412 6.67627 14.6412Z" fill="#C90017"/>
<path d="M13.4277 24.0238H6.67627C6.23133 24.0238 5.87061 24.3744 5.87061 24.8068C5.87061 25.2392 6.23133 25.5898 6.67627 25.5898H13.4277C13.8727 25.5898 14.2334 25.2392 14.2334 24.8068C14.2334 24.3744 13.8727 24.0238 13.4277 24.0238Z" fill="#C90017"/>
<path d="M26.3721 27.6733H6.67627C6.23133 27.6733 5.87061 28.0239 5.87061 28.4564C5.87061 28.8888 6.23133 29.2394 6.67627 29.2394H26.3721C26.817 29.2394 27.1777 28.8888 27.1777 28.4564C27.1777 28.0239 26.817 27.6733 26.3721 27.6733Z" fill="#C90017"/>
<path d="M26.3721 31.3229H20.8398C20.3949 31.3229 20.0342 31.6735 20.0342 32.1059C20.0342 32.5383 20.3949 32.8889 20.8398 32.8889H26.3721C26.817 32.8889 27.1777 32.5383 27.1777 32.1059C27.1777 31.6735 26.817 31.3229 26.3721 31.3229Z" fill="#C90017"/>
<path d="M6.67627 32.8889H18.2617C18.7067 32.8889 19.0674 32.5383 19.0674 32.1059C19.0674 31.6735 18.7067 31.3229 18.2617 31.3229H6.67627C6.23133 31.3229 5.87061 31.6735 5.87061 32.1059C5.87061 32.5383 6.23133 32.8889 6.67627 32.8889Z" fill="#C90017"/>
<path d="M6.67627 36.5384H26.3721C26.817 36.5384 27.1777 36.1879 27.1777 35.7554C27.1777 35.323 26.817 34.9724 26.3721 34.9724H6.67627C6.23133 34.9724 5.87061 35.323 5.87061 35.7554C5.87061 36.1879 6.23133 36.5384 6.67627 36.5384Z" fill="#C90017"/>
<path d="M35.2379 17.5949C34.8094 17.4793 34.3651 17.7233 34.2462 18.1401C33.5202 20.6828 31.1185 22.4587 28.4056 22.4587C25.063 22.4587 22.3438 19.8159 22.3438 16.5674C22.3438 13.3188 25.063 10.676 28.4056 10.676C31.0789 10.676 33.471 12.4193 34.223 14.9154C34.348 15.3305 34.7956 15.5685 35.2226 15.4468C35.6496 15.3253 35.8944 14.8904 35.7693 14.4754C34.8177 11.3163 31.7896 9.10992 28.4055 9.10992C24.1744 9.10992 20.7323 12.4552 20.7323 16.5673C20.7323 20.6793 24.1744 24.0246 28.4055 24.0246C31.8396 24.0246 34.8799 21.777 35.7988 18.5587C35.9178 18.1421 35.6666 17.7106 35.2379 17.5949Z" fill="#C90017"/>
<path d="M30.5574 14.7316C31.0024 14.7316 31.3631 14.381 31.3631 13.9486C31.3631 13.5162 31.0024 13.1656 30.5574 13.1656H26.2537C25.8088 13.1656 25.448 13.5162 25.448 13.9486C25.448 14.381 25.8088 14.7316 26.2537 14.7316H30.5574Z" fill="#C90017"/>
<path d="M32.5682 16.5673C32.5682 16.1349 32.2074 15.7843 31.7625 15.7843H25.0486C24.6037 15.7843 24.243 16.1349 24.243 16.5673C24.243 16.9997 24.6037 17.3503 25.0486 17.3503H31.7625C32.2074 17.3503 32.5682 16.9997 32.5682 16.5673Z" fill="#C90017"/>
<path d="M26.9424 18.4031C26.4974 18.4031 26.1367 18.7536 26.1367 19.1861C26.1367 19.6185 26.4974 19.9691 26.9424 19.9691H29.8689C30.3138 19.9691 30.6745 19.6185 30.6745 19.1861C30.6745 18.7536 30.3138 18.4031 29.8689 18.4031H26.9424Z" fill="#C90017"/>
</g>
</svg>
